<?xml version="1.0" standalone="no"?>
<!DOCTYPE svg PUBLIC "-//W3C//DTD SVG 1.1//EN" "http://www.w3.org/Graphics/SVG/1.1/DTD/svg11.dtd">
<svg width="48mm" height="96mm" viewBox="0 -96 48 96" xmlns="http://www.w3.org/2000/svg" version="1.1">
<title>OpenSCAD Model</title>
<path d="
M 28,-93.25 L 27.9783,-93.2519 L 27.9572,-93.2576 L 27.9375,-93.2668 L 27.9196,-93.2793 L 27.9042,-93.2947
 L 27.8917,-93.3125 L 27.8825,-93.3323 L 27.8769,-93.3533 L 27.875,-93.375 L 27.8769,-93.3967 L 27.8825,-93.4178
 L 27.8917,-93.4375 L 27.9042,-93.4554 L 27.9196,-93.4708 L 27.9375,-93.4833 L 27.9572,-93.4925 L 27.9783,-93.4981
 L 28,-93.5 L 28.8125,-93.5 L 28.8342,-93.4981 L 28.8552,-93.4925 L 28.875,-93.4833 L 28.8928,-93.4708
 L 28.9082,-93.4554 L 28.9207,-93.4375 L 28.9299,-93.4178 L 28.9356,-93.3967 L 28.9375,-93.375 L 28.9356,-93.3533
 L 28.9299,-93.3323 L 28.9207,-93.3125 L 28.9082,-93.2947 L 28.8928,-93.2793 L 28.875,-93.2668 L 28.8552,-93.2576
 L 28.8342,-93.2519 L 28.8125,-93.25 L 28.8125,-91.5 L 43.1875,-91.5 L 43.1875,-93.25 L 43.1658,-93.2519
 L 43.1447,-93.2576 L 43.125,-93.2668 L 43.1071,-93.2793 L 43.0917,-93.2947 L 43.0792,-93.3125 L 43.07,-93.3323
 L 43.0644,-93.3533 L 43.0625,-93.375 L 43.0644,-93.3967 L 43.07,-93.4178 L 43.0792,-93.4375 L 43.0917,-93.4554
 L 43.1071,-93.4708 L 43.125,-93.4833 L 43.1447,-93.4925 L 43.1658,-93.4981 L 43.1875,-93.5 L 44,-93.5
 L 44.0217,-93.4981 L 44.0427,-93.4925 L 44.0625,-93.4833 L 44.0803,-93.4708 L 44.0957,-93.4554 L 44.1082,-93.4375
 L 44.1175,-93.4178 L 44.1231,-93.3967 L 44.125,-93.375 L 44.1231,-93.3533 L 44.1175,-93.3323 L 44.1082,-93.3125
 L 44.0957,-93.2947 L 44.0803,-93.2793 L 44.0625,-93.2668 L 44.0427,-93.2576 L 44.0217,-93.2519 L 44,-93.25
 L 44,-91.5 L 45,-91.5 L 47.5,-93.5 L 47.5,-95.5 L 24.5,-95.5 L 24.5,-93.5
 L 27,-91.5 L 28,-91.5 z
M 4,-91.25 L 3.97829,-91.2519 L 3.95724,-91.2576 L 3.9375,-91.2668 L 3.91965,-91.2793 L 3.90424,-91.2947
 L 3.89174,-91.3125 L 3.88254,-91.3323 L 3.87689,-91.3533 L 3.875,-91.375 L 3.87689,-91.3967 L 3.88254,-91.4178
 L 3.89174,-91.4375 L 3.90424,-91.4554 L 3.91965,-91.4708 L 3.9375,-91.4833 L 3.95724,-91.4925 L 3.97829,-91.4981
 L 4,-91.5 L 4.8125,-91.5 L 4.8342,-91.4981 L 4.85524,-91.4925 L 4.875,-91.4833 L 4.89284,-91.4708
 L 4.90825,-91.4554 L 4.92075,-91.4375 L 4.92995,-91.4178 L 4.93559,-91.3967 L 4.9375,-91.375 L 4.93559,-91.3533
 L 4.92995,-91.3323 L 4.92075,-91.3125 L 4.90825,-91.2947 L 4.89284,-91.2793 L 4.875,-91.2668 L 4.85524,-91.2576
 L 4.8342,-91.2519 L 4.8125,-91.25 L 4.8125,-87.5 L 19.1875,-87.5 L 19.1875,-91.25 L 19.1658,-91.2519
 L 19.1447,-91.2576 L 19.125,-91.2668 L 19.1071,-91.2793 L 19.0917,-91.2947 L 19.0792,-91.3125 L 19.07,-91.3323
 L 19.0644,-91.3533 L 19.0625,-91.375 L 19.0644,-91.3967 L 19.07,-91.4178 L 19.0792,-91.4375 L 19.0917,-91.4554
 L 19.1071,-91.4708 L 19.125,-91.4833 L 19.1447,-91.4925 L 19.1658,-91.4981 L 19.1875,-91.5 L 20,-91.5
 L 20.0217,-91.4981 L 20.0427,-91.4925 L 20.0625,-91.4833 L 20.0803,-91.4708 L 20.0957,-91.4554 L 20.1082,-91.4375
 L 20.1175,-91.4178 L 20.1231,-91.3967 L 20.125,-91.375 L 20.1231,-91.3533 L 20.1175,-91.3323 L 20.1082,-91.3125
 L 20.0957,-91.2947 L 20.0803,-91.2793 L 20.0625,-91.2668 L 20.0427,-91.2576 L 20.0217,-91.2519 L 20,-91.25
 L 20,-87.5 L 21,-87.5 L 23.5,-91.5 L 23.5,-95.5 L 0.5,-95.5 L 0.5,-91.5
 L 3,-87.5 L 4,-87.5 z
M 33.5,-69.2375 L 32,-69.2375 L 32,-67.9875 L 32.0217,-67.9856 L 32.0427,-67.98 L 32.0625,-67.9708
 L 32.0803,-67.9583 L 32.0957,-67.9429 L 32.1082,-67.925 L 32.1175,-67.9053 L 32.1231,-67.8842 L 32.125,-67.8625
 L 32.1231,-67.8408 L 32.1175,-67.8197 L 32.1082,-67.8 L 32.0957,-67.7822 L 32.0803,-67.7668 L 32.0625,-67.7543
 L 32.0427,-67.745 L 32.0217,-67.7394 L 32,-67.7375 L 31.1875,-67.7375 L 31.1658,-67.7394 L 31.1447,-67.745
 L 31.125,-67.7543 L 31.1071,-67.7668 L 31.0917,-67.7822 L 31.0792,-67.8 L 31.07,-67.8197 L 31.0644,-67.8408
 L 31.0625,-67.8625 L 31.0644,-67.8842 L 31.07,-67.9053 L 31.0792,-67.925 L 31.0917,-67.9429 L 31.1071,-67.9583
 L 31.125,-67.9708 L 31.1447,-67.98 L 31.1658,-67.9856 L 31.1875,-67.9875 L 31.1875,-82.5625 L 31.1894,-82.5842
 L 31.195,-82.6053 L 31.2042,-82.625 L 31.2167,-82.6429 L 31.2321,-82.6583 L 31.25,-82.6708 L 31.2697,-82.68
 L 31.2908,-82.6856 L 31.3125,-82.6875 L 31.3342,-82.6856 L 31.3552,-82.68 L 31.375,-82.6708 L 31.3928,-82.6583
 L 31.4082,-82.6429 L 31.4207,-82.625 L 31.43,-82.6053 L 31.4356,-82.5842 L 31.4375,-82.5625 L 33.5,-82.5625
 L 33.5,-86.5 L 32,-86.5 L 32,-85.25 L 32.0217,-85.2481 L 32.0427,-85.2425 L 32.0625,-85.2333
 L 32.0803,-85.2208 L 32.0957,-85.2054 L 32.1082,-85.1875 L 32.1175,-85.1678 L 32.1231,-85.1467 L 32.125,-85.125
 L 32.1231,-85.1033 L 32.1175,-85.0823 L 32.1082,-85.0625 L 32.0957,-85.0447 L 32.0803,-85.0293 L 32.0625,-85.0168
 L 32.0427,-85.0076 L 32.0217,-85.0019 L 32,-85 L 31.1875,-85 L 31.1658,-85.0019 L 31.1447,-85.0076
 L 31.125,-85.0168 L 31.1071,-85.0293 L 31.0917,-85.0447 L 31.0792,-85.0625 L 31.07,-85.0823 L 31.0644,-85.1033
 L 31.0625,-85.125 L 31.0644,-85.1467 L 31.07,-85.1678 L 31.0792,-85.1875 L 31.0917,-85.2054 L 31.1071,-85.2208
 L 31.125,-85.2333 L 31.1447,-85.2425 L 31.1658,-85.2481 L 31.1875,-85.25 L 31.1875,-86.5 L 16.8125,-86.5
 L 16.8125,-85.25 L 16.8342,-85.2481 L 16.8552,-85.2425 L 16.875,-85.2333 L 16.8928,-85.2208 L 16.9082,-85.2054
 L 16.9207,-85.1875 L 16.9299,-85.1678 L 16.9356,-85.1467 L 16.9375,-85.125 L 16.9356,-85.1033 L 16.9299,-85.0823
 L 16.9207,-85.0625 L 16.9082,-85.0447 L 16.8928,-85.0293 L 16.875,-85.0168 L 16.8552,-85.0076 L 16.8342,-85.0019
 L 16.8125,-85 L 16,-85 L 15.9783,-85.0019 L 15.9572,-85.0076 L 15.9375,-85.0168 L 15.9196,-85.0293
 L 15.9042,-85.0447 L 15.8917,-85.0625 L 15.8825,-85.0823 L 15.8769,-85.1033 L 15.875,-85.125 L 15.8769,-85.1467
 L 15.8825,-85.1678 L 15.8917,-85.1875 L 15.9042,-85.2054 L 15.9196,-85.2208 L 15.9375,-85.2333 L 15.9572,-85.2425
 L 15.9783,-85.2481 L 16,-85.25 L 16,-86.5 L 14.5,-86.5 L 14.5,-82.5625 L 16.5625,-82.5625
 L 16.5644,-82.5842 L 16.57,-82.6053 L 16.5792,-82.625 L 16.5917,-82.6429 L 16.6071,-82.6583 L 16.625,-82.6708
 L 16.6447,-82.68 L 16.6658,-82.6856 L 16.6875,-82.6875 L 16.7092,-82.6856 L 16.7302,-82.68 L 16.75,-82.6708
 L 16.7678,-82.6583 L 16.7832,-82.6429 L 16.7957,-82.625 L 16.8049,-82.6053 L 16.8106,-82.5842 L 16.8125,-82.5625
 L 16.8125,-67.9875 L 16.8342,-67.9856 L 16.8552,-67.98 L 16.875,-67.9708 L 16.8928,-67.9583 L 16.9082,-67.9429
 L 16.9207,-67.925 L 16.9299,-67.9053 L 16.9356,-67.8842 L 16.9375,-67.8625 L 16.9356,-67.8408 L 16.9299,-67.8197
 L 16.9207,-67.8 L 16.9082,-67.7822 L 16.8928,-67.7668 L 16.875,-67.7543 L 16.8552,-67.745 L 16.8342,-67.7394
 L 16.8125,-67.7375 L 16,-67.7375 L 15.9783,-67.7394 L 15.9572,-67.745 L 15.9375,-67.7543 L 15.9196,-67.7668
 L 15.9042,-67.7822 L 15.8917,-67.8 L 15.8825,-67.8197 L 15.8769,-67.8408 L 15.875,-67.8625 L 15.8769,-67.8842
 L 15.8825,-67.9053 L 15.8917,-67.925 L 15.9042,-67.9429 L 15.9196,-67.9583 L 15.9375,-67.9708 L 15.9572,-67.98
 L 15.9783,-67.9856 L 16,-67.9875 L 16,-69.2375 L 14.5,-69.2375 L 14.5,-65.3 L 33.5,-65.3
 z
M 28.75,-2.25 L 28.7283,-2.25189 L 28.7072,-2.25754 L 28.6875,-2.26674 L 28.6696,-2.27924 L 28.6542,-2.29465
 L 28.6417,-2.3125 L 28.6325,-2.33224 L 28.6269,-2.35329 L 28.625,-2.375 L 28.6269,-2.3967 L 28.6325,-2.41774
 L 28.6417,-2.4375 L 28.6542,-2.45534 L 28.6696,-2.47075 L 28.6875,-2.48325 L 28.7072,-2.49245 L 28.7283,-2.49809
 L 28.75,-2.5 L 29.5625,-2.5 L 29.5842,-2.49809 L 29.6052,-2.49245 L 29.625,-2.48325 L 29.6428,-2.47075
 L 29.6582,-2.45534 L 29.6707,-2.4375 L 29.6799,-2.41774 L 29.6856,-2.3967 L 29.6875,-2.375 L 29.6856,-2.35329
 L 29.6799,-2.33224 L 29.6707,-2.3125 L 29.6582,-2.29465 L 29.6428,-2.27924 L 29.625,-2.26674 L 29.6052,-2.25754
 L 29.5842,-2.25189 L 29.5625,-2.25 L 29.5625,-0.5 L 39.5,-0.5 L 39.5,-4.25 L 39.4783,-4.25189
 L 39.4572,-4.25754 L 39.4375,-4.26674 L 39.4196,-4.27924 L 39.4042,-4.29465 L 39.3917,-4.3125 L 39.3825,-4.33224
 L 39.3769,-4.35329 L 39.375,-4.375 L 39.3769,-4.3967 L 39.3825,-4.41774 L 39.3917,-4.4375 L 39.4042,-4.45534
 L 39.4196,-4.47075 L 39.4375,-4.48325 L 39.4572,-4.49245 L 39.4783,-4.49809 L 39.5,-4.5 L 40.3125,-4.5
 L 40.3342,-4.49809 L 40.3552,-4.49245 L 40.375,-4.48325 L 40.3928,-4.47075 L 40.4082,-4.45534 L 40.4207,-4.4375
 L 40.4299,-4.41774 L 40.4356,-4.3967 L 40.4375,-4.375 L 40.4356,-4.35329 L 40.4299,-4.33224 L 40.4207,-4.3125
 L 40.4082,-4.29465 L 40.3928,-4.27924 L 40.375,-4.26674 L 40.3552,-4.25754 L 40.3342,-4.25189 L 40.3125,-4.25
 L 40.3125,-0.5 L 47.5,-0.5 L 47.5,-72.8316 L 46.3595,-73.0123 L 45.9684,-70.5431 L 45.9262,-70.3739
 L 45.8553,-70.2147 L 45.7578,-70.0702 L 45.6367,-69.9448 L 45.4957,-69.8423 L 45.3391,-69.7659 L 45.1715,-69.7179
 L 44.9981,-69.6996 L 44.8242,-69.7118 L 36.1203,-71.0904 L 36.0876,-71.0927 L 36.0551,-71.0892 L 36.0237,-71.0802
 L 35.9944,-71.0659 L 35.9679,-71.0467 L 35.9452,-71.0232 L 35.9269,-70.9961 L 35.9136,-70.9662 L 35.9057,-70.9345
 L 35.8568,-70.6259 L 35.8789,-70.5341 L 35.9722,-70.4318 L 36.1361,-70.3196 L 36.3692,-70.1984 L 36.6698,-70.0692
 L 37.0357,-69.9329 L 37.464,-69.7906 L 37.9515,-69.6433 L 38.4944,-69.4922 L 39.0887,-69.3384 L 39.7298,-69.1831
 L 40.4129,-69.0274 L 41.1327,-68.8727 L 41.8837,-68.7199 L 42.6603,-68.5703 L 43.4565,-68.4251 L 44.2663,-68.2853
 L 45.0835,-68.1521 L 45.168,-68.131 L 45.2476,-68.0955 L 45.3199,-68.0468 L 45.3826,-67.9862 L 45.4338,-67.9157
 L 45.472,-67.8374 L 45.496,-67.7536 L 45.5052,-67.6669 L 45.4991,-67.58 L 45.108,-65.1108 L 45.0658,-64.9416
 L 44.9949,-64.7824 L 44.8974,-64.6379 L 44.7764,-64.5125 L 44.6353,-64.41 L 44.4787,-64.3336 L 44.3111,-64.2856
 L 44.1378,-64.2673 L 43.9639,-64.2795 L 35.2599,-65.6581 L 35.2272,-65.6604 L 35.1947,-65.657 L 35.1633,-65.6479
 L 35.134,-65.6336 L 35.1075,-65.6144 L 35.0848,-65.5909 L 35.0665,-65.5638 L 35.0532,-65.534 L 35.0453,-65.5022
 L 34.9964,-65.1936 L 35.0185,-65.1018 L 35.1118,-64.9995 L 35.2757,-64.8873 L 35.5088,-64.7661 L 35.8094,-64.6369
 L 36.1753,-64.5006 L 36.6036,-64.3583 L 37.0911,-64.211 L 37.6341,-64.0599 L 38.2283,-63.9061 L 38.8695,-63.7508
 L 39.5525,-63.5952 L 40.2723,-63.4404 L 41.0233,-63.2876 L 41.7999,-63.1381 L 42.5961,-62.9928 L 43.4059,-62.853
 L 44.2231,-62.7198 L 44.3076,-62.6987 L 44.3872,-62.6632 L 44.4595,-62.6145 L 44.5222,-62.554 L 44.5734,-62.4834
 L 44.6116,-62.4051 L 44.6357,-62.3213 L 44.6448,-62.2346 L 44.6387,-62.1477 L 44.2476,-59.6785 L 44.2054,-59.5094
 L 44.1345,-59.3501 L 44.037,-59.2056 L 43.916,-59.0802 L 43.7749,-58.9778 L 43.6183,-58.9013 L 43.4507,-58.8533
 L 43.2774,-58.8351 L 43.1035,-58.8472 L 34.3995,-60.2258 L 34.3669,-60.2281 L 34.3344,-60.2247 L 34.3029,-60.2157
 L 34.2736,-60.2013 L 34.2471,-60.1821 L 34.2244,-60.1586 L 34.2061,-60.1315 L 34.1929,-60.1017 L 34.185,-60.0699
 L 34.1361,-59.7613 L 34.1581,-59.6696 L 34.2514,-59.5672 L 34.4153,-59.455 L 34.6484,-59.3339 L 34.9491,-59.2046
 L 35.3149,-59.0683 L 35.7432,-58.926 L 36.2307,-58.7787 L 36.7737,-58.6276 L 37.368,-58.4738 L 38.0091,-58.3185
 L 38.6921,-58.1629 L 39.4119,-58.0081 L 40.1629,-57.8553 L 40.9395,-57.7058 L 41.7357,-57.5605 L 42.5455,-57.4208
 L 43.3627,-57.2875 L 43.4472,-57.2664 L 43.5269,-57.2309 L 43.5991,-57.1822 L 43.6618,-57.1217 L 43.713,-57.0511
 L 43.7512,-56.9728 L 43.7753,-56.889 L 43.7844,-56.8024 L 43.7783,-56.7154 L 43.3872,-54.2462 L 43.345,-54.0771
 L 43.2741,-53.9178 L 43.1767,-53.7733 L 43.0556,-53.6479 L 42.9146,-53.5455 L 42.7579,-53.4691 L 42.5903,-53.421
 L 42.417,-53.4028 L 42.2431,-53.4149 L 33.5391,-54.7935 L 33.5065,-54.7958 L 33.474,-54.7924 L 33.4426,-54.7834
 L 33.4132,-54.769 L 33.3867,-54.7498 L 33.364,-54.7263 L 33.3457,-54.6992 L 33.3325,-54.6694 L 33.3246,-54.6377
 L 33.2757,-54.329 L 33.2977,-54.2373 L 33.3911,-54.1349 L 33.5549,-54.0227 L 33.788,-53.9016 L 34.0887,-53.7724
 L 34.4545,-53.6361 L 34.8828,-53.4937 L 35.3703,-53.3465 L 35.9133,-53.1953 L 36.5076,-53.0415 L 37.1487,-52.8862
 L 37.8317,-52.7306 L 38.5515,-52.5758 L 39.3025,-52.423 L 40.0791,-52.2735 L 40.8753,-52.1283 L 41.6851,-51.9885
 L 42.5023,-51.8552 L 42.5868,-51.8341 L 42.6665,-51.7987 L 42.7387,-51.7499 L 42.8014,-51.6894 L 42.8526,-51.6189
 L 42.8909,-51.5405 L 42.9149,-51.4568 L 42.924,-51.3701 L 42.9179,-51.2831 L 42.5268,-48.8139 L 42.4846,-48.6448
 L 42.4137,-48.4855 L 42.3163,-48.341 L 42.1952,-48.2156 L 42.0542,-48.1132 L 41.8975,-48.0368 L 41.7299,-47.9887
 L 41.5566,-47.9705 L 41.3827,-47.9827 L 32.6787,-49.3612 L 32.6461,-49.3635 L 32.6136,-49.3601 L 32.5822,-49.3511
 L 32.5528,-49.3368 L 32.5264,-49.3176 L 32.5036,-49.294 L 32.4854,-49.267 L 32.4721,-49.2371 L 32.4642,-49.2054
 L 32.4153,-48.8967 L 32.4373,-48.805 L 32.5307,-48.7026 L 32.6945,-48.5905 L 32.9276,-48.4693 L 33.2283,-48.3401
 L 33.5941,-48.2038 L 34.0225,-48.0614 L 34.5099,-47.9142 L 35.0529,-47.763 L 35.6472,-47.6093 L 36.2883,-47.4539
 L 36.9713,-47.2983 L 37.6911,-47.1435 L 38.4421,-46.9908 L 39.2187,-46.8412 L 40.0149,-46.696 L 40.8247,-46.5562
 L 41.6419,-46.4229 L 41.7265,-46.4018 L 41.8061,-46.3664 L 41.8783,-46.3176 L 41.941,-46.2571 L 41.9922,-46.1866
 L 42.0305,-46.1082 L 42.0545,-46.0245 L 42.0636,-45.9378 L 42.0575,-45.8508 L 41.6664,-43.3816 L 41.6243,-43.2125
 L 41.5534,-43.0533 L 41.4559,-42.9087 L 41.3348,-42.7834 L 41.1938,-42.6809 L 41.0371,-42.6045 L 40.8696,-42.5564
 L 40.6962,-42.5382 L 40.5223,-42.5504 L 31.8183,-43.929 L 31.7857,-43.9312 L 31.7532,-43.9278 L 31.7218,-43.9188
 L 31.6924,-43.9045 L 31.666,-43.8853 L 31.6432,-43.8618 L 31.625,-43.8347 L 31.6117,-43.8048 L 31.6038,-43.7731
 L 31.5549,-43.4644 L 31.577,-43.3727 L 31.6703,-43.2704 L 31.8341,-43.1582 L 32.0673,-43.037 L 32.3679,-42.9078
 L 32.7338,-42.7715 L 33.1621,-42.6292 L 33.6496,-42.4819 L 34.1925,-42.3308 L 34.7868,-42.177 L 35.4279,-42.0217
 L 36.1109,-41.866 L 36.8307,-41.7112 L 37.5817,-41.5585 L 38.3583,-41.4089 L 39.1545,-41.2637 L 39.9643,-41.1239
 L 40.7815,-40.9906 L 40.8661,-40.9695 L 40.9457,-40.9341 L 41.0179,-40.8853 L 41.0806,-40.8248 L 41.1319,-40.7543
 L 41.1701,-40.676 L 41.1941,-40.5922 L 41.2032,-40.5055 L 41.1971,-40.4186 L 40.806,-37.9493 L 40.7639,-37.7802
 L 40.693,-37.621 L 40.5955,-37.4765 L 40.4744,-37.3511 L 40.3334,-37.2486 L 40.1767,-37.1722 L 40.0092,-37.1241
 L 39.8358,-37.1059 L 39.6619,-37.1181 L 30.9579,-38.4967 L 30.9253,-38.4989 L 30.8928,-38.4955 L 30.8614,-38.4865
 L 30.832,-38.4722 L 30.8056,-38.453 L 30.7829,-38.4295 L 30.7646,-38.4024 L 30.7513,-38.3725 L 30.7434,-38.3408
 L 30.6945,-38.0322 L 30.7166,-37.9404 L 30.8099,-37.8381 L 30.9737,-37.7259 L 31.2069,-37.6047 L 31.5075,-37.4755
 L 31.8734,-37.3392 L 32.3017,-37.1969 L 32.7892,-37.0496 L 33.3321,-36.8985 L 33.9264,-36.7447 L 34.5675,-36.5894
 L 35.2505,-36.4337 L 35.9703,-36.2789 L 36.7214,-36.1262 L 37.4979,-35.9766 L 38.2941,-35.8314 L 39.1039,-35.6916
 L 39.9211,-35.5583 L 40.0057,-35.5372 L 40.0853,-35.5018 L 40.1575,-35.4531 L 40.2202,-35.3925 L 40.2715,-35.322
 L 40.3097,-35.2437 L 40.3337,-35.1599 L 40.3428,-35.0732 L 40.3367,-34.9863 L 39.9456,-32.5171 L 39.9035,-32.3479
 L 39.8326,-32.1887 L 39.7351,-32.0442 L 39.614,-31.9188 L 39.473,-31.8163 L 39.3163,-31.7399 L 39.1488,-31.6919
 L 38.9754,-31.6736 L 38.8015,-31.6858 L 30.0975,-33.0644 L 30.0649,-33.0667 L 30.0324,-33.0632 L 30.001,-33.0542
 L 29.9716,-33.0399 L 29.9452,-33.0207 L 29.9225,-32.9972 L 29.9042,-32.9701 L 29.8909,-32.9402 L 29.883,-32.9085
 L 29.8341,-32.5999 L 29.8562,-32.5081 L 29.9495,-32.4058 L 30.1133,-32.2936 L 30.3465,-32.1724 L 30.6471,-32.0432
 L 31.013,-31.9069 L 31.4413,-31.7646 L 31.9288,-31.6173 L 32.4717,-31.4662 L 33.066,-31.3124 L 33.7071,-31.1571
 L 34.3902,-31.0014 L 35.1099,-30.8466 L 35.861,-30.6939 L 36.6375,-30.5443 L 37.4337,-30.3991 L 38.2435,-30.2593
 L 39.0607,-30.1261 L 39.1453,-30.105 L 39.2249,-30.0695 L 39.2972,-30.0208 L 39.3598,-29.9602 L 39.4111,-29.8897
 L 39.4493,-29.8114 L 39.4733,-29.7276 L 39.4824,-29.6409 L 39.4763,-29.554 L 39.0853,-27.0848 L 39.0431,-26.9156
 L 38.9722,-26.7564 L 38.8747,-26.6119 L 38.7536,-26.4865 L 38.6126,-26.384 L 38.4559,-26.3076 L 38.2884,-26.2596
 L 38.115,-26.2413 L 37.9411,-26.2535 L 29.2371,-27.6321 L 29.2045,-27.6344 L 29.172,-27.631 L 29.1406,-27.6219
 L 29.1112,-27.6076 L 29.0848,-27.5884 L 29.0621,-27.5649 L 29.0438,-27.5378 L 29.0305,-27.5079 L 29.0226,-27.4762
 L 28.9737,-27.1676 L 28.9958,-27.0758 L 29.0891,-26.9735 L 29.253,-26.8613 L 29.4861,-26.7401 L 29.7867,-26.6109
 L 30.1526,-26.4746 L 30.5809,-26.3323 L 31.0684,-26.185 L 31.6113,-26.0339 L 32.2056,-25.8801 L 32.8467,-25.7248
 L 33.5298,-25.5692 L 34.2495,-25.4144 L 35.0006,-25.2616 L 35.7771,-25.1121 L 36.5733,-24.9668 L 37.3831,-24.827
 L 38.2003,-24.6938 L 38.2849,-24.6727 L 38.3645,-24.6372 L 38.4368,-24.5885 L 38.4995,-24.528 L 38.5507,-24.4574
 L 38.5889,-24.3791 L 38.6129,-24.2953 L 38.622,-24.2086 L 38.616,-24.1217 L 38.2249,-21.6525 L 38.1827,-21.4834
 L 38.1118,-21.3241 L 38.0143,-21.1796 L 37.8932,-21.0542 L 37.7522,-20.9518 L 37.5956,-20.8753 L 37.428,-20.8273
 L 37.2546,-20.8091 L 37.0807,-20.8212 L 28.3767,-22.1998 L 28.3441,-22.2021 L 28.3116,-22.1987 L 28.2802,-22.1897
 L 28.2508,-22.1753 L 28.2244,-22.1561 L 28.2017,-22.1326 L 28.1834,-22.1055 L 28.1701,-22.0757 L 28.1622,-22.0439
 L 28.1133,-21.7353 L 28.1354,-21.6436 L 28.2287,-21.5412 L 28.3926,-21.429 L 28.6257,-21.3079 L 28.9263,-21.1786
 L 29.2922,-21.0423 L 29.7205,-20.9 L 30.208,-20.7527 L 30.7509,-20.6016 L 31.3452,-20.4478 L 31.9863,-20.2925
 L 32.6694,-20.1369 L 33.3891,-19.9821 L 34.1402,-19.8293 L 34.9168,-19.6798 L 35.713,-19.5345 L 36.5228,-19.3948
 L 37.3399,-19.2615 L 37.4245,-19.2404 L 37.5041,-19.2049 L 37.5764,-19.1562 L 37.6391,-19.0957 L 37.6903,-19.0251
 L 37.7285,-18.9468 L 37.7525,-18.863 L 37.7616,-18.7764 L 37.7556,-18.6894 L 37.3645,-16.2202 L 37.3223,-16.0511
 L 37.2514,-15.8918 L 37.1539,-15.7473 L 37.0329,-15.6219 L 36.8918,-15.5195 L 36.7352,-15.4431 L 36.5676,-15.395
 L 36.3942,-15.3768 L 36.2204,-15.3889 L 27.5164,-16.7675 L 27.4837,-16.7698 L 27.4512,-16.7664 L 27.4198,-16.7574
 L 27.3905,-16.743 L 27.364,-16.7238 L 27.3413,-16.7003 L 27.323,-16.6732 L 27.3097,-16.6434 L 27.3018,-16.6117
 L 27.2529,-16.303 L 27.275,-16.2113 L 27.3683,-16.1089 L 27.5322,-15.9967 L 27.7653,-15.8756 L 28.0659,-15.7464
 L 28.4318,-15.6101 L 28.8601,-15.4677 L 29.3476,-15.3204 L 29.8905,-15.1693 L 30.4848,-15.0155 L 31.1259,-14.8602
 L 31.809,-14.7046 L 32.5288,-14.5498 L 33.2798,-14.397 L 34.0564,-14.2475 L 34.8526,-14.1023 L 35.6624,-13.9625
 L 36.4796,-13.8292 L 36.5641,-13.8081 L 36.6437,-13.7727 L 36.716,-13.7239 L 36.7787,-13.6634 L 36.8299,-13.5929
 L 36.8681,-13.5145 L 36.8922,-13.4308 L 36.9013,-13.3441 L 36.8952,-13.2571 L 36.5041,-10.7879 L 36.4619,-10.6188
 L 36.391,-10.4595 L 36.2935,-10.315 L 36.1725,-10.1896 L 36.0314,-10.0872 L 35.8748,-10.0108 L 35.7072,-9.96271
 L 35.5339,-9.94449 L 35.36,-9.95665 L 26.656,-11.3352 L 26.6234,-11.3375 L 26.5909,-11.3341 L 26.5594,-11.3251
 L 26.5301,-11.3108 L 26.5036,-11.2915 L 26.4809,-11.268 L 26.4626,-11.2409 L 26.4493,-11.2111 L 26.4414,-11.1794
 L 26.3925,-10.8707 L 26.4146,-10.779 L 26.5079,-10.6766 L 26.6718,-10.5645 L 26.9049,-10.4433 L 27.2056,-10.3141
 L 27.5714,-10.1778 L 27.9997,-10.0354 L 28.4872,-9.88815 L 29.0302,-9.73705 L 29.6245,-9.58324 L 30.2656,-9.42793
 L 30.9486,-9.27229 L 31.6684,-9.11751 L 32.4194,-8.96475 L 33.196,-8.8152 L 33.9922,-8.66997 L 34.802,-8.53018
 L 35.6192,-8.39691 L 35.7037,-8.37582 L 35.7833,-8.34036 L 35.8556,-8.29163 L 35.9183,-8.23109 L 35.9695,-8.16058
 L 36.0077,-8.08224 L 36.0318,-7.99846 L 36.0409,-7.91179 L 36.0348,-7.82484 L 35.6437,-5.35562 L 35.6015,-5.18649
 L 35.5306,-5.02725 L 35.4332,-4.88274 L 35.3121,-4.75734 L 35.1711,-4.65489 L 35.0144,-4.57848 L 34.8468,-4.53043
 L 34.6735,-4.51221 L 34.4996,-4.52437 L 25.7956,-5.90295 L 25.763,-5.90523 L 25.7305,-5.90181 L 25.6991,-5.89281
 L 25.6697,-5.87848 L 25.6432,-5.85927 L 25.6205,-5.83575 L 25.6022,-5.80865 L 25.589,-5.77879 L 25.5811,-5.74709
 L 24.75,-0.5 L 28.75,-0.5 z
M 45.25,-48.1625 L 45.2283,-48.1644 L 45.2072,-48.17 L 45.1875,-48.1792 L 45.1696,-48.1917 L 45.1542,-48.2072
 L 45.1417,-48.225 L 45.1325,-48.2447 L 45.1269,-48.2658 L 45.125,-48.2875 L 45.1269,-48.3092 L 45.1325,-48.3302
 L 45.1417,-48.35 L 45.1542,-48.3678 L 45.1696,-48.3833 L 45.1875,-48.3958 L 45.2072,-48.405 L 45.2283,-48.4106
 L 45.25,-48.4125 L 45.25,-52.4125 L 45.2283,-52.4144 L 45.2072,-52.42 L 45.1875,-52.4292 L 45.1696,-52.4417
 L 45.1542,-52.4572 L 45.1417,-52.475 L 45.1325,-52.4947 L 45.1269,-52.5158 L 45.125,-52.5375 L 45.1269,-52.5592
 L 45.1325,-52.5802 L 45.1417,-52.6 L 45.1542,-52.6178 L 45.1696,-52.6333 L 45.1875,-52.6458 L 45.2072,-52.655
 L 45.2283,-52.6606 L 45.25,-52.6625 L 46.0625,-52.6625 L 46.0842,-52.6606 L 46.1052,-52.655 L 46.125,-52.6458
 L 46.1428,-52.6333 L 46.1582,-52.6178 L 46.1707,-52.6 L 46.18,-52.5802 L 46.1856,-52.5592 L 46.1875,-52.5375
 L 46.1856,-52.5158 L 46.18,-52.4947 L 46.1707,-52.475 L 46.1582,-52.4572 L 46.1428,-52.4417 L 46.125,-52.4292
 L 46.1052,-52.42 L 46.0842,-52.4144 L 46.0625,-52.4125 L 46.0625,-48.4125 L 46.0842,-48.4106 L 46.1052,-48.405
 L 46.125,-48.3958 L 46.1428,-48.3833 L 46.1582,-48.3678 L 46.1707,-48.35 L 46.18,-48.3302 L 46.1856,-48.3092
 L 46.1875,-48.2875 L 46.1856,-48.2658 L 46.18,-48.2447 L 46.1707,-48.225 L 46.1582,-48.2072 L 46.1428,-48.1917
 L 46.125,-48.1792 L 46.1052,-48.17 L 46.0842,-48.1644 L 46.0625,-48.1625 z
M 45.25,-30.9 L 45.2283,-30.9019 L 45.2072,-30.9075 L 45.1875,-30.9167 L 45.1696,-30.9292 L 45.1542,-30.9446
 L 45.1417,-30.9625 L 45.1325,-30.9822 L 45.1269,-31.0033 L 45.125,-31.025 L 45.1269,-31.0467 L 45.1325,-31.0677
 L 45.1417,-31.0875 L 45.1542,-31.1053 L 45.1696,-31.1207 L 45.1875,-31.1332 L 45.2072,-31.1425 L 45.2283,-31.1481
 L 45.25,-31.15 L 45.25,-35.15 L 45.2283,-35.1519 L 45.2072,-35.1575 L 45.1875,-35.1667 L 45.1696,-35.1792
 L 45.1542,-35.1946 L 45.1417,-35.2125 L 45.1325,-35.2322 L 45.1269,-35.2533 L 45.125,-35.275 L 45.1269,-35.2967
 L 45.1325,-35.3177 L 45.1417,-35.3375 L 45.1542,-35.3553 L 45.1696,-35.3707 L 45.1875,-35.3833 L 45.2072,-35.3925
 L 45.2283,-35.3981 L 45.25,-35.4 L 46.0625,-35.4 L 46.0842,-35.3981 L 46.1052,-35.3925 L 46.125,-35.3833
 L 46.1428,-35.3707 L 46.1582,-35.3553 L 46.1707,-35.3375 L 46.18,-35.3177 L 46.1856,-35.2967 L 46.1875,-35.275
 L 46.1856,-35.2533 L 46.18,-35.2322 L 46.1707,-35.2125 L 46.1582,-35.1946 L 46.1428,-35.1792 L 46.125,-35.1667
 L 46.1052,-35.1575 L 46.0842,-35.1519 L 46.0625,-35.15 L 46.0625,-31.15 L 46.0842,-31.1481 L 46.1052,-31.1425
 L 46.125,-31.1332 L 46.1428,-31.1207 L 46.1582,-31.1053 L 46.1707,-31.0875 L 46.18,-31.0677 L 46.1856,-31.0467
 L 46.1875,-31.025 L 46.1856,-31.0033 L 46.18,-30.9822 L 46.1707,-30.9625 L 46.1582,-30.9446 L 46.1428,-30.9292
 L 46.125,-30.9167 L 46.1052,-30.9075 L 46.0842,-30.9019 L 46.0625,-30.9 z
M 7.6875,-4.25 L 7.6658,-4.25189 L 7.64476,-4.25754 L 7.625,-4.26674 L 7.60716,-4.27924 L 7.59175,-4.29465
 L 7.57925,-4.3125 L 7.57005,-4.33224 L 7.56441,-4.35329 L 7.5625,-4.375 L 7.56441,-4.3967 L 7.57005,-4.41774
 L 7.57925,-4.4375 L 7.59175,-4.45534 L 7.60716,-4.47075 L 7.625,-4.48325 L 7.64476,-4.49245 L 7.6658,-4.49809
 L 7.6875,-4.5 L 8.5,-4.5 L 8.52171,-4.49809 L 8.54276,-4.49245 L 8.5625,-4.48325 L 8.58035,-4.47075
 L 8.59576,-4.45534 L 8.60826,-4.4375 L 8.61746,-4.41774 L 8.62311,-4.3967 L 8.625,-4.375 L 8.62311,-4.35329
 L 8.61746,-4.33224 L 8.60826,-4.3125 L 8.59576,-4.29465 L 8.58035,-4.27924 L 8.5625,-4.26674 L 8.54276,-4.25754
 L 8.52171,-4.25189 L 8.5,-4.25 L 8.5,-0.5 L 18.4375,-0.5 L 18.4375,-2.25 L 18.4158,-2.25189
 L 18.3948,-2.25754 L 18.375,-2.26674 L 18.3572,-2.27924 L 18.3418,-2.29465 L 18.3293,-2.3125 L 18.3201,-2.33224
 L 18.3144,-2.35329 L 18.3125,-2.375 L 18.3144,-2.3967 L 18.3201,-2.41774 L 18.3293,-2.4375 L 18.3418,-2.45534
 L 18.3572,-2.47075 L 18.375,-2.48325 L 18.3948,-2.49245 L 18.4158,-2.49809 L 18.4375,-2.5 L 19.25,-2.5
 L 19.2717,-2.49809 L 19.2928,-2.49245 L 19.3125,-2.48325 L 19.3304,-2.47075 L 19.3458,-2.45534 L 19.3583,-2.4375
 L 19.3675,-2.41774 L 19.3731,-2.3967 L 19.375,-2.375 L 19.3731,-2.35329 L 19.3675,-2.33224 L 19.3583,-2.3125
 L 19.3458,-2.29465 L 19.3304,-2.27924 L 19.3125,-2.26674 L 19.2928,-2.25754 L 19.2717,-2.25189 L 19.25,-2.25
 L 19.25,-0.5 L 23.25,-0.5 L 22.4189,-5.74709 L 22.411,-5.77879 L 22.3978,-5.80865 L 22.3795,-5.83575
 L 22.3568,-5.85927 L 22.3303,-5.87848 L 22.3009,-5.89281 L 22.2695,-5.90181 L 22.237,-5.90523 L 22.2044,-5.90295
 L 13.5004,-4.52437 L 13.3265,-4.51221 L 13.1532,-4.53043 L 12.9856,-4.57848 L 12.8289,-4.65489 L 12.6879,-4.75734
 L 12.5668,-4.88274 L 12.4694,-5.02725 L 12.3985,-5.18649 L 12.3563,-5.35562 L 11.9652,-7.82484 L 11.9591,-7.91179
 L 11.9682,-7.99846 L 11.9923,-8.08224 L 12.0305,-8.16058 L 12.0817,-8.23109 L 12.1444,-8.29163 L 12.2167,-8.34036
 L 12.2963,-8.37582 L 12.3808,-8.39691 L 13.198,-8.53018 L 14.0078,-8.66997 L 14.804,-8.8152 L 15.5806,-8.96475
 L 16.3316,-9.11751 L 17.0514,-9.27229 L 17.7344,-9.42793 L 18.3755,-9.58324 L 18.9698,-9.73705 L 19.5128,-9.88815
 L 20.0003,-10.0354 L 20.4286,-10.1778 L 20.7944,-10.3141 L 21.0951,-10.4433 L 21.3282,-10.5645 L 21.4921,-10.6766
 L 21.5854,-10.779 L 21.6075,-10.8707 L 21.5586,-11.1794 L 21.5507,-11.2111 L 21.5374,-11.2409 L 21.5191,-11.268
 L 21.4964,-11.2915 L 21.4699,-11.3108 L 21.4406,-11.3251 L 21.4091,-11.3341 L 21.3766,-11.3375 L 21.344,-11.3352
 L 12.64,-9.95665 L 12.4661,-9.94449 L 12.2928,-9.96271 L 12.1252,-10.0108 L 11.9686,-10.0872 L 11.8275,-10.1896
 L 11.7065,-10.315 L 11.609,-10.4595 L 11.5381,-10.6188 L 11.4959,-10.7879 L 11.1048,-13.2571 L 11.0987,-13.3441
 L 11.1078,-13.4308 L 11.1319,-13.5145 L 11.1701,-13.5929 L 11.2213,-13.6634 L 11.284,-13.7239 L 11.3563,-13.7727
 L 11.4359,-13.8081 L 11.5204,-13.8292 L 12.3376,-13.9625 L 13.1474,-14.1023 L 13.9436,-14.2475 L 14.7202,-14.397
 L 15.4712,-14.5498 L 16.191,-14.7046 L 16.8741,-14.8602 L 17.5152,-15.0155 L 18.1095,-15.1693 L 18.6524,-15.3204
 L 19.1399,-15.4677 L 19.5682,-15.6101 L 19.9341,-15.7464 L 20.2347,-15.8756 L 20.4678,-15.9967 L 20.6317,-16.1089
 L 20.725,-16.2113 L 20.7471,-16.303 L 20.6982,-16.6117 L 20.6903,-16.6434 L 20.677,-16.6732 L 20.6587,-16.7003
 L 20.636,-16.7238 L 20.6095,-16.743 L 20.5802,-16.7574 L 20.5488,-16.7664 L 20.5163,-16.7698 L 20.4836,-16.7675
 L 11.7796,-15.3889 L 11.6058,-15.3768 L 11.4324,-15.395 L 11.2648,-15.4431 L 11.1082,-15.5195 L 10.9671,-15.6219
 L 10.8461,-15.7473 L 10.7486,-15.8918 L 10.6777,-16.0511 L 10.6355,-16.2202 L 10.2444,-18.6894 L 10.2384,-18.7764
 L 10.2475,-18.863 L 10.2715,-18.9468 L 10.3097,-19.0251 L 10.3609,-19.0957 L 10.4236,-19.1562 L 10.4959,-19.2049
 L 10.5755,-19.2404 L 10.6601,-19.2615 L 11.4772,-19.3948 L 12.287,-19.5345 L 13.0832,-19.6798 L 13.8598,-19.8293
 L 14.6109,-19.9821 L 15.3306,-20.1369 L 16.0137,-20.2925 L 16.6548,-20.4478 L 17.2491,-20.6016 L 17.792,-20.7527
 L 18.2795,-20.9 L 18.7078,-21.0423 L 19.0737,-21.1786 L 19.3743,-21.3079 L 19.6074,-21.429 L 19.7713,-21.5412
 L 19.8646,-21.6436 L 19.8867,-21.7353 L 19.8378,-22.0439 L 19.8299,-22.0757 L 19.8166,-22.1055 L 19.7983,-22.1326
 L 19.7756,-22.1561 L 19.7492,-22.1753 L 19.7198,-22.1897 L 19.6884,-22.1987 L 19.6559,-22.2021 L 19.6233,-22.1998
 L 10.9193,-20.8212 L 10.7454,-20.8091 L 10.572,-20.8273 L 10.4044,-20.8753 L 10.2478,-20.9518 L 10.1068,-21.0542
 L 9.98567,-21.1796 L 9.8882,-21.3241 L 9.81731,-21.4834 L 9.77513,-21.6525 L 9.38405,-24.1217 L 9.37796,-24.2086
 L 9.38707,-24.2953 L 9.4111,-24.3791 L 9.44931,-24.4574 L 9.50053,-24.528 L 9.56323,-24.5885 L 9.63548,-24.6372
 L 9.7151,-24.6727 L 9.79967,-24.6938 L 10.6169,-24.827 L 11.4267,-24.9668 L 12.2229,-25.1121 L 12.9994,-25.2616
 L 13.7505,-25.4144 L 14.4702,-25.5692 L 15.1533,-25.7248 L 15.7944,-25.8801 L 16.3887,-26.0339 L 16.9316,-26.185
 L 17.4191,-26.3323 L 17.8474,-26.4746 L 18.2133,-26.6109 L 18.5139,-26.7401 L 18.747,-26.8613 L 18.9109,-26.9735
 L 19.0042,-27.0758 L 19.0263,-27.1676 L 18.9774,-27.4762 L 18.9695,-27.5079 L 18.9562,-27.5378 L 18.9379,-27.5649
 L 18.9152,-27.5884 L 18.8888,-27.6076 L 18.8594,-27.6219 L 18.828,-27.631 L 18.7955,-27.6344 L 18.7629,-27.6321
 L 10.0589,-26.2535 L 9.88498,-26.2413 L 9.71162,-26.2596 L 9.54407,-26.3076 L 9.38739,-26.384 L 9.24637,-26.4865
 L 9.12529,-26.6119 L 9.02782,-26.7564 L 8.95691,-26.9156 L 8.91473,-27.0848 L 8.52365,-29.554 L 8.51758,-29.6409
 L 8.52669,-29.7276 L 8.5507,-29.8114 L 8.58891,-29.8897 L 8.64015,-29.9602 L 8.70284,-30.0208 L 8.7751,-30.0695
 L 8.85472,-30.105 L 8.93929,-30.1261 L 9.75647,-30.2593 L 10.5663,-30.3991 L 11.3625,-30.5443 L 12.139,-30.6939
 L 12.8901,-30.8466 L 13.6098,-31.0014 L 14.2929,-31.1571 L 14.934,-31.3124 L 15.5283,-31.4662 L 16.0712,-31.6173
 L 16.5587,-31.7646 L 16.987,-31.9069 L 17.3529,-32.0432 L 17.6535,-32.1724 L 17.8867,-32.2936 L 18.0505,-32.4058
 L 18.1438,-32.5081 L 18.1659,-32.5999 L 18.117,-32.9085 L 18.1091,-32.9402 L 18.0958,-32.9701 L 18.0775,-32.9972
 L 18.0548,-33.0207 L 18.0284,-33.0399 L 17.999,-33.0542 L 17.9676,-33.0632 L 17.9351,-33.0667 L 17.9025,-33.0644
 L 9.19847,-31.6858 L 9.02458,-31.6736 L 8.85123,-31.6919 L 8.68367,-31.7399 L 8.52701,-31.8163 L 8.38599,-31.9188
 L 8.26489,-32.0442 L 8.16742,-32.1887 L 8.09653,-32.3479 L 8.05435,-32.5171 L 7.66327,-34.9863 L 7.65718,-35.0732
 L 7.66629,-35.1599 L 7.69032,-35.2437 L 7.72853,-35.322 L 7.77975,-35.3925 L 7.84245,-35.4531 L 7.9147,-35.5018
 L 7.99432,-35.5372 L 8.07889,-35.5583 L 8.89609,-35.6916 L 9.70587,-35.8314 L 10.5021,-35.9766 L 11.2786,-36.1262
 L 12.0297,-36.2789 L 12.7495,-36.4337 L 13.4325,-36.5894 L 14.0736,-36.7447 L 14.6679,-36.8985 L 15.2108,-37.0496
 L 15.6983,-37.1969 L 16.1266,-37.3392 L 16.4925,-37.4755 L 16.7931,-37.6047 L 17.0263,-37.7259 L 17.1901,-37.8381
 L 17.2834,-37.9404 L 17.3055,-38.0322 L 17.2566,-38.3408 L 17.2487,-38.3725 L 17.2354,-38.4024 L 17.2171,-38.4295
 L 17.1944,-38.453 L 17.168,-38.4722 L 17.1386,-38.4865 L 17.1072,-38.4955 L 17.0747,-38.4989 L 17.0421,-38.4967
 L 8.33809,-37.1181 L 8.1642,-37.1059 L 7.99084,-37.1241 L 7.82329,-37.1722 L 7.66661,-37.2486 L 7.52559,-37.3511
 L 7.40451,-37.4765 L 7.30704,-37.621 L 7.23613,-37.7802 L 7.19395,-37.9493 L 6.80287,-40.4186 L 6.7968,-40.5055
 L 6.80591,-40.5922 L 6.82993,-40.676 L 6.86813,-40.7543 L 6.91937,-40.8248 L 6.98206,-40.8853 L 7.05432,-40.9341
 L 7.13394,-40.9695 L 7.21851,-40.9906 L 8.03569,-41.1239 L 8.84547,-41.2637 L 9.64168,-41.4089 L 10.4183,-41.5585
 L 11.1693,-41.7112 L 11.8891,-41.866 L 12.5721,-42.0217 L 13.2132,-42.177 L 13.8075,-42.3308 L 14.3504,-42.4819
 L 14.8379,-42.6292 L 15.2662,-42.7715 L 15.6321,-42.9078 L 15.9327,-43.037 L 16.1659,-43.1582 L 16.3297,-43.2704
 L 16.423,-43.3727 L 16.4451,-43.4644 L 16.3962,-43.7731 L 16.3883,-43.8048 L 16.375,-43.8347 L 16.3568,-43.8618
 L 16.334,-43.8853 L 16.3076,-43.9045 L 16.2782,-43.9188 L 16.2468,-43.9278 L 16.2143,-43.9312 L 16.1817,-43.929
 L 7.47769,-42.5504 L 7.3038,-42.5382 L 7.13045,-42.5564 L 6.96289,-42.6045 L 6.80623,-42.6809 L 6.66521,-42.7834
 L 6.54411,-42.9087 L 6.44664,-43.0533 L 6.37575,-43.2125 L 6.33357,-43.3816 L 5.94249,-45.8508 L 5.9364,-45.9378
 L 5.94551,-46.0245 L 5.96954,-46.1082 L 6.00775,-46.1866 L 6.05898,-46.2571 L 6.12167,-46.3176 L 6.19392,-46.3664
 L 6.27354,-46.4018 L 6.35811,-46.4229 L 7.17531,-46.5562 L 7.98509,-46.696 L 8.7813,-46.8412 L 9.55786,-46.9908
 L 10.3089,-47.1435 L 11.0287,-47.2983 L 11.7117,-47.4539 L 12.3528,-47.6093 L 12.9471,-47.763 L 13.4901,-47.9142
 L 13.9775,-48.0614 L 14.4059,-48.2038 L 14.7717,-48.3401 L 15.0724,-48.4693 L 15.3055,-48.5905 L 15.4693,-48.7026
 L 15.5627,-48.805 L 15.5847,-48.8967 L 15.5358,-49.2054 L 15.5279,-49.2371 L 15.5146,-49.267 L 15.4964,-49.294
 L 15.4736,-49.3176 L 15.4472,-49.3368 L 15.4178,-49.3511 L 15.3864,-49.3601 L 15.3539,-49.3635 L 15.3213,-49.3612
 L 6.61731,-47.9827 L 6.44342,-47.9705 L 6.27007,-47.9887 L 6.10251,-48.0368 L 5.94583,-48.1132 L 5.80481,-48.2156
 L 5.68373,-48.341 L 5.58626,-48.4855 L 5.51535,-48.6448 L 5.47319,-48.8139 L 5.08209,-51.2831 L 5.07602,-51.3701
 L 5.08513,-51.4568 L 5.10915,-51.5405 L 5.14735,-51.6189 L 5.19859,-51.6894 L 5.26128,-51.7499 L 5.33354,-51.7987
 L 5.41316,-51.8341 L 5.49773,-51.8552 L 6.31491,-51.9885 L 7.12469,-52.1283 L 7.9209,-52.2735 L 8.69748,-52.423
 L 9.44852,-52.5758 L 10.1683,-52.7306 L 10.8513,-52.8862 L 11.4924,-53.0415 L 12.0867,-53.1953 L 12.6297,-53.3465
 L 13.1172,-53.4937 L 13.5455,-53.6361 L 13.9113,-53.7724 L 14.212,-53.9016 L 14.4451,-54.0227 L 14.6089,-54.1349
 L 14.7023,-54.2373 L 14.7243,-54.329 L 14.6754,-54.6377 L 14.6675,-54.6694 L 14.6543,-54.6992 L 14.636,-54.7263
 L 14.6133,-54.7498 L 14.5868,-54.769 L 14.5574,-54.7834 L 14.526,-54.7924 L 14.4935,-54.7958 L 14.4609,-54.7935
 L 5.75691,-53.4149 L 5.58302,-53.4028 L 5.40967,-53.421 L 5.24211,-53.4691 L 5.08545,-53.5455 L 4.94443,-53.6479
 L 4.82333,-53.7733 L 4.72586,-53.9178 L 4.65497,-54.0771 L 4.61279,-54.2462 L 4.22171,-56.7154 L 4.21562,-56.8024
 L 4.22473,-56.889 L 4.24876,-56.9728 L 4.28697,-57.0511 L 4.3382,-57.1217 L 4.40089,-57.1822 L 4.47314,-57.2309
 L 4.55276,-57.2664 L 4.63733,-57.2875 L 5.45453,-57.4208 L 6.26431,-57.5605 L 7.06052,-57.7058 L 7.8371,-57.8553
 L 8.58812,-58.0081 L 9.30789,-58.1629 L 9.99094,-58.3185 L 10.632,-58.4738 L 11.2263,-58.6276 L 11.7693,-58.7787
 L 12.2568,-58.926 L 12.6851,-59.0683 L 13.0509,-59.2046 L 13.3516,-59.3339 L 13.5847,-59.455 L 13.7486,-59.5672
 L 13.8419,-59.6696 L 13.8639,-59.7613 L 13.815,-60.0699 L 13.8071,-60.1017 L 13.7939,-60.1315 L 13.7756,-60.1586
 L 13.7529,-60.1821 L 13.7264,-60.2013 L 13.6971,-60.2157 L 13.6656,-60.2247 L 13.6331,-60.2281 L 13.6005,-60.2258
 L 4.89653,-58.8472 L 4.72264,-58.8351 L 4.54929,-58.8533 L 4.38173,-58.9013 L 4.22505,-58.9778 L 4.08403,-59.0802
 L 3.96295,-59.2056 L 3.86548,-59.3501 L 3.79457,-59.5094 L 3.75241,-59.6785 L 3.36131,-62.1477 L 3.35524,-62.2346
 L 3.36435,-62.3213 L 3.38837,-62.4051 L 3.42657,-62.4834 L 3.47781,-62.554 L 3.5405,-62.6145 L 3.61276,-62.6632
 L 3.69238,-62.6987 L 3.77695,-62.7198 L 4.59413,-62.853 L 5.40392,-62.9928 L 6.20012,-63.1381 L 6.9767,-63.2876
 L 7.72774,-63.4404 L 8.44751,-63.5952 L 9.13054,-63.7508 L 9.77165,-63.9061 L 10.3659,-64.0599 L 10.9089,-64.211
 L 11.3964,-64.3583 L 11.8247,-64.5006 L 12.1906,-64.6369 L 12.4912,-64.7661 L 12.7243,-64.8873 L 12.8882,-64.9995
 L 12.9815,-65.1018 L 13.0036,-65.1936 L 12.9547,-65.5022 L 12.9468,-65.534 L 12.9335,-65.5638 L 12.9152,-65.5909
 L 12.8925,-65.6144 L 12.866,-65.6336 L 12.8367,-65.6479 L 12.8053,-65.657 L 12.7728,-65.6604 L 12.7401,-65.6581
 L 4.03613,-64.2795 L 3.86224,-64.2673 L 3.68889,-64.2856 L 3.52133,-64.3336 L 3.36467,-64.41 L 3.22365,-64.5125
 L 3.10255,-64.6379 L 3.00508,-64.7824 L 2.93419,-64.9416 L 2.89201,-65.1108 L 2.50093,-67.58 L 2.49484,-67.6669
 L 2.50395,-67.7536 L 2.52798,-67.8374 L 2.56619,-67.9157 L 2.61742,-67.9862 L 2.68011,-68.0468 L 2.75237,-68.0955
 L 2.83199,-68.131 L 2.91655,-68.1521 L 3.73375,-68.2853 L 4.54353,-68.4251 L 5.33974,-68.5703 L 6.11632,-68.7199
 L 6.86734,-68.8727 L 7.58711,-69.0274 L 8.27016,-69.1831 L 8.91125,-69.3384 L 9.50555,-69.4922 L 10.0485,-69.6433
 L 10.536,-69.7906 L 10.9643,-69.9329 L 11.3302,-70.0692 L 11.6308,-70.1984 L 11.8639,-70.3196 L 12.0278,-70.4318
 L 12.1211,-70.5341 L 12.1432,-70.6259 L 12.0943,-70.9345 L 12.0864,-70.9662 L 12.0731,-70.9961 L 12.0548,-71.0232
 L 12.0321,-71.0467 L 12.0056,-71.0659 L 11.9763,-71.0802 L 11.9449,-71.0892 L 11.9124,-71.0927 L 11.8797,-71.0904
 L 3.17575,-69.7118 L 3.00186,-69.6996 L 2.82851,-69.7179 L 2.66095,-69.7659 L 2.50427,-69.8423 L 2.36325,-69.9448
 L 2.24217,-70.0702 L 2.1447,-70.2147 L 2.07379,-70.3739 L 2.03163,-70.5431 L 1.64053,-73.0123 L 0.5,-72.8316
 L 0.5,-0.5 L 7.6875,-0.5 z
M 1.9375,-48.1625 L 1.9158,-48.1644 L 1.89476,-48.17 L 1.875,-48.1792 L 1.85716,-48.1917 L 1.84175,-48.2072
 L 1.82925,-48.225 L 1.82004,-48.2447 L 1.81441,-48.2658 L 1.8125,-48.2875 L 1.81441,-48.3092 L 1.82004,-48.3302
 L 1.82925,-48.35 L 1.84175,-48.3678 L 1.85716,-48.3833 L 1.875,-48.3958 L 1.89476,-48.405 L 1.9158,-48.4106
 L 1.9375,-48.4125 L 1.9375,-52.4125 L 1.9158,-52.4144 L 1.89476,-52.42 L 1.875,-52.4292 L 1.85716,-52.4417
 L 1.84175,-52.4572 L 1.82925,-52.475 L 1.82004,-52.4947 L 1.81441,-52.5158 L 1.8125,-52.5375 L 1.81441,-52.5592
 L 1.82004,-52.5802 L 1.82925,-52.6 L 1.84175,-52.6178 L 1.85716,-52.6333 L 1.875,-52.6458 L 1.89476,-52.655
 L 1.9158,-52.6606 L 1.9375,-52.6625 L 2.75,-52.6625 L 2.77171,-52.6606 L 2.79276,-52.655 L 2.8125,-52.6458
 L 2.83035,-52.6333 L 2.84576,-52.6178 L 2.85826,-52.6 L 2.86746,-52.5802 L 2.87311,-52.5592 L 2.875,-52.5375
 L 2.87311,-52.5158 L 2.86746,-52.4947 L 2.85826,-52.475 L 2.84576,-52.4572 L 2.83035,-52.4417 L 2.8125,-52.4292
 L 2.79276,-52.42 L 2.77171,-52.4144 L 2.75,-52.4125 L 2.75,-48.4125 L 2.77171,-48.4106 L 2.79276,-48.405
 L 2.8125,-48.3958 L 2.83035,-48.3833 L 2.84576,-48.3678 L 2.85826,-48.35 L 2.86746,-48.3302 L 2.87311,-48.3092
 L 2.875,-48.2875 L 2.87311,-48.2658 L 2.86746,-48.2447 L 2.85826,-48.225 L 2.84576,-48.2072 L 2.83035,-48.1917
 L 2.8125,-48.1792 L 2.79276,-48.17 L 2.77171,-48.1644 L 2.75,-48.1625 z
M 1.9375,-30.9 L 1.9158,-30.9019 L 1.89476,-30.9075 L 1.875,-30.9167 L 1.85716,-30.9292 L 1.84175,-30.9446
 L 1.82925,-30.9625 L 1.82004,-30.9822 L 1.81441,-31.0033 L 1.8125,-31.025 L 1.81441,-31.0467 L 1.82004,-31.0677
 L 1.82925,-31.0875 L 1.84175,-31.1053 L 1.85716,-31.1207 L 1.875,-31.1332 L 1.89476,-31.1425 L 1.9158,-31.1481
 L 1.9375,-31.15 L 1.9375,-35.15 L 1.9158,-35.1519 L 1.89476,-35.1575 L 1.875,-35.1667 L 1.85716,-35.1792
 L 1.84175,-35.1946 L 1.82925,-35.2125 L 1.82004,-35.2322 L 1.81441,-35.2533 L 1.8125,-35.275 L 1.81441,-35.2967
 L 1.82004,-35.3177 L 1.82925,-35.3375 L 1.84175,-35.3553 L 1.85716,-35.3707 L 1.875,-35.3833 L 1.89476,-35.3925
 L 1.9158,-35.3981 L 1.9375,-35.4 L 2.75,-35.4 L 2.77171,-35.3981 L 2.79276,-35.3925 L 2.8125,-35.3833
 L 2.83035,-35.3707 L 2.84576,-35.3553 L 2.85826,-35.3375 L 2.86746,-35.3177 L 2.87311,-35.2967 L 2.875,-35.275
 L 2.87311,-35.2533 L 2.86746,-35.2322 L 2.85826,-35.2125 L 2.84576,-35.1946 L 2.83035,-35.1792 L 2.8125,-35.1667
 L 2.79276,-35.1575 L 2.77171,-35.1519 L 2.75,-35.15 L 2.75,-31.15 L 2.77171,-31.1481 L 2.79276,-31.1425
 L 2.8125,-31.1332 L 2.83035,-31.1207 L 2.84576,-31.1053 L 2.85826,-31.0875 L 2.86746,-31.0677 L 2.87311,-31.0467
 L 2.875,-31.025 L 2.87311,-31.0033 L 2.86746,-30.9822 L 2.85826,-30.9625 L 2.84576,-30.9446 L 2.83035,-30.9292
 L 2.8125,-30.9167 L 2.79276,-30.9075 L 2.77171,-30.9019 L 2.75,-30.9 z
M 23.5,-62.2375 L 20.5,-62.2375 L 20.4783,-62.2394 L 20.4573,-62.245 L 20.4375,-62.2542 L 20.4197,-62.2667
 L 20.4043,-62.2822 L 20.3918,-62.3 L 20.3826,-62.3197 L 20.3769,-62.3408 L 20.375,-62.3625 L 20.3769,-62.3842
 L 20.3826,-62.4052 L 20.3918,-62.425 L 20.4043,-62.4428 L 20.4197,-62.4583 L 20.4375,-62.4707 L 20.4573,-62.4799
 L 20.4783,-62.4856 L 20.5,-62.4875 L 20.5,-64.3 L 19,-64.3 L 19,-60.2375 L 23.5,-60.2375
 z
M 29,-64.3 L 27.5,-64.3 L 27.5,-62.4875 L 27.5217,-62.4856 L 27.5427,-62.4799 L 27.5625,-62.4707
 L 27.5803,-62.4583 L 27.5957,-62.4428 L 27.6082,-62.425 L 27.6174,-62.4052 L 27.6231,-62.3842 L 27.625,-62.3625
 L 27.6231,-62.3408 L 27.6174,-62.3197 L 27.6082,-62.3 L 27.5957,-62.2822 L 27.5803,-62.2667 L 27.5625,-62.2542
 L 27.5427,-62.245 L 27.5217,-62.2394 L 27.5,-62.2375 L 24.5,-62.2375 L 24.5,-60.2375 L 29,-60.2375
 z
" stroke="black" fill="lightgray" stroke-width="0.5"/>
</svg>
