  0
SECTION
  2
BLOCKS
  0
ENDSEC
  0
SECTION
  2
ENTITIES
  0
LINE
  8
0
 10
28
 20
93.25
 11
27.9783
 21
93.2519
  0
LINE
  8
0
 10
27.9783
 20
93.2519
 11
27.9572
 21
93.2576
  0
LINE
  8
0
 10
27.9572
 20
93.2576
 11
27.9375
 21
93.2668
  0
LINE
  8
0
 10
27.9375
 20
93.2668
 11
27.9196
 21
93.2793
  0
LINE
  8
0
 10
27.9196
 20
93.2793
 11
27.9042
 21
93.2947
  0
LINE
  8
0
 10
27.9042
 20
93.2947
 11
27.8917
 21
93.3125
  0
LINE
  8
0
 10
27.8917
 20
93.3125
 11
27.8825
 21
93.3323
  0
LINE
  8
0
 10
27.8825
 20
93.3323
 11
27.8769
 21
93.3533
  0
LINE
  8
0
 10
27.8769
 20
93.3533
 11
27.875
 21
93.375
  0
LINE
  8
0
 10
27.875
 20
93.375
 11
27.8769
 21
93.3967
  0
LINE
  8
0
 10
27.8769
 20
93.3967
 11
27.8825
 21
93.4178
  0
LINE
  8
0
 10
27.8825
 20
93.4178
 11
27.8917
 21
93.4375
  0
LINE
  8
0
 10
27.8917
 20
93.4375
 11
27.9042
 21
93.4554
  0
LINE
  8
0
 10
27.9042
 20
93.4554
 11
27.9196
 21
93.4708
  0
LINE
  8
0
 10
27.9196
 20
93.4708
 11
27.9375
 21
93.4833
  0
LINE
  8
0
 10
27.9375
 20
93.4833
 11
27.9572
 21
93.4925
  0
LINE
  8
0
 10
27.9572
 20
93.4925
 11
27.9783
 21
93.4981
  0
LINE
  8
0
 10
27.9783
 20
93.4981
 11
28
 21
93.5
  0
LINE
  8
0
 10
28
 20
93.5
 11
28.8125
 21
93.5
  0
LINE
  8
0
 10
28.8125
 20
93.5
 11
28.8342
 21
93.4981
  0
LINE
  8
0
 10
28.8342
 20
93.4981
 11
28.8552
 21
93.4925
  0
LINE
  8
0
 10
28.8552
 20
93.4925
 11
28.875
 21
93.4833
  0
LINE
  8
0
 10
28.875
 20
93.4833
 11
28.8928
 21
93.4708
  0
LINE
  8
0
 10
28.8928
 20
93.4708
 11
28.9082
 21
93.4554
  0
LINE
  8
0
 10
28.9082
 20
93.4554
 11
28.9207
 21
93.4375
  0
LINE
  8
0
 10
28.9207
 20
93.4375
 11
28.9299
 21
93.4178
  0
LINE
  8
0
 10
28.9299
 20
93.4178
 11
28.9356
 21
93.3967
  0
LINE
  8
0
 10
28.9356
 20
93.3967
 11
28.9375
 21
93.375
  0
LINE
  8
0
 10
28.9375
 20
93.375
 11
28.9356
 21
93.3533
  0
LINE
  8
0
 10
28.9356
 20
93.3533
 11
28.9299
 21
93.3323
  0
LINE
  8
0
 10
28.9299
 20
93.3323
 11
28.9207
 21
93.3125
  0
LINE
  8
0
 10
28.9207
 20
93.3125
 11
28.9082
 21
93.2947
  0
LINE
  8
0
 10
28.9082
 20
93.2947
 11
28.8928
 21
93.2793
  0
LINE
  8
0
 10
28.8928
 20
93.2793
 11
28.875
 21
93.2668
  0
LINE
  8
0
 10
28.875
 20
93.2668
 11
28.8552
 21
93.2576
  0
LINE
  8
0
 10
28.8552
 20
93.2576
 11
28.8342
 21
93.2519
  0
LINE
  8
0
 10
28.8342
 20
93.2519
 11
28.8125
 21
93.25
  0
LINE
  8
0
 10
28.8125
 20
93.25
 11
28.8125
 21
91.5
  0
LINE
  8
0
 10
28.8125
 20
91.5
 11
43.1875
 21
91.5
  0
LINE
  8
0
 10
43.1875
 20
91.5
 11
43.1875
 21
93.25
  0
LINE
  8
0
 10
43.1875
 20
93.25
 11
43.1658
 21
93.2519
  0
LINE
  8
0
 10
43.1658
 20
93.2519
 11
43.1447
 21
93.2576
  0
LINE
  8
0
 10
43.1447
 20
93.2576
 11
43.125
 21
93.2668
  0
LINE
  8
0
 10
43.125
 20
93.2668
 11
43.1071
 21
93.2793
  0
LINE
  8
0
 10
43.1071
 20
93.2793
 11
43.0917
 21
93.2947
  0
LINE
  8
0
 10
43.0917
 20
93.2947
 11
43.0792
 21
93.3125
  0
LINE
  8
0
 10
43.0792
 20
93.3125
 11
43.07
 21
93.3323
  0
LINE
  8
0
 10
43.07
 20
93.3323
 11
43.0644
 21
93.3533
  0
LINE
  8
0
 10
43.0644
 20
93.3533
 11
43.0625
 21
93.375
  0
LINE
  8
0
 10
43.0625
 20
93.375
 11
43.0644
 21
93.3967
  0
LINE
  8
0
 10
43.0644
 20
93.3967
 11
43.07
 21
93.4178
  0
LINE
  8
0
 10
43.07
 20
93.4178
 11
43.0792
 21
93.4375
  0
LINE
  8
0
 10
43.0792
 20
93.4375
 11
43.0917
 21
93.4554
  0
LINE
  8
0
 10
43.0917
 20
93.4554
 11
43.1071
 21
93.4708
  0
LINE
  8
0
 10
43.1071
 20
93.4708
 11
43.125
 21
93.4833
  0
LINE
  8
0
 10
43.125
 20
93.4833
 11
43.1447
 21
93.4925
  0
LINE
  8
0
 10
43.1447
 20
93.4925
 11
43.1658
 21
93.4981
  0
LINE
  8
0
 10
43.1658
 20
93.4981
 11
43.1875
 21
93.5
  0
LINE
  8
0
 10
43.1875
 20
93.5
 11
44
 21
93.5
  0
LINE
  8
0
 10
44
 20
93.5
 11
44.0217
 21
93.4981
  0
LINE
  8
0
 10
44.0217
 20
93.4981
 11
44.0427
 21
93.4925
  0
LINE
  8
0
 10
44.0427
 20
93.4925
 11
44.0625
 21
93.4833
  0
LINE
  8
0
 10
44.0625
 20
93.4833
 11
44.0803
 21
93.4708
  0
LINE
  8
0
 10
44.0803
 20
93.4708
 11
44.0957
 21
93.4554
  0
LINE
  8
0
 10
44.0957
 20
93.4554
 11
44.1082
 21
93.4375
  0
LINE
  8
0
 10
44.1082
 20
93.4375
 11
44.1175
 21
93.4178
  0
LINE
  8
0
 10
44.1175
 20
93.4178
 11
44.1231
 21
93.3967
  0
LINE
  8
0
 10
44.1231
 20
93.3967
 11
44.125
 21
93.375
  0
LINE
  8
0
 10
44.125
 20
93.375
 11
44.1231
 21
93.3533
  0
LINE
  8
0
 10
44.1231
 20
93.3533
 11
44.1175
 21
93.3323
  0
LINE
  8
0
 10
44.1175
 20
93.3323
 11
44.1082
 21
93.3125
  0
LINE
  8
0
 10
44.1082
 20
93.3125
 11
44.0957
 21
93.2947
  0
LINE
  8
0
 10
44.0957
 20
93.2947
 11
44.0803
 21
93.2793
  0
LINE
  8
0
 10
44.0803
 20
93.2793
 11
44.0625
 21
93.2668
  0
LINE
  8
0
 10
44.0625
 20
93.2668
 11
44.0427
 21
93.2576
  0
LINE
  8
0
 10
44.0427
 20
93.2576
 11
44.0217
 21
93.2519
  0
LINE
  8
0
 10
44.0217
 20
93.2519
 11
44
 21
93.25
  0
LINE
  8
0
 10
44
 20
93.25
 11
44
 21
91.5
  0
LINE
  8
0
 10
44
 20
91.5
 11
45
 21
91.5
  0
LINE
  8
0
 10
45
 20
91.5
 11
47.5
 21
93.5
  0
LINE
  8
0
 10
47.5
 20
93.5
 11
47.5
 21
95.5
  0
LINE
  8
0
 10
47.5
 20
95.5
 11
24.5
 21
95.5
  0
LINE
  8
0
 10
24.5
 20
95.5
 11
24.5
 21
93.5
  0
LINE
  8
0
 10
24.5
 20
93.5
 11
27
 21
91.5
  0
LINE
  8
0
 10
27
 20
91.5
 11
28
 21
91.5
  0
LINE
  8
0
 10
28
 20
91.5
 11
28
 21
93.25
  0
LINE
  8
0
 10
4
 20
91.25
 11
3.97829
 21
91.2519
  0
LINE
  8
0
 10
3.97829
 20
91.2519
 11
3.95724
 21
91.2576
  0
LINE
  8
0
 10
3.95724
 20
91.2576
 11
3.9375
 21
91.2668
  0
LINE
  8
0
 10
3.9375
 20
91.2668
 11
3.91965
 21
91.2793
  0
LINE
  8
0
 10
3.91965
 20
91.2793
 11
3.90424
 21
91.2947
  0
LINE
  8
0
 10
3.90424
 20
91.2947
 11
3.89174
 21
91.3125
  0
LINE
  8
0
 10
3.89174
 20
91.3125
 11
3.88254
 21
91.3323
  0
LINE
  8
0
 10
3.88254
 20
91.3323
 11
3.87689
 21
91.3533
  0
LINE
  8
0
 10
3.87689
 20
91.3533
 11
3.875
 21
91.375
  0
LINE
  8
0
 10
3.875
 20
91.375
 11
3.87689
 21
91.3967
  0
LINE
  8
0
 10
3.87689
 20
91.3967
 11
3.88254
 21
91.4178
  0
LINE
  8
0
 10
3.88254
 20
91.4178
 11
3.89174
 21
91.4375
  0
LINE
  8
0
 10
3.89174
 20
91.4375
 11
3.90424
 21
91.4554
  0
LINE
  8
0
 10
3.90424
 20
91.4554
 11
3.91965
 21
91.4708
  0
LINE
  8
0
 10
3.91965
 20
91.4708
 11
3.9375
 21
91.4833
  0
LINE
  8
0
 10
3.9375
 20
91.4833
 11
3.95724
 21
91.4925
  0
LINE
  8
0
 10
3.95724
 20
91.4925
 11
3.97829
 21
91.4981
  0
LINE
  8
0
 10
3.97829
 20
91.4981
 11
4
 21
91.5
  0
LINE
  8
0
 10
4
 20
91.5
 11
4.8125
 21
91.5
  0
LINE
  8
0
 10
4.8125
 20
91.5
 11
4.8342
 21
91.4981
  0
LINE
  8
0
 10
4.8342
 20
91.4981
 11
4.85524
 21
91.4925
  0
LINE
  8
0
 10
4.85524
 20
91.4925
 11
4.875
 21
91.4833
  0
LINE
  8
0
 10
4.875
 20
91.4833
 11
4.89284
 21
91.4708
  0
LINE
  8
0
 10
4.89284
 20
91.4708
 11
4.90825
 21
91.4554
  0
LINE
  8
0
 10
4.90825
 20
91.4554
 11
4.92075
 21
91.4375
  0
LINE
  8
0
 10
4.92075
 20
91.4375
 11
4.92995
 21
91.4178
  0
LINE
  8
0
 10
4.92995
 20
91.4178
 11
4.93559
 21
91.3967
  0
LINE
  8
0
 10
4.93559
 20
91.3967
 11
4.9375
 21
91.375
  0
LINE
  8
0
 10
4.9375
 20
91.375
 11
4.93559
 21
91.3533
  0
LINE
  8
0
 10
4.93559
 20
91.3533
 11
4.92995
 21
91.3323
  0
LINE
  8
0
 10
4.92995
 20
91.3323
 11
4.92075
 21
91.3125
  0
LINE
  8
0
 10
4.92075
 20
91.3125
 11
4.90825
 21
91.2947
  0
LINE
  8
0
 10
4.90825
 20
91.2947
 11
4.89284
 21
91.2793
  0
LINE
  8
0
 10
4.89284
 20
91.2793
 11
4.875
 21
91.2668
  0
LINE
  8
0
 10
4.875
 20
91.2668
 11
4.85524
 21
91.2576
  0
LINE
  8
0
 10
4.85524
 20
91.2576
 11
4.8342
 21
91.2519
  0
LINE
  8
0
 10
4.8342
 20
91.2519
 11
4.8125
 21
91.25
  0
LINE
  8
0
 10
4.8125
 20
91.25
 11
4.8125
 21
87.5
  0
LINE
  8
0
 10
4.8125
 20
87.5
 11
19.1875
 21
87.5
  0
LINE
  8
0
 10
19.1875
 20
87.5
 11
19.1875
 21
91.25
  0
LINE
  8
0
 10
19.1875
 20
91.25
 11
19.1658
 21
91.2519
  0
LINE
  8
0
 10
19.1658
 20
91.2519
 11
19.1447
 21
91.2576
  0
LINE
  8
0
 10
19.1447
 20
91.2576
 11
19.125
 21
91.2668
  0
LINE
  8
0
 10
19.125
 20
91.2668
 11
19.1071
 21
91.2793
  0
LINE
  8
0
 10
19.1071
 20
91.2793
 11
19.0917
 21
91.2947
  0
LINE
  8
0
 10
19.0917
 20
91.2947
 11
19.0792
 21
91.3125
  0
LINE
  8
0
 10
19.0792
 20
91.3125
 11
19.07
 21
91.3323
  0
LINE
  8
0
 10
19.07
 20
91.3323
 11
19.0644
 21
91.3533
  0
LINE
  8
0
 10
19.0644
 20
91.3533
 11
19.0625
 21
91.375
  0
LINE
  8
0
 10
19.0625
 20
91.375
 11
19.0644
 21
91.3967
  0
LINE
  8
0
 10
19.0644
 20
91.3967
 11
19.07
 21
91.4178
  0
LINE
  8
0
 10
19.07
 20
91.4178
 11
19.0792
 21
91.4375
  0
LINE
  8
0
 10
19.0792
 20
91.4375
 11
19.0917
 21
91.4554
  0
LINE
  8
0
 10
19.0917
 20
91.4554
 11
19.1071
 21
91.4708
  0
LINE
  8
0
 10
19.1071
 20
91.4708
 11
19.125
 21
91.4833
  0
LINE
  8
0
 10
19.125
 20
91.4833
 11
19.1447
 21
91.4925
  0
LINE
  8
0
 10
19.1447
 20
91.4925
 11
19.1658
 21
91.4981
  0
LINE
  8
0
 10
19.1658
 20
91.4981
 11
19.1875
 21
91.5
  0
LINE
  8
0
 10
19.1875
 20
91.5
 11
20
 21
91.5
  0
LINE
  8
0
 10
20
 20
91.5
 11
20.0217
 21
91.4981
  0
LINE
  8
0
 10
20.0217
 20
91.4981
 11
20.0427
 21
91.4925
  0
LINE
  8
0
 10
20.0427
 20
91.4925
 11
20.0625
 21
91.4833
  0
LINE
  8
0
 10
20.0625
 20
91.4833
 11
20.0803
 21
91.4708
  0
LINE
  8
0
 10
20.0803
 20
91.4708
 11
20.0957
 21
91.4554
  0
LINE
  8
0
 10
20.0957
 20
91.4554
 11
20.1082
 21
91.4375
  0
LINE
  8
0
 10
20.1082
 20
91.4375
 11
20.1175
 21
91.4178
  0
LINE
  8
0
 10
20.1175
 20
91.4178
 11
20.1231
 21
91.3967
  0
LINE
  8
0
 10
20.1231
 20
91.3967
 11
20.125
 21
91.375
  0
LINE
  8
0
 10
20.125
 20
91.375
 11
20.1231
 21
91.3533
  0
LINE
  8
0
 10
20.1231
 20
91.3533
 11
20.1175
 21
91.3323
  0
LINE
  8
0
 10
20.1175
 20
91.3323
 11
20.1082
 21
91.3125
  0
LINE
  8
0
 10
20.1082
 20
91.3125
 11
20.0957
 21
91.2947
  0
LINE
  8
0
 10
20.0957
 20
91.2947
 11
20.0803
 21
91.2793
  0
LINE
  8
0
 10
20.0803
 20
91.2793
 11
20.0625
 21
91.2668
  0
LINE
  8
0
 10
20.0625
 20
91.2668
 11
20.0427
 21
91.2576
  0
LINE
  8
0
 10
20.0427
 20
91.2576
 11
20.0217
 21
91.2519
  0
LINE
  8
0
 10
20.0217
 20
91.2519
 11
20
 21
91.25
  0
LINE
  8
0
 10
20
 20
91.25
 11
20
 21
87.5
  0
LINE
  8
0
 10
20
 20
87.5
 11
21
 21
87.5
  0
LINE
  8
0
 10
21
 20
87.5
 11
23.5
 21
91.5
  0
LINE
  8
0
 10
23.5
 20
91.5
 11
23.5
 21
95.5
  0
LINE
  8
0
 10
23.5
 20
95.5
 11
0.5
 21
95.5
  0
LINE
  8
0
 10
0.5
 20
95.5
 11
0.5
 21
91.5
  0
LINE
  8
0
 10
0.5
 20
91.5
 11
3
 21
87.5
  0
LINE
  8
0
 10
3
 20
87.5
 11
4
 21
87.5
  0
LINE
  8
0
 10
4
 20
87.5
 11
4
 21
91.25
  0
LINE
  8
0
 10
33.5
 20
69.2375
 11
32
 21
69.2375
  0
LINE
  8
0
 10
32
 20
69.2375
 11
32
 21
67.9875
  0
LINE
  8
0
 10
32
 20
67.9875
 11
32.0217
 21
67.9856
  0
LINE
  8
0
 10
32.0217
 20
67.9856
 11
32.0427
 21
67.98
  0
LINE
  8
0
 10
32.0427
 20
67.98
 11
32.0625
 21
67.9708
  0
LINE
  8
0
 10
32.0625
 20
67.9708
 11
32.0803
 21
67.9583
  0
LINE
  8
0
 10
32.0803
 20
67.9583
 11
32.0957
 21
67.9429
  0
LINE
  8
0
 10
32.0957
 20
67.9429
 11
32.1082
 21
67.925
  0
LINE
  8
0
 10
32.1082
 20
67.925
 11
32.1175
 21
67.9053
  0
LINE
  8
0
 10
32.1175
 20
67.9053
 11
32.1231
 21
67.8842
  0
LINE
  8
0
 10
32.1231
 20
67.8842
 11
32.125
 21
67.8625
  0
LINE
  8
0
 10
32.125
 20
67.8625
 11
32.1231
 21
67.8408
  0
LINE
  8
0
 10
32.1231
 20
67.8408
 11
32.1175
 21
67.8197
  0
LINE
  8
0
 10
32.1175
 20
67.8197
 11
32.1082
 21
67.8
  0
LINE
  8
0
 10
32.1082
 20
67.8
 11
32.0957
 21
67.7822
  0
LINE
  8
0
 10
32.0957
 20
67.7822
 11
32.0803
 21
67.7668
  0
LINE
  8
0
 10
32.0803
 20
67.7668
 11
32.0625
 21
67.7543
  0
LINE
  8
0
 10
32.0625
 20
67.7543
 11
32.0427
 21
67.745
  0
LINE
  8
0
 10
32.0427
 20
67.745
 11
32.0217
 21
67.7394
  0
LINE
  8
0
 10
32.0217
 20
67.7394
 11
32
 21
67.7375
  0
LINE
  8
0
 10
32
 20
67.7375
 11
31.1875
 21
67.7375
  0
LINE
  8
0
 10
31.1875
 20
67.7375
 11
31.1658
 21
67.7394
  0
LINE
  8
0
 10
31.1658
 20
67.7394
 11
31.1447
 21
67.745
  0
LINE
  8
0
 10
31.1447
 20
67.745
 11
31.125
 21
67.7543
  0
LINE
  8
0
 10
31.125
 20
67.7543
 11
31.1071
 21
67.7668
  0
LINE
  8
0
 10
31.1071
 20
67.7668
 11
31.0917
 21
67.7822
  0
LINE
  8
0
 10
31.0917
 20
67.7822
 11
31.0792
 21
67.8
  0
LINE
  8
0
 10
31.0792
 20
67.8
 11
31.07
 21
67.8197
  0
LINE
  8
0
 10
31.07
 20
67.8197
 11
31.0644
 21
67.8408
  0
LINE
  8
0
 10
31.0644
 20
67.8408
 11
31.0625
 21
67.8625
  0
LINE
  8
0
 10
31.0625
 20
67.8625
 11
31.0644
 21
67.8842
  0
LINE
  8
0
 10
31.0644
 20
67.8842
 11
31.07
 21
67.9053
  0
LINE
  8
0
 10
31.07
 20
67.9053
 11
31.0792
 21
67.925
  0
LINE
  8
0
 10
31.0792
 20
67.925
 11
31.0917
 21
67.9429
  0
LINE
  8
0
 10
31.0917
 20
67.9429
 11
31.1071
 21
67.9583
  0
LINE
  8
0
 10
31.1071
 20
67.9583
 11
31.125
 21
67.9708
  0
LINE
  8
0
 10
31.125
 20
67.9708
 11
31.1447
 21
67.98
  0
LINE
  8
0
 10
31.1447
 20
67.98
 11
31.1658
 21
67.9856
  0
LINE
  8
0
 10
31.1658
 20
67.9856
 11
31.1875
 21
67.9875
  0
LINE
  8
0
 10
31.1875
 20
67.9875
 11
31.1875
 21
82.5625
  0
LINE
  8
0
 10
31.1875
 20
82.5625
 11
31.1894
 21
82.5842
  0
LINE
  8
0
 10
31.1894
 20
82.5842
 11
31.195
 21
82.6053
  0
LINE
  8
0
 10
31.195
 20
82.6053
 11
31.2042
 21
82.625
  0
LINE
  8
0
 10
31.2042
 20
82.625
 11
31.2167
 21
82.6429
  0
LINE
  8
0
 10
31.2167
 20
82.6429
 11
31.2321
 21
82.6583
  0
LINE
  8
0
 10
31.2321
 20
82.6583
 11
31.25
 21
82.6708
  0
LINE
  8
0
 10
31.25
 20
82.6708
 11
31.2697
 21
82.68
  0
LINE
  8
0
 10
31.2697
 20
82.68
 11
31.2908
 21
82.6856
  0
LINE
  8
0
 10
31.2908
 20
82.6856
 11
31.3125
 21
82.6875
  0
LINE
  8
0
 10
31.3125
 20
82.6875
 11
31.3342
 21
82.6856
  0
LINE
  8
0
 10
31.3342
 20
82.6856
 11
31.3552
 21
82.68
  0
LINE
  8
0
 10
31.3552
 20
82.68
 11
31.375
 21
82.6708
  0
LINE
  8
0
 10
31.375
 20
82.6708
 11
31.3928
 21
82.6583
  0
LINE
  8
0
 10
31.3928
 20
82.6583
 11
31.4082
 21
82.6429
  0
LINE
  8
0
 10
31.4082
 20
82.6429
 11
31.4207
 21
82.625
  0
LINE
  8
0
 10
31.4207
 20
82.625
 11
31.43
 21
82.6053
  0
LINE
  8
0
 10
31.43
 20
82.6053
 11
31.4356
 21
82.5842
  0
LINE
  8
0
 10
31.4356
 20
82.5842
 11
31.4375
 21
82.5625
  0
LINE
  8
0
 10
31.4375
 20
82.5625
 11
33.5
 21
82.5625
  0
LINE
  8
0
 10
33.5
 20
82.5625
 11
33.5
 21
86.5
  0
LINE
  8
0
 10
33.5
 20
86.5
 11
32
 21
86.5
  0
LINE
  8
0
 10
32
 20
86.5
 11
32
 21
85.25
  0
LINE
  8
0
 10
32
 20
85.25
 11
32.0217
 21
85.2481
  0
LINE
  8
0
 10
32.0217
 20
85.2481
 11
32.0427
 21
85.2425
  0
LINE
  8
0
 10
32.0427
 20
85.2425
 11
32.0625
 21
85.2333
  0
LINE
  8
0
 10
32.0625
 20
85.2333
 11
32.0803
 21
85.2208
  0
LINE
  8
0
 10
32.0803
 20
85.2208
 11
32.0957
 21
85.2054
  0
LINE
  8
0
 10
32.0957
 20
85.2054
 11
32.1082
 21
85.1875
  0
LINE
  8
0
 10
32.1082
 20
85.1875
 11
32.1175
 21
85.1678
  0
LINE
  8
0
 10
32.1175
 20
85.1678
 11
32.1231
 21
85.1467
  0
LINE
  8
0
 10
32.1231
 20
85.1467
 11
32.125
 21
85.125
  0
LINE
  8
0
 10
32.125
 20
85.125
 11
32.1231
 21
85.1033
  0
LINE
  8
0
 10
32.1231
 20
85.1033
 11
32.1175
 21
85.0823
  0
LINE
  8
0
 10
32.1175
 20
85.0823
 11
32.1082
 21
85.0625
  0
LINE
  8
0
 10
32.1082
 20
85.0625
 11
32.0957
 21
85.0447
  0
LINE
  8
0
 10
32.0957
 20
85.0447
 11
32.0803
 21
85.0293
  0
LINE
  8
0
 10
32.0803
 20
85.0293
 11
32.0625
 21
85.0168
  0
LINE
  8
0
 10
32.0625
 20
85.0168
 11
32.0427
 21
85.0076
  0
LINE
  8
0
 10
32.0427
 20
85.0076
 11
32.0217
 21
85.0019
  0
LINE
  8
0
 10
32.0217
 20
85.0019
 11
32
 21
85
  0
LINE
  8
0
 10
32
 20
85
 11
31.1875
 21
85
  0
LINE
  8
0
 10
31.1875
 20
85
 11
31.1658
 21
85.0019
  0
LINE
  8
0
 10
31.1658
 20
85.0019
 11
31.1447
 21
85.0076
  0
LINE
  8
0
 10
31.1447
 20
85.0076
 11
31.125
 21
85.0168
  0
LINE
  8
0
 10
31.125
 20
85.0168
 11
31.1071
 21
85.0293
  0
LINE
  8
0
 10
31.1071
 20
85.0293
 11
31.0917
 21
85.0447
  0
LINE
  8
0
 10
31.0917
 20
85.0447
 11
31.0792
 21
85.0625
  0
LINE
  8
0
 10
31.0792
 20
85.0625
 11
31.07
 21
85.0823
  0
LINE
  8
0
 10
31.07
 20
85.0823
 11
31.0644
 21
85.1033
  0
LINE
  8
0
 10
31.0644
 20
85.1033
 11
31.0625
 21
85.125
  0
LINE
  8
0
 10
31.0625
 20
85.125
 11
31.0644
 21
85.1467
  0
LINE
  8
0
 10
31.0644
 20
85.1467
 11
31.07
 21
85.1678
  0
LINE
  8
0
 10
31.07
 20
85.1678
 11
31.0792
 21
85.1875
  0
LINE
  8
0
 10
31.0792
 20
85.1875
 11
31.0917
 21
85.2054
  0
LINE
  8
0
 10
31.0917
 20
85.2054
 11
31.1071
 21
85.2208
  0
LINE
  8
0
 10
31.1071
 20
85.2208
 11
31.125
 21
85.2333
  0
LINE
  8
0
 10
31.125
 20
85.2333
 11
31.1447
 21
85.2425
  0
LINE
  8
0
 10
31.1447
 20
85.2425
 11
31.1658
 21
85.2481
  0
LINE
  8
0
 10
31.1658
 20
85.2481
 11
31.1875
 21
85.25
  0
LINE
  8
0
 10
31.1875
 20
85.25
 11
31.1875
 21
86.5
  0
LINE
  8
0
 10
31.1875
 20
86.5
 11
16.8125
 21
86.5
  0
LINE
  8
0
 10
16.8125
 20
86.5
 11
16.8125
 21
85.25
  0
LINE
  8
0
 10
16.8125
 20
85.25
 11
16.8342
 21
85.2481
  0
LINE
  8
0
 10
16.8342
 20
85.2481
 11
16.8552
 21
85.2425
  0
LINE
  8
0
 10
16.8552
 20
85.2425
 11
16.875
 21
85.2333
  0
LINE
  8
0
 10
16.875
 20
85.2333
 11
16.8928
 21
85.2208
  0
LINE
  8
0
 10
16.8928
 20
85.2208
 11
16.9082
 21
85.2054
  0
LINE
  8
0
 10
16.9082
 20
85.2054
 11
16.9207
 21
85.1875
  0
LINE
  8
0
 10
16.9207
 20
85.1875
 11
16.9299
 21
85.1678
  0
LINE
  8
0
 10
16.9299
 20
85.1678
 11
16.9356
 21
85.1467
  0
LINE
  8
0
 10
16.9356
 20
85.1467
 11
16.9375
 21
85.125
  0
LINE
  8
0
 10
16.9375
 20
85.125
 11
16.9356
 21
85.1033
  0
LINE
  8
0
 10
16.9356
 20
85.1033
 11
16.9299
 21
85.0823
  0
LINE
  8
0
 10
16.9299
 20
85.0823
 11
16.9207
 21
85.0625
  0
LINE
  8
0
 10
16.9207
 20
85.0625
 11
16.9082
 21
85.0447
  0
LINE
  8
0
 10
16.9082
 20
85.0447
 11
16.8928
 21
85.0293
  0
LINE
  8
0
 10
16.8928
 20
85.0293
 11
16.875
 21
85.0168
  0
LINE
  8
0
 10
16.875
 20
85.0168
 11
16.8552
 21
85.0076
  0
LINE
  8
0
 10
16.8552
 20
85.0076
 11
16.8342
 21
85.0019
  0
LINE
  8
0
 10
16.8342
 20
85.0019
 11
16.8125
 21
85
  0
LINE
  8
0
 10
16.8125
 20
85
 11
16
 21
85
  0
LINE
  8
0
 10
16
 20
85
 11
15.9783
 21
85.0019
  0
LINE
  8
0
 10
15.9783
 20
85.0019
 11
15.9572
 21
85.0076
  0
LINE
  8
0
 10
15.9572
 20
85.0076
 11
15.9375
 21
85.0168
  0
LINE
  8
0
 10
15.9375
 20
85.0168
 11
15.9196
 21
85.0293
  0
LINE
  8
0
 10
15.9196
 20
85.0293
 11
15.9042
 21
85.0447
  0
LINE
  8
0
 10
15.9042
 20
85.0447
 11
15.8917
 21
85.0625
  0
LINE
  8
0
 10
15.8917
 20
85.0625
 11
15.8825
 21
85.0823
  0
LINE
  8
0
 10
15.8825
 20
85.0823
 11
15.8769
 21
85.1033
  0
LINE
  8
0
 10
15.8769
 20
85.1033
 11
15.875
 21
85.125
  0
LINE
  8
0
 10
15.875
 20
85.125
 11
15.8769
 21
85.1467
  0
LINE
  8
0
 10
15.8769
 20
85.1467
 11
15.8825
 21
85.1678
  0
LINE
  8
0
 10
15.8825
 20
85.1678
 11
15.8917
 21
85.1875
  0
LINE
  8
0
 10
15.8917
 20
85.1875
 11
15.9042
 21
85.2054
  0
LINE
  8
0
 10
15.9042
 20
85.2054
 11
15.9196
 21
85.2208
  0
LINE
  8
0
 10
15.9196
 20
85.2208
 11
15.9375
 21
85.2333
  0
LINE
  8
0
 10
15.9375
 20
85.2333
 11
15.9572
 21
85.2425
  0
LINE
  8
0
 10
15.9572
 20
85.2425
 11
15.9783
 21
85.2481
  0
LINE
  8
0
 10
15.9783
 20
85.2481
 11
16
 21
85.25
  0
LINE
  8
0
 10
16
 20
85.25
 11
16
 21
86.5
  0
LINE
  8
0
 10
16
 20
86.5
 11
14.5
 21
86.5
  0
LINE
  8
0
 10
14.5
 20
86.5
 11
14.5
 21
82.5625
  0
LINE
  8
0
 10
14.5
 20
82.5625
 11
16.5625
 21
82.5625
  0
LINE
  8
0
 10
16.5625
 20
82.5625
 11
16.5644
 21
82.5842
  0
LINE
  8
0
 10
16.5644
 20
82.5842
 11
16.57
 21
82.6053
  0
LINE
  8
0
 10
16.57
 20
82.6053
 11
16.5792
 21
82.625
  0
LINE
  8
0
 10
16.5792
 20
82.625
 11
16.5917
 21
82.6429
  0
LINE
  8
0
 10
16.5917
 20
82.6429
 11
16.6071
 21
82.6583
  0
LINE
  8
0
 10
16.6071
 20
82.6583
 11
16.625
 21
82.6708
  0
LINE
  8
0
 10
16.625
 20
82.6708
 11
16.6447
 21
82.68
  0
LINE
  8
0
 10
16.6447
 20
82.68
 11
16.6658
 21
82.6856
  0
LINE
  8
0
 10
16.6658
 20
82.6856
 11
16.6875
 21
82.6875
  0
LINE
  8
0
 10
16.6875
 20
82.6875
 11
16.7092
 21
82.6856
  0
LINE
  8
0
 10
16.7092
 20
82.6856
 11
16.7302
 21
82.68
  0
LINE
  8
0
 10
16.7302
 20
82.68
 11
16.75
 21
82.6708
  0
LINE
  8
0
 10
16.75
 20
82.6708
 11
16.7678
 21
82.6583
  0
LINE
  8
0
 10
16.7678
 20
82.6583
 11
16.7832
 21
82.6429
  0
LINE
  8
0
 10
16.7832
 20
82.6429
 11
16.7957
 21
82.625
  0
LINE
  8
0
 10
16.7957
 20
82.625
 11
16.8049
 21
82.6053
  0
LINE
  8
0
 10
16.8049
 20
82.6053
 11
16.8106
 21
82.5842
  0
LINE
  8
0
 10
16.8106
 20
82.5842
 11
16.8125
 21
82.5625
  0
LINE
  8
0
 10
16.8125
 20
82.5625
 11
16.8125
 21
67.9875
  0
LINE
  8
0
 10
16.8125
 20
67.9875
 11
16.8342
 21
67.9856
  0
LINE
  8
0
 10
16.8342
 20
67.9856
 11
16.8552
 21
67.98
  0
LINE
  8
0
 10
16.8552
 20
67.98
 11
16.875
 21
67.9708
  0
LINE
  8
0
 10
16.875
 20
67.9708
 11
16.8928
 21
67.9583
  0
LINE
  8
0
 10
16.8928
 20
67.9583
 11
16.9082
 21
67.9429
  0
LINE
  8
0
 10
16.9082
 20
67.9429
 11
16.9207
 21
67.925
  0
LINE
  8
0
 10
16.9207
 20
67.925
 11
16.9299
 21
67.9053
  0
LINE
  8
0
 10
16.9299
 20
67.9053
 11
16.9356
 21
67.8842
  0
LINE
  8
0
 10
16.9356
 20
67.8842
 11
16.9375
 21
67.8625
  0
LINE
  8
0
 10
16.9375
 20
67.8625
 11
16.9356
 21
67.8408
  0
LINE
  8
0
 10
16.9356
 20
67.8408
 11
16.9299
 21
67.8197
  0
LINE
  8
0
 10
16.9299
 20
67.8197
 11
16.9207
 21
67.8
  0
LINE
  8
0
 10
16.9207
 20
67.8
 11
16.9082
 21
67.7822
  0
LINE
  8
0
 10
16.9082
 20
67.7822
 11
16.8928
 21
67.7668
  0
LINE
  8
0
 10
16.8928
 20
67.7668
 11
16.875
 21
67.7543
  0
LINE
  8
0
 10
16.875
 20
67.7543
 11
16.8552
 21
67.745
  0
LINE
  8
0
 10
16.8552
 20
67.745
 11
16.8342
 21
67.7394
  0
LINE
  8
0
 10
16.8342
 20
67.7394
 11
16.8125
 21
67.7375
  0
LINE
  8
0
 10
16.8125
 20
67.7375
 11
16
 21
67.7375
  0
LINE
  8
0
 10
16
 20
67.7375
 11
15.9783
 21
67.7394
  0
LINE
  8
0
 10
15.9783
 20
67.7394
 11
15.9572
 21
67.745
  0
LINE
  8
0
 10
15.9572
 20
67.745
 11
15.9375
 21
67.7543
  0
LINE
  8
0
 10
15.9375
 20
67.7543
 11
15.9196
 21
67.7668
  0
LINE
  8
0
 10
15.9196
 20
67.7668
 11
15.9042
 21
67.7822
  0
LINE
  8
0
 10
15.9042
 20
67.7822
 11
15.8917
 21
67.8
  0
LINE
  8
0
 10
15.8917
 20
67.8
 11
15.8825
 21
67.8197
  0
LINE
  8
0
 10
15.8825
 20
67.8197
 11
15.8769
 21
67.8408
  0
LINE
  8
0
 10
15.8769
 20
67.8408
 11
15.875
 21
67.8625
  0
LINE
  8
0
 10
15.875
 20
67.8625
 11
15.8769
 21
67.8842
  0
LINE
  8
0
 10
15.8769
 20
67.8842
 11
15.8825
 21
67.9053
  0
LINE
  8
0
 10
15.8825
 20
67.9053
 11
15.8917
 21
67.925
  0
LINE
  8
0
 10
15.8917
 20
67.925
 11
15.9042
 21
67.9429
  0
LINE
  8
0
 10
15.9042
 20
67.9429
 11
15.9196
 21
67.9583
  0
LINE
  8
0
 10
15.9196
 20
67.9583
 11
15.9375
 21
67.9708
  0
LINE
  8
0
 10
15.9375
 20
67.9708
 11
15.9572
 21
67.98
  0
LINE
  8
0
 10
15.9572
 20
67.98
 11
15.9783
 21
67.9856
  0
LINE
  8
0
 10
15.9783
 20
67.9856
 11
16
 21
67.9875
  0
LINE
  8
0
 10
16
 20
67.9875
 11
16
 21
69.2375
  0
LINE
  8
0
 10
16
 20
69.2375
 11
14.5
 21
69.2375
  0
LINE
  8
0
 10
14.5
 20
69.2375
 11
14.5
 21
65.3
  0
LINE
  8
0
 10
14.5
 20
65.3
 11
33.5
 21
65.3
  0
LINE
  8
0
 10
33.5
 20
65.3
 11
33.5
 21
69.2375
  0
LINE
  8
0
 10
28.75
 20
2.25
 11
28.7283
 21
2.25189
  0
LINE
  8
0
 10
28.7283
 20
2.25189
 11
28.7072
 21
2.25754
  0
LINE
  8
0
 10
28.7072
 20
2.25754
 11
28.6875
 21
2.26674
  0
LINE
  8
0
 10
28.6875
 20
2.26674
 11
28.6696
 21
2.27924
  0
LINE
  8
0
 10
28.6696
 20
2.27924
 11
28.6542
 21
2.29465
  0
LINE
  8
0
 10
28.6542
 20
2.29465
 11
28.6417
 21
2.3125
  0
LINE
  8
0
 10
28.6417
 20
2.3125
 11
28.6325
 21
2.33224
  0
LINE
  8
0
 10
28.6325
 20
2.33224
 11
28.6269
 21
2.35329
  0
LINE
  8
0
 10
28.6269
 20
2.35329
 11
28.625
 21
2.375
  0
LINE
  8
0
 10
28.625
 20
2.375
 11
28.6269
 21
2.3967
  0
LINE
  8
0
 10
28.6269
 20
2.3967
 11
28.6325
 21
2.41774
  0
LINE
  8
0
 10
28.6325
 20
2.41774
 11
28.6417
 21
2.4375
  0
LINE
  8
0
 10
28.6417
 20
2.4375
 11
28.6542
 21
2.45534
  0
LINE
  8
0
 10
28.6542
 20
2.45534
 11
28.6696
 21
2.47075
  0
LINE
  8
0
 10
28.6696
 20
2.47075
 11
28.6875
 21
2.48325
  0
LINE
  8
0
 10
28.6875
 20
2.48325
 11
28.7072
 21
2.49245
  0
LINE
  8
0
 10
28.7072
 20
2.49245
 11
28.7283
 21
2.49809
  0
LINE
  8
0
 10
28.7283
 20
2.49809
 11
28.75
 21
2.5
  0
LINE
  8
0
 10
28.75
 20
2.5
 11
29.5625
 21
2.5
  0
LINE
  8
0
 10
29.5625
 20
2.5
 11
29.5842
 21
2.49809
  0
LINE
  8
0
 10
29.5842
 20
2.49809
 11
29.6052
 21
2.49245
  0
LINE
  8
0
 10
29.6052
 20
2.49245
 11
29.625
 21
2.48325
  0
LINE
  8
0
 10
29.625
 20
2.48325
 11
29.6428
 21
2.47075
  0
LINE
  8
0
 10
29.6428
 20
2.47075
 11
29.6582
 21
2.45534
  0
LINE
  8
0
 10
29.6582
 20
2.45534
 11
29.6707
 21
2.4375
  0
LINE
  8
0
 10
29.6707
 20
2.4375
 11
29.6799
 21
2.41774
  0
LINE
  8
0
 10
29.6799
 20
2.41774
 11
29.6856
 21
2.3967
  0
LINE
  8
0
 10
29.6856
 20
2.3967
 11
29.6875
 21
2.375
  0
LINE
  8
0
 10
29.6875
 20
2.375
 11
29.6856
 21
2.35329
  0
LINE
  8
0
 10
29.6856
 20
2.35329
 11
29.6799
 21
2.33224
  0
LINE
  8
0
 10
29.6799
 20
2.33224
 11
29.6707
 21
2.3125
  0
LINE
  8
0
 10
29.6707
 20
2.3125
 11
29.6582
 21
2.29465
  0
LINE
  8
0
 10
29.6582
 20
2.29465
 11
29.6428
 21
2.27924
  0
LINE
  8
0
 10
29.6428
 20
2.27924
 11
29.625
 21
2.26674
  0
LINE
  8
0
 10
29.625
 20
2.26674
 11
29.6052
 21
2.25754
  0
LINE
  8
0
 10
29.6052
 20
2.25754
 11
29.5842
 21
2.25189
  0
LINE
  8
0
 10
29.5842
 20
2.25189
 11
29.5625
 21
2.25
  0
LINE
  8
0
 10
29.5625
 20
2.25
 11
29.5625
 21
0.5
  0
LINE
  8
0
 10
29.5625
 20
0.5
 11
39.5
 21
0.5
  0
LINE
  8
0
 10
39.5
 20
0.5
 11
39.5
 21
4.25
  0
LINE
  8
0
 10
39.5
 20
4.25
 11
39.4783
 21
4.25189
  0
LINE
  8
0
 10
39.4783
 20
4.25189
 11
39.4572
 21
4.25754
  0
LINE
  8
0
 10
39.4572
 20
4.25754
 11
39.4375
 21
4.26674
  0
LINE
  8
0
 10
39.4375
 20
4.26674
 11
39.4196
 21
4.27924
  0
LINE
  8
0
 10
39.4196
 20
4.27924
 11
39.4042
 21
4.29465
  0
LINE
  8
0
 10
39.4042
 20
4.29465
 11
39.3917
 21
4.3125
  0
LINE
  8
0
 10
39.3917
 20
4.3125
 11
39.3825
 21
4.33224
  0
LINE
  8
0
 10
39.3825
 20
4.33224
 11
39.3769
 21
4.35329
  0
LINE
  8
0
 10
39.3769
 20
4.35329
 11
39.375
 21
4.375
  0
LINE
  8
0
 10
39.375
 20
4.375
 11
39.3769
 21
4.3967
  0
LINE
  8
0
 10
39.3769
 20
4.3967
 11
39.3825
 21
4.41774
  0
LINE
  8
0
 10
39.3825
 20
4.41774
 11
39.3917
 21
4.4375
  0
LINE
  8
0
 10
39.3917
 20
4.4375
 11
39.4042
 21
4.45534
  0
LINE
  8
0
 10
39.4042
 20
4.45534
 11
39.4196
 21
4.47075
  0
LINE
  8
0
 10
39.4196
 20
4.47075
 11
39.4375
 21
4.48325
  0
LINE
  8
0
 10
39.4375
 20
4.48325
 11
39.4572
 21
4.49245
  0
LINE
  8
0
 10
39.4572
 20
4.49245
 11
39.4783
 21
4.49809
  0
LINE
  8
0
 10
39.4783
 20
4.49809
 11
39.5
 21
4.5
  0
LINE
  8
0
 10
39.5
 20
4.5
 11
40.3125
 21
4.5
  0
LINE
  8
0
 10
40.3125
 20
4.5
 11
40.3342
 21
4.49809
  0
LINE
  8
0
 10
40.3342
 20
4.49809
 11
40.3552
 21
4.49245
  0
LINE
  8
0
 10
40.3552
 20
4.49245
 11
40.375
 21
4.48325
  0
LINE
  8
0
 10
40.375
 20
4.48325
 11
40.3928
 21
4.47075
  0
LINE
  8
0
 10
40.3928
 20
4.47075
 11
40.4082
 21
4.45534
  0
LINE
  8
0
 10
40.4082
 20
4.45534
 11
40.4207
 21
4.4375
  0
LINE
  8
0
 10
40.4207
 20
4.4375
 11
40.4299
 21
4.41774
  0
LINE
  8
0
 10
40.4299
 20
4.41774
 11
40.4356
 21
4.3967
  0
LINE
  8
0
 10
40.4356
 20
4.3967
 11
40.4375
 21
4.375
  0
LINE
  8
0
 10
40.4375
 20
4.375
 11
40.4356
 21
4.35329
  0
LINE
  8
0
 10
40.4356
 20
4.35329
 11
40.4299
 21
4.33224
  0
LINE
  8
0
 10
40.4299
 20
4.33224
 11
40.4207
 21
4.3125
  0
LINE
  8
0
 10
40.4207
 20
4.3125
 11
40.4082
 21
4.29465
  0
LINE
  8
0
 10
40.4082
 20
4.29465
 11
40.3928
 21
4.27924
  0
LINE
  8
0
 10
40.3928
 20
4.27924
 11
40.375
 21
4.26674
  0
LINE
  8
0
 10
40.375
 20
4.26674
 11
40.3552
 21
4.25754
  0
LINE
  8
0
 10
40.3552
 20
4.25754
 11
40.3342
 21
4.25189
  0
LINE
  8
0
 10
40.3342
 20
4.25189
 11
40.3125
 21
4.25
  0
LINE
  8
0
 10
40.3125
 20
4.25
 11
40.3125
 21
0.5
  0
LINE
  8
0
 10
40.3125
 20
0.5
 11
47.5
 21
0.5
  0
LINE
  8
0
 10
47.5
 20
0.5
 11
47.5
 21
72.8816
  0
LINE
  8
0
 10
47.5
 20
72.8816
 11
46.0429
 21
73.1059
  0
LINE
  8
0
 10
46.0429
 20
73.1059
 11
45.6626
 21
70.635
  0
LINE
  8
0
 10
45.6626
 20
70.635
 11
45.6211
 21
70.4657
  0
LINE
  8
0
 10
45.6211
 20
70.4657
 11
45.5509
 21
70.3061
  0
LINE
  8
0
 10
45.5509
 20
70.3061
 11
45.4541
 21
70.1612
  0
LINE
  8
0
 10
45.4541
 20
70.1612
 11
45.3335
 21
70.0352
  0
LINE
  8
0
 10
45.3335
 20
70.0352
 11
45.193
 21
69.9322
  0
LINE
  8
0
 10
45.193
 20
69.9322
 11
45.0366
 21
69.8551
  0
LINE
  8
0
 10
45.0366
 20
69.8551
 11
44.8693
 21
69.8063
  0
LINE
  8
0
 10
44.8693
 20
69.8063
 11
44.696
 21
69.7873
  0
LINE
  8
0
 10
44.696
 20
69.7873
 11
44.5221
 21
69.7987
  0
LINE
  8
0
 10
44.5221
 20
69.7987
 11
35.8121
 21
71.1393
  0
LINE
  8
0
 10
35.8121
 20
71.1393
 11
35.7795
 21
71.1415
  0
LINE
  8
0
 10
35.7795
 20
71.1415
 11
35.747
 21
71.1379
  0
LINE
  8
0
 10
35.747
 20
71.1379
 11
35.7157
 21
71.1288
  0
LINE
  8
0
 10
35.7157
 20
71.1288
 11
35.6863
 21
71.1143
  0
LINE
  8
0
 10
35.6863
 20
71.1143
 11
35.66
 21
71.095
  0
LINE
  8
0
 10
35.66
 20
71.095
 11
35.6374
 21
71.0714
  0
LINE
  8
0
 10
35.6374
 20
71.0714
 11
35.6192
 21
71.0442
  0
LINE
  8
0
 10
35.6192
 20
71.0442
 11
35.6061
 21
71.0143
  0
LINE
  8
0
 10
35.6061
 20
71.0143
 11
35.5983
 21
70.9825
  0
LINE
  8
0
 10
35.5983
 20
70.9825
 11
35.5508
 21
70.6737
  0
LINE
  8
0
 10
35.5508
 20
70.6737
 11
35.5732
 21
70.582
  0
LINE
  8
0
 10
35.5732
 20
70.582
 11
35.667
 21
70.4801
  0
LINE
  8
0
 10
35.667
 20
70.4801
 11
35.8313
 21
70.3686
  0
LINE
  8
0
 10
35.8313
 20
70.3686
 11
36.065
 21
70.2485
  0
LINE
  8
0
 10
36.065
 20
70.2485
 11
36.3662
 21
70.1206
  0
LINE
  8
0
 10
36.3662
 20
70.1206
 11
36.7326
 21
69.9859
  0
LINE
  8
0
 10
36.7326
 20
69.9859
 11
37.1616
 21
69.8454
  0
LINE
  8
0
 10
37.1616
 20
69.8454
 11
37.6497
 21
69.7003
  0
LINE
  8
0
 10
37.6497
 20
69.7003
 11
38.1933
 21
69.5515
  0
LINE
  8
0
 10
38.1933
 20
69.5515
 11
38.7882
 21
69.4003
  0
LINE
  8
0
 10
38.7882
 20
69.4003
 11
39.43
 21
69.2478
  0
LINE
  8
0
 10
39.43
 20
69.2478
 11
40.1137
 21
69.0951
  0
LINE
  8
0
 10
40.1137
 20
69.0951
 11
40.8342
 21
68.9435
  0
LINE
  8
0
 10
40.8342
 20
68.9435
 11
41.5859
 21
68.794
  0
LINE
  8
0
 10
41.5859
 20
68.794
 11
42.3631
 21
68.6478
  0
LINE
  8
0
 10
42.3631
 20
68.6478
 11
43.1599
 21
68.5061
  0
LINE
  8
0
 10
43.1599
 20
68.5061
 11
43.9703
 21
68.3698
  0
LINE
  8
0
 10
43.9703
 20
68.3698
 11
44.7881
 21
68.2401
  0
LINE
  8
0
 10
44.7881
 20
68.2401
 11
44.8727
 21
68.2194
  0
LINE
  8
0
 10
44.8727
 20
68.2194
 11
44.9525
 21
68.1843
  0
LINE
  8
0
 10
44.9525
 20
68.1843
 11
45.025
 21
68.1359
  0
LINE
  8
0
 10
45.025
 20
68.1359
 11
45.0879
 21
68.0756
  0
LINE
  8
0
 10
45.0879
 20
68.0756
 11
45.1395
 21
68.0053
  0
LINE
  8
0
 10
45.1395
 20
68.0053
 11
45.178
 21
67.9272
  0
LINE
  8
0
 10
45.178
 20
67.9272
 11
45.2024
 21
67.8435
  0
LINE
  8
0
 10
45.2024
 20
67.8435
 11
45.2119
 21
67.7569
  0
LINE
  8
0
 10
45.2119
 20
67.7569
 11
45.2062
 21
67.6699
  0
LINE
  8
0
 10
45.2062
 20
67.6699
 11
44.8259
 21
65.199
  0
LINE
  8
0
 10
44.8259
 20
65.199
 11
44.7844
 21
65.0297
  0
LINE
  8
0
 10
44.7844
 20
65.0297
 11
44.7142
 21
64.8701
  0
LINE
  8
0
 10
44.7142
 20
64.8701
 11
44.6174
 21
64.7252
  0
LINE
  8
0
 10
44.6174
 20
64.7252
 11
44.4969
 21
64.5993
  0
LINE
  8
0
 10
44.4969
 20
64.5993
 11
44.3563
 21
64.4962
  0
LINE
  8
0
 10
44.3563
 20
64.4962
 11
44.2
 21
64.4191
  0
LINE
  8
0
 10
44.2
 20
64.4191
 11
44.0326
 21
64.3703
  0
LINE
  8
0
 10
44.0326
 20
64.3703
 11
43.8593
 21
64.3513
  0
LINE
  8
0
 10
43.8593
 20
64.3513
 11
43.6854
 21
64.3627
  0
LINE
  8
0
 10
43.6854
 20
64.3627
 11
34.9754
 21
65.7033
  0
LINE
  8
0
 10
34.9754
 20
65.7033
 11
34.9428
 21
65.7055
  0
LINE
  8
0
 10
34.9428
 20
65.7055
 11
34.9104
 21
65.7019
  0
LINE
  8
0
 10
34.9104
 20
65.7019
 11
34.879
 21
65.6928
  0
LINE
  8
0
 10
34.879
 20
65.6928
 11
34.8497
 21
65.6783
  0
LINE
  8
0
 10
34.8497
 20
65.6783
 11
34.8233
 21
65.659
  0
LINE
  8
0
 10
34.8233
 20
65.659
 11
34.8007
 21
65.6354
  0
LINE
  8
0
 10
34.8007
 20
65.6354
 11
34.7825
 21
65.6082
  0
LINE
  8
0
 10
34.7825
 20
65.6082
 11
34.7694
 21
65.5783
  0
LINE
  8
0
 10
34.7694
 20
65.5783
 11
34.7616
 21
65.5465
  0
LINE
  8
0
 10
34.7616
 20
65.5465
 11
34.7141
 21
65.2377
  0
LINE
  8
0
 10
34.7141
 20
65.2377
 11
34.7365
 21
65.146
  0
LINE
  8
0
 10
34.7365
 20
65.146
 11
34.8303
 21
65.0441
  0
LINE
  8
0
 10
34.8303
 20
65.0441
 11
34.9946
 21
64.9326
  0
LINE
  8
0
 10
34.9946
 20
64.9326
 11
35.2283
 21
64.8125
  0
LINE
  8
0
 10
35.2283
 20
64.8125
 11
35.5295
 21
64.6846
  0
LINE
  8
0
 10
35.5295
 20
64.6846
 11
35.896
 21
64.5499
  0
LINE
  8
0
 10
35.896
 20
64.5499
 11
36.3249
 21
64.4094
  0
LINE
  8
0
 10
36.3249
 20
64.4094
 11
36.813
 21
64.2643
  0
LINE
  8
0
 10
36.813
 20
64.2643
 11
37.3566
 21
64.1155
  0
LINE
  8
0
 10
37.3566
 20
64.1155
 11
37.9516
 21
63.9643
  0
LINE
  8
0
 10
37.9516
 20
63.9643
 11
38.5933
 21
63.8118
  0
LINE
  8
0
 10
38.5933
 20
63.8118
 11
39.2771
 21
63.6591
  0
LINE
  8
0
 10
39.2771
 20
63.6591
 11
39.9975
 21
63.5075
  0
LINE
  8
0
 10
39.9975
 20
63.5075
 11
40.7492
 21
63.358
  0
LINE
  8
0
 10
40.7492
 20
63.358
 11
41.5264
 21
63.2119
  0
LINE
  8
0
 10
41.5264
 20
63.2119
 11
42.3232
 21
63.0701
  0
LINE
  8
0
 10
42.3232
 20
63.0701
 11
43.1336
 21
62.9339
  0
LINE
  8
0
 10
43.1336
 20
62.9339
 11
43.9514
 21
62.8041
  0
LINE
  8
0
 10
43.9514
 20
62.8041
 11
44.036
 21
62.7834
  0
LINE
  8
0
 10
44.036
 20
62.7834
 11
44.1158
 21
62.7483
  0
LINE
  8
0
 10
44.1158
 20
62.7483
 11
44.1883
 21
62.6999
  0
LINE
  8
0
 10
44.1883
 20
62.6999
 11
44.2512
 21
62.6396
  0
LINE
  8
0
 10
44.2512
 20
62.6396
 11
44.3028
 21
62.5694
  0
LINE
  8
0
 10
44.3028
 20
62.5694
 11
44.3413
 21
62.4912
  0
LINE
  8
0
 10
44.3413
 20
62.4912
 11
44.3657
 21
62.4075
  0
LINE
  8
0
 10
44.3657
 20
62.4075
 11
44.3752
 21
62.3209
  0
LINE
  8
0
 10
44.3752
 20
62.3209
 11
44.3695
 21
62.2339
  0
LINE
  8
0
 10
44.3695
 20
62.2339
 11
43.9892
 21
59.763
  0
LINE
  8
0
 10
43.9892
 20
59.763
 11
43.9478
 21
59.5937
  0
LINE
  8
0
 10
43.9478
 20
59.5937
 11
43.8776
 21
59.4341
  0
LINE
  8
0
 10
43.8776
 20
59.4341
 11
43.7807
 21
59.2892
  0
LINE
  8
0
 10
43.7807
 20
59.2892
 11
43.6602
 21
59.1633
  0
LINE
  8
0
 10
43.6602
 20
59.1633
 11
43.5196
 21
59.0602
  0
LINE
  8
0
 10
43.5196
 20
59.0602
 11
43.3633
 21
58.9831
  0
LINE
  8
0
 10
43.3633
 20
58.9831
 11
43.1959
 21
58.9343
  0
LINE
  8
0
 10
43.1959
 20
58.9343
 11
43.0226
 21
58.9154
  0
LINE
  8
0
 10
43.0226
 20
58.9154
 11
42.8487
 21
58.9268
  0
LINE
  8
0
 10
42.8487
 20
58.9268
 11
34.1388
 21
60.2673
  0
LINE
  8
0
 10
34.1388
 20
60.2673
 11
34.1062
 21
60.2695
  0
LINE
  8
0
 10
34.1062
 20
60.2695
 11
34.0737
 21
60.2659
  0
LINE
  8
0
 10
34.0737
 20
60.2659
 11
34.0423
 21
60.2568
  0
LINE
  8
0
 10
34.0423
 20
60.2568
 11
34.013
 21
60.2423
  0
LINE
  8
0
 10
34.013
 20
60.2423
 11
33.9866
 21
60.223
  0
LINE
  8
0
 10
33.9866
 20
60.223
 11
33.964
 21
60.1994
  0
LINE
  8
0
 10
33.964
 20
60.1994
 11
33.9459
 21
60.1722
  0
LINE
  8
0
 10
33.9459
 20
60.1722
 11
33.9327
 21
60.1423
  0
LINE
  8
0
 10
33.9327
 20
60.1423
 11
33.9249
 21
60.1105
  0
LINE
  8
0
 10
33.9249
 20
60.1105
 11
33.8774
 21
59.8017
  0
LINE
  8
0
 10
33.8774
 20
59.8017
 11
33.8999
 21
59.71
  0
LINE
  8
0
 10
33.8999
 20
59.71
 11
33.9936
 21
59.6081
  0
LINE
  8
0
 10
33.9936
 20
59.6081
 11
34.158
 21
59.4966
  0
LINE
  8
0
 10
34.158
 20
59.4966
 11
34.3916
 21
59.3765
  0
LINE
  8
0
 10
34.3916
 20
59.3765
 11
34.6928
 21
59.2486
  0
LINE
  8
0
 10
34.6928
 20
59.2486
 11
35.0593
 21
59.1139
  0
LINE
  8
0
 10
35.0593
 20
59.1139
 11
35.4882
 21
58.9734
  0
LINE
  8
0
 10
35.4882
 20
58.9734
 11
35.9763
 21
58.8283
  0
LINE
  8
0
 10
35.9763
 20
58.8283
 11
36.5199
 21
58.6795
  0
LINE
  8
0
 10
36.5199
 20
58.6795
 11
37.1149
 21
58.5283
  0
LINE
  8
0
 10
37.1149
 20
58.5283
 11
37.7567
 21
58.3758
  0
LINE
  8
0
 10
37.7567
 20
58.3758
 11
38.4404
 21
58.2231
  0
LINE
  8
0
 10
38.4404
 20
58.2231
 11
39.1608
 21
58.0715
  0
LINE
  8
0
 10
39.1608
 20
58.0715
 11
39.9125
 21
57.922
  0
LINE
  8
0
 10
39.9125
 20
57.922
 11
40.6897
 21
57.7759
  0
LINE
  8
0
 10
40.6897
 20
57.7759
 11
41.4866
 21
57.6341
  0
LINE
  8
0
 10
41.4866
 20
57.6341
 11
42.2969
 21
57.4979
  0
LINE
  8
0
 10
42.2969
 20
57.4979
 11
43.1147
 21
57.3681
  0
LINE
  8
0
 10
43.1147
 20
57.3681
 11
43.1994
 21
57.3474
  0
LINE
  8
0
 10
43.1994
 20
57.3474
 11
43.2791
 21
57.3123
  0
LINE
  8
0
 10
43.2791
 20
57.3123
 11
43.3516
 21
57.2639
  0
LINE
  8
0
 10
43.3516
 20
57.2639
 11
43.4146
 21
57.2036
  0
LINE
  8
0
 10
43.4146
 20
57.2036
 11
43.4661
 21
57.1334
  0
LINE
  8
0
 10
43.4661
 20
57.1334
 11
43.5047
 21
57.0552
  0
LINE
  8
0
 10
43.5047
 20
57.0552
 11
43.529
 21
56.9715
  0
LINE
  8
0
 10
43.529
 20
56.9715
 11
43.5385
 21
56.8849
  0
LINE
  8
0
 10
43.5385
 20
56.8849
 11
43.5328
 21
56.7979
  0
LINE
  8
0
 10
43.5328
 20
56.7979
 11
43.1525
 21
54.327
  0
LINE
  8
0
 10
43.1525
 20
54.327
 11
43.1111
 21
54.1577
  0
LINE
  8
0
 10
43.1111
 20
54.1577
 11
43.0409
 21
53.9981
  0
LINE
  8
0
 10
43.0409
 20
53.9981
 11
42.944
 21
53.8532
  0
LINE
  8
0
 10
42.944
 20
53.8532
 11
42.8235
 21
53.7273
  0
LINE
  8
0
 10
42.8235
 20
53.7273
 11
42.6829
 21
53.6242
  0
LINE
  8
0
 10
42.6829
 20
53.6242
 11
42.5266
 21
53.5471
  0
LINE
  8
0
 10
42.5266
 20
53.5471
 11
42.3593
 21
53.4983
  0
LINE
  8
0
 10
42.3593
 20
53.4983
 11
42.186
 21
53.4794
  0
LINE
  8
0
 10
42.186
 20
53.4794
 11
42.012
 21
53.4908
  0
LINE
  8
0
 10
42.012
 20
53.4908
 11
33.3021
 21
54.8314
  0
LINE
  8
0
 10
33.3021
 20
54.8314
 11
33.2695
 21
54.8335
  0
LINE
  8
0
 10
33.2695
 20
54.8335
 11
33.237
 21
54.8299
  0
LINE
  8
0
 10
33.237
 20
54.8299
 11
33.2056
 21
54.8208
  0
LINE
  8
0
 10
33.2056
 20
54.8208
 11
33.1763
 21
54.8063
  0
LINE
  8
0
 10
33.1763
 20
54.8063
 11
33.1499
 21
54.787
  0
LINE
  8
0
 10
33.1499
 20
54.787
 11
33.1273
 21
54.7634
  0
LINE
  8
0
 10
33.1273
 20
54.7634
 11
33.1092
 21
54.7362
  0
LINE
  8
0
 10
33.1092
 20
54.7362
 11
33.096
 21
54.7063
  0
LINE
  8
0
 10
33.096
 20
54.7063
 11
33.0883
 21
54.6746
  0
LINE
  8
0
 10
33.0883
 20
54.6746
 11
33.0407
 21
54.3657
  0
LINE
  8
0
 10
33.0407
 20
54.3657
 11
33.0632
 21
54.274
  0
LINE
  8
0
 10
33.0632
 20
54.274
 11
33.157
 21
54.1721
  0
LINE
  8
0
 10
33.157
 20
54.1721
 11
33.3213
 21
54.0607
  0
LINE
  8
0
 10
33.3213
 20
54.0607
 11
33.5549
 21
53.9405
  0
LINE
  8
0
 10
33.5549
 20
53.9405
 11
33.8561
 21
53.8126
  0
LINE
  8
0
 10
33.8561
 20
53.8126
 11
34.2226
 21
53.6779
  0
LINE
  8
0
 10
34.2226
 20
53.6779
 11
34.6515
 21
53.5374
  0
LINE
  8
0
 10
34.6515
 20
53.5374
 11
35.1396
 21
53.3923
  0
LINE
  8
0
 10
35.1396
 20
53.3923
 11
35.6833
 21
53.2435
  0
LINE
  8
0
 10
35.6833
 20
53.2435
 11
36.2782
 21
53.0923
  0
LINE
  8
0
 10
36.2782
 20
53.0923
 11
36.92
 21
52.9398
  0
LINE
  8
0
 10
36.92
 20
52.9398
 11
37.6037
 21
52.7872
  0
LINE
  8
0
 10
37.6037
 20
52.7872
 11
38.3241
 21
52.6355
  0
LINE
  8
0
 10
38.3241
 20
52.6355
 11
39.0758
 21
52.486
  0
LINE
  8
0
 10
39.0758
 20
52.486
 11
39.853
 21
52.3399
  0
LINE
  8
0
 10
39.853
 20
52.3399
 11
40.6499
 21
52.1981
  0
LINE
  8
0
 10
40.6499
 20
52.1981
 11
41.4603
 21
52.0619
  0
LINE
  8
0
 10
41.4603
 20
52.0619
 11
42.278
 21
51.9322
  0
LINE
  8
0
 10
42.278
 20
51.9322
 11
42.3627
 21
51.9115
  0
LINE
  8
0
 10
42.3627
 20
51.9115
 11
42.4425
 21
51.8763
  0
LINE
  8
0
 10
42.4425
 20
51.8763
 11
42.5149
 21
51.8279
  0
LINE
  8
0
 10
42.5149
 20
51.8279
 11
42.5779
 21
51.7677
  0
LINE
  8
0
 10
42.5779
 20
51.7677
 11
42.6294
 21
51.6974
  0
LINE
  8
0
 10
42.6294
 20
51.6974
 11
42.668
 21
51.6192
  0
LINE
  8
0
 10
42.668
 20
51.6192
 11
42.6924
 21
51.5355
  0
LINE
  8
0
 10
42.6924
 20
51.5355
 11
42.7018
 21
51.4489
  0
LINE
  8
0
 10
42.7018
 20
51.4489
 11
42.6962
 21
51.3619
  0
LINE
  8
0
 10
42.6962
 20
51.3619
 11
42.3158
 21
48.891
  0
LINE
  8
0
 10
42.3158
 20
48.891
 11
42.2744
 21
48.7217
  0
LINE
  8
0
 10
42.2744
 20
48.7217
 11
42.2042
 21
48.5621
  0
LINE
  8
0
 10
42.2042
 20
48.5621
 11
42.1074
 21
48.4172
  0
LINE
  8
0
 10
42.1074
 20
48.4172
 11
41.9868
 21
48.2913
  0
LINE
  8
0
 10
41.9868
 20
48.2913
 11
41.8463
 21
48.1882
  0
LINE
  8
0
 10
41.8463
 20
48.1882
 11
41.6899
 21
48.1111
  0
LINE
  8
0
 10
41.6899
 20
48.1111
 11
41.5226
 21
48.0623
  0
LINE
  8
0
 10
41.5226
 20
48.0623
 11
41.3493
 21
48.0434
  0
LINE
  8
0
 10
41.3493
 20
48.0434
 11
41.1754
 21
48.0548
  0
LINE
  8
0
 10
41.1754
 20
48.0548
 11
32.4654
 21
49.3954
  0
LINE
  8
0
 10
32.4654
 20
49.3954
 11
32.4328
 21
49.3975
  0
LINE
  8
0
 10
32.4328
 20
49.3975
 11
32.4003
 21
49.394
  0
LINE
  8
0
 10
32.4003
 20
49.394
 11
32.3689
 21
49.3848
  0
LINE
  8
0
 10
32.3689
 20
49.3848
 11
32.3396
 21
49.3703
  0
LINE
  8
0
 10
32.3396
 20
49.3703
 11
32.3133
 21
49.351
  0
LINE
  8
0
 10
32.3133
 20
49.351
 11
32.2907
 21
49.3274
  0
LINE
  8
0
 10
32.2907
 20
49.3274
 11
32.2725
 21
49.3002
  0
LINE
  8
0
 10
32.2725
 20
49.3002
 11
32.2593
 21
49.2703
  0
LINE
  8
0
 10
32.2593
 20
49.2703
 11
32.2516
 21
49.2386
  0
LINE
  8
0
 10
32.2516
 20
49.2386
 11
32.204
 21
48.9297
  0
LINE
  8
0
 10
32.204
 20
48.9297
 11
32.2265
 21
48.8381
  0
LINE
  8
0
 10
32.2265
 20
48.8381
 11
32.3203
 21
48.7361
  0
LINE
  8
0
 10
32.3203
 20
48.7361
 11
32.4846
 21
48.6247
  0
LINE
  8
0
 10
32.4846
 20
48.6247
 11
32.7183
 21
48.5045
  0
LINE
  8
0
 10
32.7183
 20
48.5045
 11
33.0195
 21
48.3766
  0
LINE
  8
0
 10
33.0195
 20
48.3766
 11
33.3859
 21
48.2419
  0
LINE
  8
0
 10
33.3859
 20
48.2419
 11
33.8148
 21
48.1015
  0
LINE
  8
0
 10
33.8148
 20
48.1015
 11
34.303
 21
47.9563
  0
LINE
  8
0
 10
34.303
 20
47.9563
 11
34.8466
 21
47.8076
  0
LINE
  8
0
 10
34.8466
 20
47.8076
 11
35.4415
 21
47.6563
  0
LINE
  8
0
 10
35.4415
 20
47.6563
 11
36.0833
 21
47.5038
  0
LINE
  8
0
 10
36.0833
 20
47.5038
 11
36.767
 21
47.3512
  0
LINE
  8
0
 10
36.767
 20
47.3512
 11
37.4875
 21
47.1995
  0
LINE
  8
0
 10
37.4875
 20
47.1995
 11
38.2392
 21
47.0501
  0
LINE
  8
0
 10
38.2392
 20
47.0501
 11
39.0164
 21
46.9039
  0
LINE
  8
0
 10
39.0164
 20
46.9039
 11
39.8132
 21
46.7621
  0
LINE
  8
0
 10
39.8132
 20
46.7621
 11
40.6236
 21
46.6259
  0
LINE
  8
0
 10
40.6236
 20
46.6259
 11
41.4413
 21
46.4962
  0
LINE
  8
0
 10
41.4413
 20
46.4962
 11
41.526
 21
46.4755
  0
LINE
  8
0
 10
41.526
 20
46.4755
 11
41.6058
 21
46.4404
  0
LINE
  8
0
 10
41.6058
 20
46.4404
 11
41.6783
 21
46.3919
  0
LINE
  8
0
 10
41.6783
 20
46.3919
 11
41.7412
 21
46.3317
  0
LINE
  8
0
 10
41.7412
 20
46.3317
 11
41.7927
 21
46.2614
  0
LINE
  8
0
 10
41.7927
 20
46.2614
 11
41.8313
 21
46.1832
  0
LINE
  8
0
 10
41.8313
 20
46.1832
 11
41.8557
 21
46.0995
  0
LINE
  8
0
 10
41.8557
 20
46.0995
 11
41.8652
 21
46.0129
  0
LINE
  8
0
 10
41.8652
 20
46.0129
 11
41.8595
 21
45.9259
  0
LINE
  8
0
 10
41.8595
 20
45.9259
 11
41.4792
 21
43.455
  0
LINE
  8
0
 10
41.4792
 20
43.455
 11
41.4377
 21
43.2857
  0
LINE
  8
0
 10
41.4377
 20
43.2857
 11
41.3675
 21
43.1262
  0
LINE
  8
0
 10
41.3675
 20
43.1262
 11
41.2707
 21
42.9812
  0
LINE
  8
0
 10
41.2707
 20
42.9812
 11
41.1501
 21
42.8553
  0
LINE
  8
0
 10
41.1501
 20
42.8553
 11
41.0096
 21
42.7522
  0
LINE
  8
0
 10
41.0096
 20
42.7522
 11
40.8532
 21
42.6751
  0
LINE
  8
0
 10
40.8532
 20
42.6751
 11
40.6859
 21
42.6264
  0
LINE
  8
0
 10
40.6859
 20
42.6264
 11
40.5126
 21
42.6074
  0
LINE
  8
0
 10
40.5126
 20
42.6074
 11
40.3387
 21
42.6188
  0
LINE
  8
0
 10
40.3387
 20
42.6188
 11
31.6287
 21
43.9594
  0
LINE
  8
0
 10
31.6287
 20
43.9594
 11
31.5961
 21
43.9615
  0
LINE
  8
0
 10
31.5961
 20
43.9615
 11
31.5636
 21
43.958
  0
LINE
  8
0
 10
31.5636
 20
43.958
 11
31.5323
 21
43.9488
  0
LINE
  8
0
 10
31.5323
 20
43.9488
 11
31.5029
 21
43.9344
  0
LINE
  8
0
 10
31.5029
 20
43.9344
 11
31.4766
 21
43.915
  0
LINE
  8
0
 10
31.4766
 20
43.915
 11
31.454
 21
43.8914
  0
LINE
  8
0
 10
31.454
 20
43.8914
 11
31.4358
 21
43.8642
  0
LINE
  8
0
 10
31.4358
 20
43.8642
 11
31.4227
 21
43.8343
  0
LINE
  8
0
 10
31.4227
 20
43.8343
 11
31.4149
 21
43.8026
  0
LINE
  8
0
 10
31.4149
 20
43.8026
 11
31.3674
 21
43.4937
  0
LINE
  8
0
 10
31.3674
 20
43.4937
 11
31.3898
 21
43.4021
  0
LINE
  8
0
 10
31.3898
 20
43.4021
 11
31.4836
 21
43.3001
  0
LINE
  8
0
 10
31.4836
 20
43.3001
 11
31.6479
 21
43.1887
  0
LINE
  8
0
 10
31.6479
 20
43.1887
 11
31.8816
 21
43.0685
  0
LINE
  8
0
 10
31.8816
 20
43.0685
 11
32.1828
 21
42.9406
  0
LINE
  8
0
 10
32.1828
 20
42.9406
 11
32.5492
 21
42.8059
  0
LINE
  8
0
 10
32.5492
 20
42.8059
 11
32.9782
 21
42.6655
  0
LINE
  8
0
 10
32.9782
 20
42.6655
 11
33.4663
 21
42.5203
  0
LINE
  8
0
 10
33.4663
 20
42.5203
 11
34.0099
 21
42.3716
  0
LINE
  8
0
 10
34.0099
 20
42.3716
 11
34.6048
 21
42.2204
  0
LINE
  8
0
 10
34.6048
 20
42.2204
 11
35.2466
 21
42.0678
  0
LINE
  8
0
 10
35.2466
 20
42.0678
 11
35.9303
 21
41.9152
  0
LINE
  8
0
 10
35.9303
 20
41.9152
 11
36.6508
 21
41.7635
  0
LINE
  8
0
 10
36.6508
 20
41.7635
 11
37.4025
 21
41.6141
  0
LINE
  8
0
 10
37.4025
 20
41.6141
 11
38.1797
 21
41.4679
  0
LINE
  8
0
 10
38.1797
 20
41.4679
 11
38.9765
 21
41.3262
  0
LINE
  8
0
 10
38.9765
 20
41.3262
 11
39.7869
 21
41.1899
  0
LINE
  8
0
 10
39.7869
 20
41.1899
 11
40.6047
 21
41.0602
  0
LINE
  8
0
 10
40.6047
 20
41.0602
 11
40.6893
 21
41.0395
  0
LINE
  8
0
 10
40.6893
 20
41.0395
 11
40.7691
 21
41.0044
  0
LINE
  8
0
 10
40.7691
 20
41.0044
 11
40.8416
 21
40.9559
  0
LINE
  8
0
 10
40.8416
 20
40.9559
 11
40.9045
 21
40.8957
  0
LINE
  8
0
 10
40.9045
 20
40.8957
 11
40.9561
 21
40.8254
  0
LINE
  8
0
 10
40.9561
 20
40.8254
 11
40.9946
 21
40.7472
  0
LINE
  8
0
 10
40.9946
 20
40.7472
 11
41.019
 21
40.6635
  0
LINE
  8
0
 10
41.019
 20
40.6635
 11
41.0285
 21
40.5769
  0
LINE
  8
0
 10
41.0285
 20
40.5769
 11
41.0228
 21
40.4899
  0
LINE
  8
0
 10
41.0228
 20
40.4899
 11
40.6425
 21
38.019
  0
LINE
  8
0
 10
40.6425
 20
38.019
 11
40.601
 21
37.8497
  0
LINE
  8
0
 10
40.601
 20
37.8497
 11
40.5309
 21
37.6902
  0
LINE
  8
0
 10
40.5309
 20
37.6902
 11
40.434
 21
37.5452
  0
LINE
  8
0
 10
40.434
 20
37.5452
 11
40.3135
 21
37.4193
  0
LINE
  8
0
 10
40.3135
 20
37.4193
 11
40.1729
 21
37.3163
  0
LINE
  8
0
 10
40.1729
 20
37.3163
 11
40.0166
 21
37.2392
  0
LINE
  8
0
 10
40.0166
 20
37.2392
 11
39.8492
 21
37.1904
  0
LINE
  8
0
 10
39.8492
 20
37.1904
 11
39.6759
 21
37.1714
  0
LINE
  8
0
 10
39.6759
 20
37.1714
 11
39.502
 21
37.1828
  0
LINE
  8
0
 10
39.502
 20
37.1828
 11
30.7921
 21
38.5234
  0
LINE
  8
0
 10
30.7921
 20
38.5234
 11
30.7594
 21
38.5255
  0
LINE
  8
0
 10
30.7594
 20
38.5255
 11
30.727
 21
38.522
  0
LINE
  8
0
 10
30.727
 20
38.522
 11
30.6956
 21
38.5128
  0
LINE
  8
0
 10
30.6956
 20
38.5128
 11
30.6663
 21
38.4984
  0
LINE
  8
0
 10
30.6663
 20
38.4984
 11
30.6399
 21
38.479
  0
LINE
  8
0
 10
30.6399
 20
38.479
 11
30.6173
 21
38.4554
  0
LINE
  8
0
 10
30.6173
 20
38.4554
 11
30.5992
 21
38.4283
  0
LINE
  8
0
 10
30.5992
 20
38.4283
 11
30.586
 21
38.3983
  0
LINE
  8
0
 10
30.586
 20
38.3983
 11
30.5782
 21
38.3666
  0
LINE
  8
0
 10
30.5782
 20
38.3666
 11
30.5307
 21
38.0577
  0
LINE
  8
0
 10
30.5307
 20
38.0577
 11
30.5531
 21
37.9661
  0
LINE
  8
0
 10
30.5531
 20
37.9661
 11
30.6469
 21
37.8642
  0
LINE
  8
0
 10
30.6469
 20
37.8642
 11
30.8112
 21
37.7527
  0
LINE
  8
0
 10
30.8112
 20
37.7527
 11
31.0449
 21
37.6325
  0
LINE
  8
0
 10
31.0449
 20
37.6325
 11
31.3461
 21
37.5046
  0
LINE
  8
0
 10
31.3461
 20
37.5046
 11
31.7126
 21
37.3699
  0
LINE
  8
0
 10
31.7126
 20
37.3699
 11
32.1415
 21
37.2295
  0
LINE
  8
0
 10
32.1415
 20
37.2295
 11
32.6296
 21
37.0843
  0
LINE
  8
0
 10
32.6296
 20
37.0843
 11
33.1732
 21
36.9356
  0
LINE
  8
0
 10
33.1732
 20
36.9356
 11
33.7682
 21
36.7844
  0
LINE
  8
0
 10
33.7682
 20
36.7844
 11
34.4099
 21
36.6319
  0
LINE
  8
0
 10
34.4099
 20
36.6319
 11
35.0937
 21
36.4792
  0
LINE
  8
0
 10
35.0937
 20
36.4792
 11
35.8141
 21
36.3276
  0
LINE
  8
0
 10
35.8141
 20
36.3276
 11
36.5658
 21
36.1781
  0
LINE
  8
0
 10
36.5658
 20
36.1781
 11
37.343
 21
36.0319
  0
LINE
  8
0
 10
37.343
 20
36.0319
 11
38.1398
 21
35.8902
  0
LINE
  8
0
 10
38.1398
 20
35.8902
 11
38.9502
 21
35.7539
  0
LINE
  8
0
 10
38.9502
 20
35.7539
 11
39.768
 21
35.6242
  0
LINE
  8
0
 10
39.768
 20
35.6242
 11
39.8526
 21
35.6035
  0
LINE
  8
0
 10
39.8526
 20
35.6035
 11
39.9324
 21
35.5684
  0
LINE
  8
0
 10
39.9324
 20
35.5684
 11
40.0049
 21
35.52
  0
LINE
  8
0
 10
40.0049
 20
35.52
 11
40.0679
 21
35.4597
  0
LINE
  8
0
 10
40.0679
 20
35.4597
 11
40.1194
 21
35.3894
  0
LINE
  8
0
 10
40.1194
 20
35.3894
 11
40.1579
 21
35.3112
  0
LINE
  8
0
 10
40.1579
 20
35.3112
 11
40.1823
 21
35.2276
  0
LINE
  8
0
 10
40.1823
 20
35.2276
 11
40.1918
 21
35.1409
  0
LINE
  8
0
 10
40.1918
 20
35.1409
 11
40.1861
 21
35.054
  0
LINE
  8
0
 10
40.1861
 20
35.054
 11
39.8058
 21
32.5831
  0
LINE
  8
0
 10
39.8058
 20
32.5831
 11
39.7644
 21
32.4137
  0
LINE
  8
0
 10
39.7644
 20
32.4137
 11
39.6942
 21
32.2542
  0
LINE
  8
0
 10
39.6942
 20
32.2542
 11
39.5973
 21
32.1093
  0
LINE
  8
0
 10
39.5973
 20
32.1093
 11
39.4768
 21
31.9833
  0
LINE
  8
0
 10
39.4768
 20
31.9833
 11
39.3362
 21
31.8803
  0
LINE
  8
0
 10
39.3362
 20
31.8803
 11
39.1799
 21
31.8032
  0
LINE
  8
0
 10
39.1799
 20
31.8032
 11
39.0125
 21
31.7544
  0
LINE
  8
0
 10
39.0125
 20
31.7544
 11
38.8392
 21
31.7354
  0
LINE
  8
0
 10
38.8392
 20
31.7354
 11
38.6653
 21
31.7468
  0
LINE
  8
0
 10
38.6653
 20
31.7468
 11
29.9554
 21
33.0874
  0
LINE
  8
0
 10
29.9554
 20
33.0874
 11
29.9228
 21
33.0895
  0
LINE
  8
0
 10
29.9228
 20
33.0895
 11
29.8903
 21
33.086
  0
LINE
  8
0
 10
29.8903
 20
33.086
 11
29.8589
 21
33.0768
  0
LINE
  8
0
 10
29.8589
 20
33.0768
 11
29.8296
 21
33.0624
  0
LINE
  8
0
 10
29.8296
 20
33.0624
 11
29.8032
 21
33.0431
  0
LINE
  8
0
 10
29.8032
 20
33.0431
 11
29.7806
 21
33.0194
  0
LINE
  8
0
 10
29.7806
 20
33.0194
 11
29.7625
 21
32.9923
  0
LINE
  8
0
 10
29.7625
 20
32.9923
 11
29.7493
 21
32.9624
  0
LINE
  8
0
 10
29.7493
 20
32.9624
 11
29.7415
 21
32.9306
  0
LINE
  8
0
 10
29.7415
 20
32.9306
 11
29.694
 21
32.6217
  0
LINE
  8
0
 10
29.694
 20
32.6217
 11
29.7165
 21
32.5301
  0
LINE
  8
0
 10
29.7165
 20
32.5301
 11
29.8102
 21
32.4282
  0
LINE
  8
0
 10
29.8102
 20
32.4282
 11
29.9746
 21
32.3167
  0
LINE
  8
0
 10
29.9746
 20
32.3167
 11
30.2082
 21
32.1965
  0
LINE
  8
0
 10
30.2082
 20
32.1965
 11
30.5094
 21
32.0686
  0
LINE
  8
0
 10
30.5094
 20
32.0686
 11
30.8759
 21
31.9339
  0
LINE
  8
0
 10
30.8759
 20
31.9339
 11
31.3048
 21
31.7935
  0
LINE
  8
0
 10
31.3048
 20
31.7935
 11
31.7929
 21
31.6483
  0
LINE
  8
0
 10
31.7929
 20
31.6483
 11
32.3365
 21
31.4996
  0
LINE
  8
0
 10
32.3365
 20
31.4996
 11
32.9315
 21
31.3484
  0
LINE
  8
0
 10
32.9315
 20
31.3484
 11
33.5733
 21
31.1959
  0
LINE
  8
0
 10
33.5733
 20
31.1959
 11
34.257
 21
31.0432
  0
LINE
  8
0
 10
34.257
 20
31.0432
 11
34.9774
 21
30.8916
  0
LINE
  8
0
 10
34.9774
 20
30.8916
 11
35.7291
 21
30.7421
  0
LINE
  8
0
 10
35.7291
 20
30.7421
 11
36.5063
 21
30.5959
  0
LINE
  8
0
 10
36.5063
 20
30.5959
 11
37.3032
 21
30.4542
  0
LINE
  8
0
 10
37.3032
 20
30.4542
 11
38.1136
 21
30.3179
  0
LINE
  8
0
 10
38.1136
 20
30.3179
 11
38.9313
 21
30.1882
  0
LINE
  8
0
 10
38.9313
 20
30.1882
 11
39.016
 21
30.1675
  0
LINE
  8
0
 10
39.016
 20
30.1675
 11
39.0957
 21
30.1324
  0
LINE
  8
0
 10
39.0957
 20
30.1324
 11
39.1682
 21
30.084
  0
LINE
  8
0
 10
39.1682
 20
30.084
 11
39.2312
 21
30.0237
  0
LINE
  8
0
 10
39.2312
 20
30.0237
 11
39.2827
 21
29.9534
  0
LINE
  8
0
 10
39.2827
 20
29.9534
 11
39.3213
 21
29.8752
  0
LINE
  8
0
 10
39.3213
 20
29.8752
 11
39.3456
 21
29.7916
  0
LINE
  8
0
 10
39.3456
 20
29.7916
 11
39.3551
 21
29.7049
  0
LINE
  8
0
 10
39.3551
 20
29.7049
 11
39.3494
 21
29.618
  0
LINE
  8
0
 10
39.3494
 20
29.618
 11
38.9691
 21
27.1471
  0
LINE
  8
0
 10
38.9691
 20
27.1471
 11
38.9277
 21
26.9778
  0
LINE
  8
0
 10
38.9277
 20
26.9778
 11
38.8575
 21
26.8182
  0
LINE
  8
0
 10
38.8575
 20
26.8182
 11
38.7607
 21
26.6733
  0
LINE
  8
0
 10
38.7607
 20
26.6733
 11
38.6401
 21
26.5473
  0
LINE
  8
0
 10
38.6401
 20
26.5473
 11
38.4995
 21
26.4443
  0
LINE
  8
0
 10
38.4995
 20
26.4443
 11
38.3432
 21
26.3672
  0
LINE
  8
0
 10
38.3432
 20
26.3672
 11
38.1759
 21
26.3184
  0
LINE
  8
0
 10
38.1759
 20
26.3184
 11
38.0026
 21
26.2994
  0
LINE
  8
0
 10
38.0026
 20
26.2994
 11
37.8286
 21
26.3108
  0
LINE
  8
0
 10
37.8286
 20
26.3108
 11
29.1187
 21
27.6514
  0
LINE
  8
0
 10
29.1187
 20
27.6514
 11
29.0861
 21
27.6535
  0
LINE
  8
0
 10
29.0861
 20
27.6535
 11
29.0536
 21
27.65
  0
LINE
  8
0
 10
29.0536
 20
27.65
 11
29.0222
 21
27.6408
  0
LINE
  8
0
 10
29.0222
 20
27.6408
 11
28.9929
 21
27.6264
  0
LINE
  8
0
 10
28.9929
 20
27.6264
 11
28.9666
 21
27.6071
  0
LINE
  8
0
 10
28.9666
 20
27.6071
 11
28.944
 21
27.5835
  0
LINE
  8
0
 10
28.944
 20
27.5835
 11
28.9258
 21
27.5563
  0
LINE
  8
0
 10
28.9258
 20
27.5563
 11
28.9126
 21
27.5264
  0
LINE
  8
0
 10
28.9126
 20
27.5264
 11
28.9049
 21
27.4946
  0
LINE
  8
0
 10
28.9049
 20
27.4946
 11
28.8573
 21
27.1858
  0
LINE
  8
0
 10
28.8573
 20
27.1858
 11
28.8798
 21
27.0941
  0
LINE
  8
0
 10
28.8798
 20
27.0941
 11
28.9736
 21
26.9922
  0
LINE
  8
0
 10
28.9736
 20
26.9922
 11
29.1379
 21
26.8807
  0
LINE
  8
0
 10
29.1379
 20
26.8807
 11
29.3716
 21
26.7606
  0
LINE
  8
0
 10
29.3716
 20
26.7606
 11
29.6727
 21
26.6327
  0
LINE
  8
0
 10
29.6727
 20
26.6327
 11
30.0392
 21
26.498
  0
LINE
  8
0
 10
30.0392
 20
26.498
 11
30.4681
 21
26.3575
  0
LINE
  8
0
 10
30.4681
 20
26.3575
 11
30.9563
 21
26.2123
  0
LINE
  8
0
 10
30.9563
 20
26.2123
 11
31.4999
 21
26.0636
  0
LINE
  8
0
 10
31.4999
 20
26.0636
 11
32.0948
 21
25.9124
  0
LINE
  8
0
 10
32.0948
 20
25.9124
 11
32.7366
 21
25.7599
  0
LINE
  8
0
 10
32.7366
 20
25.7599
 11
33.4203
 21
25.6072
  0
LINE
  8
0
 10
33.4203
 20
25.6072
 11
34.1407
 21
25.4556
  0
LINE
  8
0
 10
34.1407
 20
25.4556
 11
34.8924
 21
25.3061
  0
LINE
  8
0
 10
34.8924
 20
25.3061
 11
35.6696
 21
25.1599
  0
LINE
  8
0
 10
35.6696
 20
25.1599
 11
36.4665
 21
25.0182
  0
LINE
  8
0
 10
36.4665
 20
25.0182
 11
37.2769
 21
24.8819
  0
LINE
  8
0
 10
37.2769
 20
24.8819
 11
38.0946
 21
24.7522
  0
LINE
  8
0
 10
38.0946
 20
24.7522
 11
38.1793
 21
24.7315
  0
LINE
  8
0
 10
38.1793
 20
24.7315
 11
38.2591
 21
24.6964
  0
LINE
  8
0
 10
38.2591
 20
24.6964
 11
38.3315
 21
24.648
  0
LINE
  8
0
 10
38.3315
 20
24.648
 11
38.3945
 21
24.5877
  0
LINE
  8
0
 10
38.3945
 20
24.5877
 11
38.446
 21
24.5174
  0
LINE
  8
0
 10
38.446
 20
24.5174
 11
38.4846
 21
24.4393
  0
LINE
  8
0
 10
38.4846
 20
24.4393
 11
38.509
 21
24.3556
  0
LINE
  8
0
 10
38.509
 20
24.3556
 11
38.5184
 21
24.269
  0
LINE
  8
0
 10
38.5184
 20
24.269
 11
38.5128
 21
24.182
  0
LINE
  8
0
 10
38.5128
 20
24.182
 11
38.1324
 21
21.7111
  0
LINE
  8
0
 10
38.1324
 20
21.7111
 11
38.091
 21
21.5418
  0
LINE
  8
0
 10
38.091
 20
21.5418
 11
38.0208
 21
21.3822
  0
LINE
  8
0
 10
38.0208
 20
21.3822
 11
37.924
 21
21.2373
  0
LINE
  8
0
 10
37.924
 20
21.2373
 11
37.8034
 21
21.1114
  0
LINE
  8
0
 10
37.8034
 20
21.1114
 11
37.6629
 21
21.0083
  0
LINE
  8
0
 10
37.6629
 20
21.0083
 11
37.5065
 21
20.9312
  0
LINE
  8
0
 10
37.5065
 20
20.9312
 11
37.3392
 21
20.8824
  0
LINE
  8
0
 10
37.3392
 20
20.8824
 11
37.1659
 21
20.8634
  0
LINE
  8
0
 10
37.1659
 20
20.8634
 11
36.992
 21
20.8748
  0
LINE
  8
0
 10
36.992
 20
20.8748
 11
28.282
 21
22.2154
  0
LINE
  8
0
 10
28.282
 20
22.2154
 11
28.2494
 21
22.2176
  0
LINE
  8
0
 10
28.2494
 20
22.2176
 11
28.2169
 21
22.214
  0
LINE
  8
0
 10
28.2169
 20
22.214
 11
28.1855
 21
22.2049
  0
LINE
  8
0
 10
28.1855
 20
22.2049
 11
28.1562
 21
22.1904
  0
LINE
  8
0
 10
28.1562
 20
22.1904
 11
28.1299
 21
22.1711
  0
LINE
  8
0
 10
28.1299
 20
22.1711
 11
28.1073
 21
22.1475
  0
LINE
  8
0
 10
28.1073
 20
22.1475
 11
28.0891
 21
22.1203
  0
LINE
  8
0
 10
28.0891
 20
22.1203
 11
28.076
 21
22.0904
  0
LINE
  8
0
 10
28.076
 20
22.0904
 11
28.0682
 21
22.0586
  0
LINE
  8
0
 10
28.0682
 20
22.0586
 11
28.0206
 21
21.7498
  0
LINE
  8
0
 10
28.0206
 20
21.7498
 11
28.0431
 21
21.6581
  0
LINE
  8
0
 10
28.0431
 20
21.6581
 11
28.1369
 21
21.5562
  0
LINE
  8
0
 10
28.1369
 20
21.5562
 11
28.3012
 21
21.4447
  0
LINE
  8
0
 10
28.3012
 20
21.4447
 11
28.5349
 21
21.3246
  0
LINE
  8
0
 10
28.5349
 20
21.3246
 11
28.8361
 21
21.1967
  0
LINE
  8
0
 10
28.8361
 20
21.1967
 11
29.2025
 21
21.062
  0
LINE
  8
0
 10
29.2025
 20
21.062
 11
29.6315
 21
20.9215
  0
LINE
  8
0
 10
29.6315
 20
20.9215
 11
30.1196
 21
20.7764
  0
LINE
  8
0
 10
30.1196
 20
20.7764
 11
30.6632
 21
20.6276
  0
LINE
  8
0
 10
30.6632
 20
20.6276
 11
31.2581
 21
20.4764
  0
LINE
  8
0
 10
31.2581
 20
20.4764
 11
31.8999
 21
20.3239
  0
LINE
  8
0
 10
31.8999
 20
20.3239
 11
32.5836
 21
20.1712
  0
LINE
  8
0
 10
32.5836
 20
20.1712
 11
33.3041
 21
20.0196
  0
LINE
  8
0
 10
33.3041
 20
20.0196
 11
34.0558
 21
19.8701
  0
LINE
  8
0
 10
34.0558
 20
19.8701
 11
34.833
 21
19.724
  0
LINE
  8
0
 10
34.833
 20
19.724
 11
35.6298
 21
19.5822
  0
LINE
  8
0
 10
35.6298
 20
19.5822
 11
36.4402
 21
19.446
  0
LINE
  8
0
 10
36.4402
 20
19.446
 11
37.2579
 21
19.3162
  0
LINE
  8
0
 10
37.2579
 20
19.3162
 11
37.3426
 21
19.2955
  0
LINE
  8
0
 10
37.3426
 20
19.2955
 11
37.4224
 21
19.2604
  0
LINE
  8
0
 10
37.4224
 20
19.2604
 11
37.4949
 21
19.212
  0
LINE
  8
0
 10
37.4949
 20
19.212
 11
37.5578
 21
19.1517
  0
LINE
  8
0
 10
37.5578
 20
19.1517
 11
37.6093
 21
19.0814
  0
LINE
  8
0
 10
37.6093
 20
19.0814
 11
37.6479
 21
19.0033
  0
LINE
  8
0
 10
37.6479
 20
19.0033
 11
37.6723
 21
18.9196
  0
LINE
  8
0
 10
37.6723
 20
18.9196
 11
37.6818
 21
18.833
  0
LINE
  8
0
 10
37.6818
 20
18.833
 11
37.6761
 21
18.746
  0
LINE
  8
0
 10
37.6761
 20
18.746
 11
37.2958
 21
16.2751
  0
LINE
  8
0
 10
37.2958
 20
16.2751
 11
37.2543
 21
16.1058
  0
LINE
  8
0
 10
37.2543
 20
16.1058
 11
37.1841
 21
15.9462
  0
LINE
  8
0
 10
37.1841
 20
15.9462
 11
37.0873
 21
15.8013
  0
LINE
  8
0
 10
37.0873
 20
15.8013
 11
36.9668
 21
15.6754
  0
LINE
  8
0
 10
36.9668
 20
15.6754
 11
36.8262
 21
15.5723
  0
LINE
  8
0
 10
36.8262
 20
15.5723
 11
36.6698
 21
15.4952
  0
LINE
  8
0
 10
36.6698
 20
15.4952
 11
36.5025
 21
15.4464
  0
LINE
  8
0
 10
36.5025
 20
15.4464
 11
36.3292
 21
15.4274
  0
LINE
  8
0
 10
36.3292
 20
15.4274
 11
36.1553
 21
15.4388
  0
LINE
  8
0
 10
36.1553
 20
15.4388
 11
27.4453
 21
16.7794
  0
LINE
  8
0
 10
27.4453
 20
16.7794
 11
27.4127
 21
16.7816
  0
LINE
  8
0
 10
27.4127
 20
16.7816
 11
27.3802
 21
16.778
  0
LINE
  8
0
 10
27.3802
 20
16.778
 11
27.3489
 21
16.7689
  0
LINE
  8
0
 10
27.3489
 20
16.7689
 11
27.3195
 21
16.7544
  0
LINE
  8
0
 10
27.3195
 20
16.7544
 11
27.2932
 21
16.7351
  0
LINE
  8
0
 10
27.2932
 20
16.7351
 11
27.2706
 21
16.7115
  0
LINE
  8
0
 10
27.2706
 20
16.7115
 11
27.2524
 21
16.6843
  0
LINE
  8
0
 10
27.2524
 20
16.6843
 11
27.2393
 21
16.6544
  0
LINE
  8
0
 10
27.2393
 20
16.6544
 11
27.2315
 21
16.6226
  0
LINE
  8
0
 10
27.2315
 20
16.6226
 11
27.184
 21
16.3138
  0
LINE
  8
0
 10
27.184
 20
16.3138
 11
27.2064
 21
16.2221
  0
LINE
  8
0
 10
27.2064
 20
16.2221
 11
27.3002
 21
16.1202
  0
LINE
  8
0
 10
27.3002
 20
16.1202
 11
27.4645
 21
16.0087
  0
LINE
  8
0
 10
27.4645
 20
16.0087
 11
27.6982
 21
15.8886
  0
LINE
  8
0
 10
27.6982
 20
15.8886
 11
27.9994
 21
15.7607
  0
LINE
  8
0
 10
27.9994
 20
15.7607
 11
28.3658
 21
15.626
  0
LINE
  8
0
 10
28.3658
 20
15.626
 11
28.7948
 21
15.4855
  0
LINE
  8
0
 10
28.7948
 20
15.4855
 11
29.2829
 21
15.3404
  0
LINE
  8
0
 10
29.2829
 20
15.3404
 11
29.8265
 21
15.1916
  0
LINE
  8
0
 10
29.8265
 20
15.1916
 11
30.4215
 21
15.0404
  0
LINE
  8
0
 10
30.4215
 20
15.0404
 11
31.0632
 21
14.8879
  0
LINE
  8
0
 10
31.0632
 20
14.8879
 11
31.7469
 21
14.7352
  0
LINE
  8
0
 10
31.7469
 20
14.7352
 11
32.4674
 21
14.5836
  0
LINE
  8
0
 10
32.4674
 20
14.5836
 11
33.2191
 21
14.4341
  0
LINE
  8
0
 10
33.2191
 20
14.4341
 11
33.9963
 21
14.288
  0
LINE
  8
0
 10
33.9963
 20
14.288
 11
34.7931
 21
14.1462
  0
LINE
  8
0
 10
34.7931
 20
14.1462
 11
35.6035
 21
14.01
  0
LINE
  8
0
 10
35.6035
 20
14.01
 11
36.4213
 21
13.8802
  0
LINE
  8
0
 10
36.4213
 20
13.8802
 11
36.5059
 21
13.8595
  0
LINE
  8
0
 10
36.5059
 20
13.8595
 11
36.5857
 21
13.8244
  0
LINE
  8
0
 10
36.5857
 20
13.8244
 11
36.6582
 21
13.776
  0
LINE
  8
0
 10
36.6582
 20
13.776
 11
36.7211
 21
13.7157
  0
LINE
  8
0
 10
36.7211
 20
13.7157
 11
36.7727
 21
13.6454
  0
LINE
  8
0
 10
36.7727
 20
13.6454
 11
36.8112
 21
13.5673
  0
LINE
  8
0
 10
36.8112
 20
13.5673
 11
36.8356
 21
13.4836
  0
LINE
  8
0
 10
36.8356
 20
13.4836
 11
36.8451
 21
13.397
  0
LINE
  8
0
 10
36.8451
 20
13.397
 11
36.8394
 21
13.31
  0
LINE
  8
0
 10
36.8394
 20
13.31
 11
36.4591
 21
10.8391
  0
LINE
  8
0
 10
36.4591
 20
10.8391
 11
36.4177
 21
10.6698
  0
LINE
  8
0
 10
36.4177
 20
10.6698
 11
36.3475
 21
10.5102
  0
LINE
  8
0
 10
36.3475
 20
10.5102
 11
36.2506
 21
10.3653
  0
LINE
  8
0
 10
36.2506
 20
10.3653
 11
36.1301
 21
10.2394
  0
LINE
  8
0
 10
36.1301
 20
10.2394
 11
35.9895
 21
10.1363
  0
LINE
  8
0
 10
35.9895
 20
10.1363
 11
35.8332
 21
10.0592
  0
LINE
  8
0
 10
35.8332
 20
10.0592
 11
35.6658
 21
10.0104
  0
LINE
  8
0
 10
35.6658
 20
10.0104
 11
35.4925
 21
9.99146
  0
LINE
  8
0
 10
35.4925
 20
9.99146
 11
35.3186
 21
10.0029
  0
LINE
  8
0
 10
35.3186
 20
10.0029
 11
26.6087
 21
11.3434
  0
LINE
  8
0
 10
26.6087
 20
11.3434
 11
26.576
 21
11.3456
  0
LINE
  8
0
 10
26.576
 20
11.3456
 11
26.5436
 21
11.342
  0
LINE
  8
0
 10
26.5436
 20
11.342
 11
26.5122
 21
11.3329
  0
LINE
  8
0
 10
26.5122
 20
11.3329
 11
26.4829
 21
11.3184
  0
LINE
  8
0
 10
26.4829
 20
11.3184
 11
26.4565
 21
11.2991
  0
LINE
  8
0
 10
26.4565
 20
11.2991
 11
26.4339
 21
11.2755
  0
LINE
  8
0
 10
26.4339
 20
11.2755
 11
26.4158
 21
11.2483
  0
LINE
  8
0
 10
26.4158
 20
11.2483
 11
26.4026
 21
11.2184
  0
LINE
  8
0
 10
26.4026
 20
11.2184
 11
26.3948
 21
11.1866
  0
LINE
  8
0
 10
26.3948
 20
11.1866
 11
26.3473
 21
10.8778
  0
LINE
  8
0
 10
26.3473
 20
10.8778
 11
26.3698
 21
10.7861
  0
LINE
  8
0
 10
26.3698
 20
10.7861
 11
26.4635
 21
10.6842
  0
LINE
  8
0
 10
26.4635
 20
10.6842
 11
26.6279
 21
10.5727
  0
LINE
  8
0
 10
26.6279
 20
10.5727
 11
26.8615
 21
10.4526
  0
LINE
  8
0
 10
26.8615
 20
10.4526
 11
27.1627
 21
10.3247
  0
LINE
  8
0
 10
27.1627
 20
10.3247
 11
27.5292
 21
10.19
  0
LINE
  8
0
 10
27.5292
 20
10.19
 11
27.9581
 21
10.0495
  0
LINE
  8
0
 10
27.9581
 20
10.0495
 11
28.4462
 21
9.90437
  0
LINE
  8
0
 10
28.4462
 20
9.90437
 11
28.9898
 21
9.75563
  0
LINE
  8
0
 10
28.9898
 20
9.75563
 11
29.5848
 21
9.60443
  0
LINE
  8
0
 10
29.5848
 20
9.60443
 11
30.2265
 21
9.45192
  0
LINE
  8
0
 10
30.2265
 20
9.45192
 11
30.9103
 21
9.29926
  0
LINE
  8
0
 10
30.9103
 20
9.29926
 11
31.6307
 21
9.14761
  0
LINE
  8
0
 10
31.6307
 20
9.14761
 11
32.3824
 21
8.99814
  0
LINE
  8
0
 10
32.3824
 20
8.99814
 11
33.1596
 21
8.85197
  0
LINE
  8
0
 10
33.1596
 20
8.85197
 11
33.9565
 21
8.71022
  0
LINE
  8
0
 10
33.9565
 20
8.71022
 11
34.7668
 21
8.57397
  0
LINE
  8
0
 10
34.7668
 20
8.57397
 11
35.5846
 21
8.44426
  0
LINE
  8
0
 10
35.5846
 20
8.44426
 11
35.6693
 21
8.42354
  0
LINE
  8
0
 10
35.6693
 20
8.42354
 11
35.749
 21
8.38844
  0
LINE
  8
0
 10
35.749
 20
8.38844
 11
35.8215
 21
8.34001
  0
LINE
  8
0
 10
35.8215
 20
8.34001
 11
35.8845
 21
8.27974
  0
LINE
  8
0
 10
35.8845
 20
8.27974
 11
35.936
 21
8.20946
  0
LINE
  8
0
 10
35.936
 20
8.20946
 11
35.9745
 21
8.13129
  0
LINE
  8
0
 10
35.9745
 20
8.13129
 11
35.9989
 21
8.04762
  0
LINE
  8
0
 10
35.9989
 20
8.04762
 11
36.0084
 21
7.96098
  0
LINE
  8
0
 10
36.0084
 20
7.96098
 11
36.0027
 21
7.87401
  0
LINE
  8
0
 10
36.0027
 20
7.87401
 11
35.6224
 21
5.40311
  0
LINE
  8
0
 10
35.6224
 20
5.40311
 11
35.581
 21
5.2338
  0
LINE
  8
0
 10
35.581
 20
5.2338
 11
35.5108
 21
5.07425
  0
LINE
  8
0
 10
35.5108
 20
5.07425
 11
35.4139
 21
4.92931
  0
LINE
  8
0
 10
35.4139
 20
4.92931
 11
35.2934
 21
4.80339
  0
LINE
  8
0
 10
35.2934
 20
4.80339
 11
35.1528
 21
4.70032
  0
LINE
  8
0
 10
35.1528
 20
4.70032
 11
34.9965
 21
4.62323
  0
LINE
  8
0
 10
34.9965
 20
4.62323
 11
34.8291
 21
4.57445
  0
LINE
  8
0
 10
34.8291
 20
4.57445
 11
34.6559
 21
4.55547
  0
LINE
  8
0
 10
34.6559
 20
4.55547
 11
34.4819
 21
4.56686
  0
LINE
  8
0
 10
34.4819
 20
4.56686
 11
25.772
 21
5.90746
  0
LINE
  8
0
 10
25.772
 20
5.90746
 11
25.7394
 21
5.90959
  0
LINE
  8
0
 10
25.7394
 20
5.90959
 11
25.7069
 21
5.90604
  0
LINE
  8
0
 10
25.7069
 20
5.90604
 11
25.6755
 21
5.8969
  0
LINE
  8
0
 10
25.6755
 20
5.8969
 11
25.6462
 21
5.88243
  0
LINE
  8
0
 10
25.6462
 20
5.88243
 11
25.6198
 21
5.86311
  0
LINE
  8
0
 10
25.6198
 20
5.86311
 11
25.5972
 21
5.83951
  0
LINE
  8
0
 10
25.5972
 20
5.83951
 11
25.5791
 21
5.81233
  0
LINE
  8
0
 10
25.5791
 20
5.81233
 11
25.5659
 21
5.78241
  0
LINE
  8
0
 10
25.5659
 20
5.78241
 11
25.5582
 21
5.75066
  0
LINE
  8
0
 10
25.5582
 20
5.75066
 11
24.75
 21
0.5
  0
LINE
  8
0
 10
24.75
 20
0.5
 11
28.75
 21
0.5
  0
LINE
  8
0
 10
28.75
 20
0.5
 11
28.75
 21
2.25
  0
LINE
  8
0
 10
45.25
 20
48.1625
 11
45.2283
 21
48.1644
  0
LINE
  8
0
 10
45.2283
 20
48.1644
 11
45.2072
 21
48.17
  0
LINE
  8
0
 10
45.2072
 20
48.17
 11
45.1875
 21
48.1792
  0
LINE
  8
0
 10
45.1875
 20
48.1792
 11
45.1696
 21
48.1917
  0
LINE
  8
0
 10
45.1696
 20
48.1917
 11
45.1542
 21
48.2072
  0
LINE
  8
0
 10
45.1542
 20
48.2072
 11
45.1417
 21
48.225
  0
LINE
  8
0
 10
45.1417
 20
48.225
 11
45.1325
 21
48.2447
  0
LINE
  8
0
 10
45.1325
 20
48.2447
 11
45.1269
 21
48.2658
  0
LINE
  8
0
 10
45.1269
 20
48.2658
 11
45.125
 21
48.2875
  0
LINE
  8
0
 10
45.125
 20
48.2875
 11
45.1269
 21
48.3092
  0
LINE
  8
0
 10
45.1269
 20
48.3092
 11
45.1325
 21
48.3302
  0
LINE
  8
0
 10
45.1325
 20
48.3302
 11
45.1417
 21
48.35
  0
LINE
  8
0
 10
45.1417
 20
48.35
 11
45.1542
 21
48.3678
  0
LINE
  8
0
 10
45.1542
 20
48.3678
 11
45.1696
 21
48.3833
  0
LINE
  8
0
 10
45.1696
 20
48.3833
 11
45.1875
 21
48.3958
  0
LINE
  8
0
 10
45.1875
 20
48.3958
 11
45.2072
 21
48.405
  0
LINE
  8
0
 10
45.2072
 20
48.405
 11
45.2283
 21
48.4106
  0
LINE
  8
0
 10
45.2283
 20
48.4106
 11
45.25
 21
48.4125
  0
LINE
  8
0
 10
45.25
 20
48.4125
 11
45.25
 21
52.4125
  0
LINE
  8
0
 10
45.25
 20
52.4125
 11
45.2283
 21
52.4144
  0
LINE
  8
0
 10
45.2283
 20
52.4144
 11
45.2072
 21
52.42
  0
LINE
  8
0
 10
45.2072
 20
52.42
 11
45.1875
 21
52.4292
  0
LINE
  8
0
 10
45.1875
 20
52.4292
 11
45.1696
 21
52.4417
  0
LINE
  8
0
 10
45.1696
 20
52.4417
 11
45.1542
 21
52.4572
  0
LINE
  8
0
 10
45.1542
 20
52.4572
 11
45.1417
 21
52.475
  0
LINE
  8
0
 10
45.1417
 20
52.475
 11
45.1325
 21
52.4947
  0
LINE
  8
0
 10
45.1325
 20
52.4947
 11
45.1269
 21
52.5158
  0
LINE
  8
0
 10
45.1269
 20
52.5158
 11
45.125
 21
52.5375
  0
LINE
  8
0
 10
45.125
 20
52.5375
 11
45.1269
 21
52.5592
  0
LINE
  8
0
 10
45.1269
 20
52.5592
 11
45.1325
 21
52.5802
  0
LINE
  8
0
 10
45.1325
 20
52.5802
 11
45.1417
 21
52.6
  0
LINE
  8
0
 10
45.1417
 20
52.6
 11
45.1542
 21
52.6178
  0
LINE
  8
0
 10
45.1542
 20
52.6178
 11
45.1696
 21
52.6333
  0
LINE
  8
0
 10
45.1696
 20
52.6333
 11
45.1875
 21
52.6458
  0
LINE
  8
0
 10
45.1875
 20
52.6458
 11
45.2072
 21
52.655
  0
LINE
  8
0
 10
45.2072
 20
52.655
 11
45.2283
 21
52.6606
  0
LINE
  8
0
 10
45.2283
 20
52.6606
 11
45.25
 21
52.6625
  0
LINE
  8
0
 10
45.25
 20
52.6625
 11
46.0625
 21
52.6625
  0
LINE
  8
0
 10
46.0625
 20
52.6625
 11
46.0842
 21
52.6606
  0
LINE
  8
0
 10
46.0842
 20
52.6606
 11
46.1052
 21
52.655
  0
LINE
  8
0
 10
46.1052
 20
52.655
 11
46.125
 21
52.6458
  0
LINE
  8
0
 10
46.125
 20
52.6458
 11
46.1428
 21
52.6333
  0
LINE
  8
0
 10
46.1428
 20
52.6333
 11
46.1582
 21
52.6178
  0
LINE
  8
0
 10
46.1582
 20
52.6178
 11
46.1707
 21
52.6
  0
LINE
  8
0
 10
46.1707
 20
52.6
 11
46.18
 21
52.5802
  0
LINE
  8
0
 10
46.18
 20
52.5802
 11
46.1856
 21
52.5592
  0
LINE
  8
0
 10
46.1856
 20
52.5592
 11
46.1875
 21
52.5375
  0
LINE
  8
0
 10
46.1875
 20
52.5375
 11
46.1856
 21
52.5158
  0
LINE
  8
0
 10
46.1856
 20
52.5158
 11
46.18
 21
52.4947
  0
LINE
  8
0
 10
46.18
 20
52.4947
 11
46.1707
 21
52.475
  0
LINE
  8
0
 10
46.1707
 20
52.475
 11
46.1582
 21
52.4572
  0
LINE
  8
0
 10
46.1582
 20
52.4572
 11
46.1428
 21
52.4417
  0
LINE
  8
0
 10
46.1428
 20
52.4417
 11
46.125
 21
52.4292
  0
LINE
  8
0
 10
46.125
 20
52.4292
 11
46.1052
 21
52.42
  0
LINE
  8
0
 10
46.1052
 20
52.42
 11
46.0842
 21
52.4144
  0
LINE
  8
0
 10
46.0842
 20
52.4144
 11
46.0625
 21
52.4125
  0
LINE
  8
0
 10
46.0625
 20
52.4125
 11
46.0625
 21
48.4125
  0
LINE
  8
0
 10
46.0625
 20
48.4125
 11
46.0842
 21
48.4106
  0
LINE
  8
0
 10
46.0842
 20
48.4106
 11
46.1052
 21
48.405
  0
LINE
  8
0
 10
46.1052
 20
48.405
 11
46.125
 21
48.3958
  0
LINE
  8
0
 10
46.125
 20
48.3958
 11
46.1428
 21
48.3833
  0
LINE
  8
0
 10
46.1428
 20
48.3833
 11
46.1582
 21
48.3678
  0
LINE
  8
0
 10
46.1582
 20
48.3678
 11
46.1707
 21
48.35
  0
LINE
  8
0
 10
46.1707
 20
48.35
 11
46.18
 21
48.3302
  0
LINE
  8
0
 10
46.18
 20
48.3302
 11
46.1856
 21
48.3092
  0
LINE
  8
0
 10
46.1856
 20
48.3092
 11
46.1875
 21
48.2875
  0
LINE
  8
0
 10
46.1875
 20
48.2875
 11
46.1856
 21
48.2658
  0
LINE
  8
0
 10
46.1856
 20
48.2658
 11
46.18
 21
48.2447
  0
LINE
  8
0
 10
46.18
 20
48.2447
 11
46.1707
 21
48.225
  0
LINE
  8
0
 10
46.1707
 20
48.225
 11
46.1582
 21
48.2072
  0
LINE
  8
0
 10
46.1582
 20
48.2072
 11
46.1428
 21
48.1917
  0
LINE
  8
0
 10
46.1428
 20
48.1917
 11
46.125
 21
48.1792
  0
LINE
  8
0
 10
46.125
 20
48.1792
 11
46.1052
 21
48.17
  0
LINE
  8
0
 10
46.1052
 20
48.17
 11
46.0842
 21
48.1644
  0
LINE
  8
0
 10
46.0842
 20
48.1644
 11
46.0625
 21
48.1625
  0
LINE
  8
0
 10
46.0625
 20
48.1625
 11
45.25
 21
48.1625
  0
LINE
  8
0
 10
45.25
 20
30.9
 11
45.2283
 21
30.9019
  0
LINE
  8
0
 10
45.2283
 20
30.9019
 11
45.2072
 21
30.9075
  0
LINE
  8
0
 10
45.2072
 20
30.9075
 11
45.1875
 21
30.9167
  0
LINE
  8
0
 10
45.1875
 20
30.9167
 11
45.1696
 21
30.9292
  0
LINE
  8
0
 10
45.1696
 20
30.9292
 11
45.1542
 21
30.9446
  0
LINE
  8
0
 10
45.1542
 20
30.9446
 11
45.1417
 21
30.9625
  0
LINE
  8
0
 10
45.1417
 20
30.9625
 11
45.1325
 21
30.9822
  0
LINE
  8
0
 10
45.1325
 20
30.9822
 11
45.1269
 21
31.0033
  0
LINE
  8
0
 10
45.1269
 20
31.0033
 11
45.125
 21
31.025
  0
LINE
  8
0
 10
45.125
 20
31.025
 11
45.1269
 21
31.0467
  0
LINE
  8
0
 10
45.1269
 20
31.0467
 11
45.1325
 21
31.0677
  0
LINE
  8
0
 10
45.1325
 20
31.0677
 11
45.1417
 21
31.0875
  0
LINE
  8
0
 10
45.1417
 20
31.0875
 11
45.1542
 21
31.1053
  0
LINE
  8
0
 10
45.1542
 20
31.1053
 11
45.1696
 21
31.1207
  0
LINE
  8
0
 10
45.1696
 20
31.1207
 11
45.1875
 21
31.1332
  0
LINE
  8
0
 10
45.1875
 20
31.1332
 11
45.2072
 21
31.1425
  0
LINE
  8
0
 10
45.2072
 20
31.1425
 11
45.2283
 21
31.1481
  0
LINE
  8
0
 10
45.2283
 20
31.1481
 11
45.25
 21
31.15
  0
LINE
  8
0
 10
45.25
 20
31.15
 11
45.25
 21
35.15
  0
LINE
  8
0
 10
45.25
 20
35.15
 11
45.2283
 21
35.1519
  0
LINE
  8
0
 10
45.2283
 20
35.1519
 11
45.2072
 21
35.1575
  0
LINE
  8
0
 10
45.2072
 20
35.1575
 11
45.1875
 21
35.1667
  0
LINE
  8
0
 10
45.1875
 20
35.1667
 11
45.1696
 21
35.1792
  0
LINE
  8
0
 10
45.1696
 20
35.1792
 11
45.1542
 21
35.1946
  0
LINE
  8
0
 10
45.1542
 20
35.1946
 11
45.1417
 21
35.2125
  0
LINE
  8
0
 10
45.1417
 20
35.2125
 11
45.1325
 21
35.2322
  0
LINE
  8
0
 10
45.1325
 20
35.2322
 11
45.1269
 21
35.2533
  0
LINE
  8
0
 10
45.1269
 20
35.2533
 11
45.125
 21
35.275
  0
LINE
  8
0
 10
45.125
 20
35.275
 11
45.1269
 21
35.2967
  0
LINE
  8
0
 10
45.1269
 20
35.2967
 11
45.1325
 21
35.3177
  0
LINE
  8
0
 10
45.1325
 20
35.3177
 11
45.1417
 21
35.3375
  0
LINE
  8
0
 10
45.1417
 20
35.3375
 11
45.1542
 21
35.3553
  0
LINE
  8
0
 10
45.1542
 20
35.3553
 11
45.1696
 21
35.3707
  0
LINE
  8
0
 10
45.1696
 20
35.3707
 11
45.1875
 21
35.3833
  0
LINE
  8
0
 10
45.1875
 20
35.3833
 11
45.2072
 21
35.3925
  0
LINE
  8
0
 10
45.2072
 20
35.3925
 11
45.2283
 21
35.3981
  0
LINE
  8
0
 10
45.2283
 20
35.3981
 11
45.25
 21
35.4
  0
LINE
  8
0
 10
45.25
 20
35.4
 11
46.0625
 21
35.4
  0
LINE
  8
0
 10
46.0625
 20
35.4
 11
46.0842
 21
35.3981
  0
LINE
  8
0
 10
46.0842
 20
35.3981
 11
46.1052
 21
35.3925
  0
LINE
  8
0
 10
46.1052
 20
35.3925
 11
46.125
 21
35.3833
  0
LINE
  8
0
 10
46.125
 20
35.3833
 11
46.1428
 21
35.3707
  0
LINE
  8
0
 10
46.1428
 20
35.3707
 11
46.1582
 21
35.3553
  0
LINE
  8
0
 10
46.1582
 20
35.3553
 11
46.1707
 21
35.3375
  0
LINE
  8
0
 10
46.1707
 20
35.3375
 11
46.18
 21
35.3177
  0
LINE
  8
0
 10
46.18
 20
35.3177
 11
46.1856
 21
35.2967
  0
LINE
  8
0
 10
46.1856
 20
35.2967
 11
46.1875
 21
35.275
  0
LINE
  8
0
 10
46.1875
 20
35.275
 11
46.1856
 21
35.2533
  0
LINE
  8
0
 10
46.1856
 20
35.2533
 11
46.18
 21
35.2322
  0
LINE
  8
0
 10
46.18
 20
35.2322
 11
46.1707
 21
35.2125
  0
LINE
  8
0
 10
46.1707
 20
35.2125
 11
46.1582
 21
35.1946
  0
LINE
  8
0
 10
46.1582
 20
35.1946
 11
46.1428
 21
35.1792
  0
LINE
  8
0
 10
46.1428
 20
35.1792
 11
46.125
 21
35.1667
  0
LINE
  8
0
 10
46.125
 20
35.1667
 11
46.1052
 21
35.1575
  0
LINE
  8
0
 10
46.1052
 20
35.1575
 11
46.0842
 21
35.1519
  0
LINE
  8
0
 10
46.0842
 20
35.1519
 11
46.0625
 21
35.15
  0
LINE
  8
0
 10
46.0625
 20
35.15
 11
46.0625
 21
31.15
  0
LINE
  8
0
 10
46.0625
 20
31.15
 11
46.0842
 21
31.1481
  0
LINE
  8
0
 10
46.0842
 20
31.1481
 11
46.1052
 21
31.1425
  0
LINE
  8
0
 10
46.1052
 20
31.1425
 11
46.125
 21
31.1332
  0
LINE
  8
0
 10
46.125
 20
31.1332
 11
46.1428
 21
31.1207
  0
LINE
  8
0
 10
46.1428
 20
31.1207
 11
46.1582
 21
31.1053
  0
LINE
  8
0
 10
46.1582
 20
31.1053
 11
46.1707
 21
31.0875
  0
LINE
  8
0
 10
46.1707
 20
31.0875
 11
46.18
 21
31.0677
  0
LINE
  8
0
 10
46.18
 20
31.0677
 11
46.1856
 21
31.0467
  0
LINE
  8
0
 10
46.1856
 20
31.0467
 11
46.1875
 21
31.025
  0
LINE
  8
0
 10
46.1875
 20
31.025
 11
46.1856
 21
31.0033
  0
LINE
  8
0
 10
46.1856
 20
31.0033
 11
46.18
 21
30.9822
  0
LINE
  8
0
 10
46.18
 20
30.9822
 11
46.1707
 21
30.9625
  0
LINE
  8
0
 10
46.1707
 20
30.9625
 11
46.1582
 21
30.9446
  0
LINE
  8
0
 10
46.1582
 20
30.9446
 11
46.1428
 21
30.9292
  0
LINE
  8
0
 10
46.1428
 20
30.9292
 11
46.125
 21
30.9167
  0
LINE
  8
0
 10
46.125
 20
30.9167
 11
46.1052
 21
30.9075
  0
LINE
  8
0
 10
46.1052
 20
30.9075
 11
46.0842
 21
30.9019
  0
LINE
  8
0
 10
46.0842
 20
30.9019
 11
46.0625
 21
30.9
  0
LINE
  8
0
 10
46.0625
 20
30.9
 11
45.25
 21
30.9
  0
LINE
  8
0
 10
7.6875
 20
4.25
 11
7.6658
 21
4.25189
  0
LINE
  8
0
 10
7.6658
 20
4.25189
 11
7.64476
 21
4.25754
  0
LINE
  8
0
 10
7.64476
 20
4.25754
 11
7.625
 21
4.26674
  0
LINE
  8
0
 10
7.625
 20
4.26674
 11
7.60716
 21
4.27924
  0
LINE
  8
0
 10
7.60716
 20
4.27924
 11
7.59175
 21
4.29465
  0
LINE
  8
0
 10
7.59175
 20
4.29465
 11
7.57925
 21
4.3125
  0
LINE
  8
0
 10
7.57925
 20
4.3125
 11
7.57005
 21
4.33224
  0
LINE
  8
0
 10
7.57005
 20
4.33224
 11
7.56441
 21
4.35329
  0
LINE
  8
0
 10
7.56441
 20
4.35329
 11
7.5625
 21
4.375
  0
LINE
  8
0
 10
7.5625
 20
4.375
 11
7.56441
 21
4.3967
  0
LINE
  8
0
 10
7.56441
 20
4.3967
 11
7.57005
 21
4.41774
  0
LINE
  8
0
 10
7.57005
 20
4.41774
 11
7.57925
 21
4.4375
  0
LINE
  8
0
 10
7.57925
 20
4.4375
 11
7.59175
 21
4.45534
  0
LINE
  8
0
 10
7.59175
 20
4.45534
 11
7.60716
 21
4.47075
  0
LINE
  8
0
 10
7.60716
 20
4.47075
 11
7.625
 21
4.48325
  0
LINE
  8
0
 10
7.625
 20
4.48325
 11
7.64476
 21
4.49245
  0
LINE
  8
0
 10
7.64476
 20
4.49245
 11
7.6658
 21
4.49809
  0
LINE
  8
0
 10
7.6658
 20
4.49809
 11
7.6875
 21
4.5
  0
LINE
  8
0
 10
7.6875
 20
4.5
 11
8.5
 21
4.5
  0
LINE
  8
0
 10
8.5
 20
4.5
 11
8.52171
 21
4.49809
  0
LINE
  8
0
 10
8.52171
 20
4.49809
 11
8.54276
 21
4.49245
  0
LINE
  8
0
 10
8.54276
 20
4.49245
 11
8.5625
 21
4.48325
  0
LINE
  8
0
 10
8.5625
 20
4.48325
 11
8.58035
 21
4.47075
  0
LINE
  8
0
 10
8.58035
 20
4.47075
 11
8.59576
 21
4.45534
  0
LINE
  8
0
 10
8.59576
 20
4.45534
 11
8.60826
 21
4.4375
  0
LINE
  8
0
 10
8.60826
 20
4.4375
 11
8.61746
 21
4.41774
  0
LINE
  8
0
 10
8.61746
 20
4.41774
 11
8.62311
 21
4.3967
  0
LINE
  8
0
 10
8.62311
 20
4.3967
 11
8.625
 21
4.375
  0
LINE
  8
0
 10
8.625
 20
4.375
 11
8.62311
 21
4.35329
  0
LINE
  8
0
 10
8.62311
 20
4.35329
 11
8.61746
 21
4.33224
  0
LINE
  8
0
 10
8.61746
 20
4.33224
 11
8.60826
 21
4.3125
  0
LINE
  8
0
 10
8.60826
 20
4.3125
 11
8.59576
 21
4.29465
  0
LINE
  8
0
 10
8.59576
 20
4.29465
 11
8.58035
 21
4.27924
  0
LINE
  8
0
 10
8.58035
 20
4.27924
 11
8.5625
 21
4.26674
  0
LINE
  8
0
 10
8.5625
 20
4.26674
 11
8.54276
 21
4.25754
  0
LINE
  8
0
 10
8.54276
 20
4.25754
 11
8.52171
 21
4.25189
  0
LINE
  8
0
 10
8.52171
 20
4.25189
 11
8.5
 21
4.25
  0
LINE
  8
0
 10
8.5
 20
4.25
 11
8.5
 21
0.5
  0
LINE
  8
0
 10
8.5
 20
0.5
 11
18.4375
 21
0.5
  0
LINE
  8
0
 10
18.4375
 20
0.5
 11
18.4375
 21
2.25
  0
LINE
  8
0
 10
18.4375
 20
2.25
 11
18.4158
 21
2.25189
  0
LINE
  8
0
 10
18.4158
 20
2.25189
 11
18.3948
 21
2.25754
  0
LINE
  8
0
 10
18.3948
 20
2.25754
 11
18.375
 21
2.26674
  0
LINE
  8
0
 10
18.375
 20
2.26674
 11
18.3572
 21
2.27924
  0
LINE
  8
0
 10
18.3572
 20
2.27924
 11
18.3418
 21
2.29465
  0
LINE
  8
0
 10
18.3418
 20
2.29465
 11
18.3293
 21
2.3125
  0
LINE
  8
0
 10
18.3293
 20
2.3125
 11
18.3201
 21
2.33224
  0
LINE
  8
0
 10
18.3201
 20
2.33224
 11
18.3144
 21
2.35329
  0
LINE
  8
0
 10
18.3144
 20
2.35329
 11
18.3125
 21
2.375
  0
LINE
  8
0
 10
18.3125
 20
2.375
 11
18.3144
 21
2.3967
  0
LINE
  8
0
 10
18.3144
 20
2.3967
 11
18.3201
 21
2.41774
  0
LINE
  8
0
 10
18.3201
 20
2.41774
 11
18.3293
 21
2.4375
  0
LINE
  8
0
 10
18.3293
 20
2.4375
 11
18.3418
 21
2.45534
  0
LINE
  8
0
 10
18.3418
 20
2.45534
 11
18.3572
 21
2.47075
  0
LINE
  8
0
 10
18.3572
 20
2.47075
 11
18.375
 21
2.48325
  0
LINE
  8
0
 10
18.375
 20
2.48325
 11
18.3948
 21
2.49245
  0
LINE
  8
0
 10
18.3948
 20
2.49245
 11
18.4158
 21
2.49809
  0
LINE
  8
0
 10
18.4158
 20
2.49809
 11
18.4375
 21
2.5
  0
LINE
  8
0
 10
18.4375
 20
2.5
 11
19.25
 21
2.5
  0
LINE
  8
0
 10
19.25
 20
2.5
 11
19.2717
 21
2.49809
  0
LINE
  8
0
 10
19.2717
 20
2.49809
 11
19.2928
 21
2.49245
  0
LINE
  8
0
 10
19.2928
 20
2.49245
 11
19.3125
 21
2.48325
  0
LINE
  8
0
 10
19.3125
 20
2.48325
 11
19.3304
 21
2.47075
  0
LINE
  8
0
 10
19.3304
 20
2.47075
 11
19.3458
 21
2.45534
  0
LINE
  8
0
 10
19.3458
 20
2.45534
 11
19.3583
 21
2.4375
  0
LINE
  8
0
 10
19.3583
 20
2.4375
 11
19.3675
 21
2.41774
  0
LINE
  8
0
 10
19.3675
 20
2.41774
 11
19.3731
 21
2.3967
  0
LINE
  8
0
 10
19.3731
 20
2.3967
 11
19.375
 21
2.375
  0
LINE
  8
0
 10
19.375
 20
2.375
 11
19.3731
 21
2.35329
  0
LINE
  8
0
 10
19.3731
 20
2.35329
 11
19.3675
 21
2.33224
  0
LINE
  8
0
 10
19.3675
 20
2.33224
 11
19.3583
 21
2.3125
  0
LINE
  8
0
 10
19.3583
 20
2.3125
 11
19.3458
 21
2.29465
  0
LINE
  8
0
 10
19.3458
 20
2.29465
 11
19.3304
 21
2.27924
  0
LINE
  8
0
 10
19.3304
 20
2.27924
 11
19.3125
 21
2.26674
  0
LINE
  8
0
 10
19.3125
 20
2.26674
 11
19.2928
 21
2.25754
  0
LINE
  8
0
 10
19.2928
 20
2.25754
 11
19.2717
 21
2.25189
  0
LINE
  8
0
 10
19.2717
 20
2.25189
 11
19.25
 21
2.25
  0
LINE
  8
0
 10
19.25
 20
2.25
 11
19.25
 21
0.5
  0
LINE
  8
0
 10
19.25
 20
0.5
 11
23.25
 21
0.5
  0
LINE
  8
0
 10
23.25
 20
0.5
 11
22.4418
 21
5.75066
  0
LINE
  8
0
 10
22.4418
 20
5.75066
 11
22.4341
 21
5.78241
  0
LINE
  8
0
 10
22.4341
 20
5.78241
 11
22.4209
 21
5.81233
  0
LINE
  8
0
 10
22.4209
 20
5.81233
 11
22.4028
 21
5.83951
  0
LINE
  8
0
 10
22.4028
 20
5.83951
 11
22.3802
 21
5.86311
  0
LINE
  8
0
 10
22.3802
 20
5.86311
 11
22.3538
 21
5.88243
  0
LINE
  8
0
 10
22.3538
 20
5.88243
 11
22.3245
 21
5.8969
  0
LINE
  8
0
 10
22.3245
 20
5.8969
 11
22.2931
 21
5.90604
  0
LINE
  8
0
 10
22.2931
 20
5.90604
 11
22.2606
 21
5.90959
  0
LINE
  8
0
 10
22.2606
 20
5.90959
 11
22.228
 21
5.90746
  0
LINE
  8
0
 10
22.228
 20
5.90746
 11
13.5181
 21
4.56686
  0
LINE
  8
0
 10
13.5181
 20
4.56686
 11
13.3441
 21
4.55547
  0
LINE
  8
0
 10
13.3441
 20
4.55547
 11
13.1709
 21
4.57445
  0
LINE
  8
0
 10
13.1709
 20
4.57445
 11
13.0035
 21
4.62323
  0
LINE
  8
0
 10
13.0035
 20
4.62323
 11
12.8472
 21
4.70032
  0
LINE
  8
0
 10
12.8472
 20
4.70032
 11
12.7066
 21
4.80339
  0
LINE
  8
0
 10
12.7066
 20
4.80339
 11
12.5861
 21
4.92931
  0
LINE
  8
0
 10
12.5861
 20
4.92931
 11
12.4892
 21
5.07425
  0
LINE
  8
0
 10
12.4892
 20
5.07425
 11
12.419
 21
5.2338
  0
LINE
  8
0
 10
12.419
 20
5.2338
 11
12.3776
 21
5.40311
  0
LINE
  8
0
 10
12.3776
 20
5.40311
 11
11.9973
 21
7.87401
  0
LINE
  8
0
 10
11.9973
 20
7.87401
 11
11.9916
 21
7.96098
  0
LINE
  8
0
 10
11.9916
 20
7.96098
 11
12.0011
 21
8.04762
  0
LINE
  8
0
 10
12.0011
 20
8.04762
 11
12.0255
 21
8.13129
  0
LINE
  8
0
 10
12.0255
 20
8.13129
 11
12.064
 21
8.20946
  0
LINE
  8
0
 10
12.064
 20
8.20946
 11
12.1155
 21
8.27974
  0
LINE
  8
0
 10
12.1155
 20
8.27974
 11
12.1785
 21
8.34001
  0
LINE
  8
0
 10
12.1785
 20
8.34001
 11
12.251
 21
8.38844
  0
LINE
  8
0
 10
12.251
 20
8.38844
 11
12.3307
 21
8.42354
  0
LINE
  8
0
 10
12.3307
 20
8.42354
 11
12.4154
 21
8.44426
  0
LINE
  8
0
 10
12.4154
 20
8.44426
 11
13.2332
 21
8.57397
  0
LINE
  8
0
 10
13.2332
 20
8.57397
 11
14.0435
 21
8.71022
  0
LINE
  8
0
 10
14.0435
 20
8.71022
 11
14.8404
 21
8.85197
  0
LINE
  8
0
 10
14.8404
 20
8.85197
 11
15.6176
 21
8.99814
  0
LINE
  8
0
 10
15.6176
 20
8.99814
 11
16.3693
 21
9.14761
  0
LINE
  8
0
 10
16.3693
 20
9.14761
 11
17.0897
 21
9.29926
  0
LINE
  8
0
 10
17.0897
 20
9.29926
 11
17.7735
 21
9.45192
  0
LINE
  8
0
 10
17.7735
 20
9.45192
 11
18.4152
 21
9.60443
  0
LINE
  8
0
 10
18.4152
 20
9.60443
 11
19.0102
 21
9.75563
  0
LINE
  8
0
 10
19.0102
 20
9.75563
 11
19.5538
 21
9.90437
  0
LINE
  8
0
 10
19.5538
 20
9.90437
 11
20.0419
 21
10.0495
  0
LINE
  8
0
 10
20.0419
 20
10.0495
 11
20.4708
 21
10.19
  0
LINE
  8
0
 10
20.4708
 20
10.19
 11
20.8373
 21
10.3247
  0
LINE
  8
0
 10
20.8373
 20
10.3247
 11
21.1385
 21
10.4526
  0
LINE
  8
0
 10
21.1385
 20
10.4526
 11
21.3721
 21
10.5727
  0
LINE
  8
0
 10
21.3721
 20
10.5727
 11
21.5365
 21
10.6842
  0
LINE
  8
0
 10
21.5365
 20
10.6842
 11
21.6302
 21
10.7861
  0
LINE
  8
0
 10
21.6302
 20
10.7861
 11
21.6527
 21
10.8778
  0
LINE
  8
0
 10
21.6527
 20
10.8778
 11
21.6052
 21
11.1866
  0
LINE
  8
0
 10
21.6052
 20
11.1866
 11
21.5974
 21
11.2184
  0
LINE
  8
0
 10
21.5974
 20
11.2184
 11
21.5842
 21
11.2483
  0
LINE
  8
0
 10
21.5842
 20
11.2483
 11
21.5661
 21
11.2755
  0
LINE
  8
0
 10
21.5661
 20
11.2755
 11
21.5435
 21
11.2991
  0
LINE
  8
0
 10
21.5435
 20
11.2991
 11
21.5171
 21
11.3184
  0
LINE
  8
0
 10
21.5171
 20
11.3184
 11
21.4878
 21
11.3329
  0
LINE
  8
0
 10
21.4878
 20
11.3329
 11
21.4564
 21
11.342
  0
LINE
  8
0
 10
21.4564
 20
11.342
 11
21.424
 21
11.3456
  0
LINE
  8
0
 10
21.424
 20
11.3456
 11
21.3913
 21
11.3434
  0
LINE
  8
0
 10
21.3913
 20
11.3434
 11
12.6814
 21
10.0029
  0
LINE
  8
0
 10
12.6814
 20
10.0029
 11
12.5075
 21
9.99146
  0
LINE
  8
0
 10
12.5075
 20
9.99146
 11
12.3342
 21
10.0104
  0
LINE
  8
0
 10
12.3342
 20
10.0104
 11
12.1668
 21
10.0592
  0
LINE
  8
0
 10
12.1668
 20
10.0592
 11
12.0105
 21
10.1363
  0
LINE
  8
0
 10
12.0105
 20
10.1363
 11
11.8699
 21
10.2394
  0
LINE
  8
0
 10
11.8699
 20
10.2394
 11
11.7494
 21
10.3653
  0
LINE
  8
0
 10
11.7494
 20
10.3653
 11
11.6525
 21
10.5102
  0
LINE
  8
0
 10
11.6525
 20
10.5102
 11
11.5823
 21
10.6698
  0
LINE
  8
0
 10
11.5823
 20
10.6698
 11
11.5409
 21
10.8391
  0
LINE
  8
0
 10
11.5409
 20
10.8391
 11
11.1606
 21
13.31
  0
LINE
  8
0
 10
11.1606
 20
13.31
 11
11.1549
 21
13.397
  0
LINE
  8
0
 10
11.1549
 20
13.397
 11
11.1644
 21
13.4836
  0
LINE
  8
0
 10
11.1644
 20
13.4836
 11
11.1888
 21
13.5673
  0
LINE
  8
0
 10
11.1888
 20
13.5673
 11
11.2273
 21
13.6454
  0
LINE
  8
0
 10
11.2273
 20
13.6454
 11
11.2789
 21
13.7157
  0
LINE
  8
0
 10
11.2789
 20
13.7157
 11
11.3418
 21
13.776
  0
LINE
  8
0
 10
11.3418
 20
13.776
 11
11.4143
 21
13.8244
  0
LINE
  8
0
 10
11.4143
 20
13.8244
 11
11.4941
 21
13.8595
  0
LINE
  8
0
 10
11.4941
 20
13.8595
 11
11.5787
 21
13.8802
  0
LINE
  8
0
 10
11.5787
 20
13.8802
 11
12.3965
 21
14.01
  0
LINE
  8
0
 10
12.3965
 20
14.01
 11
13.2069
 21
14.1462
  0
LINE
  8
0
 10
13.2069
 20
14.1462
 11
14.0037
 21
14.288
  0
LINE
  8
0
 10
14.0037
 20
14.288
 11
14.7809
 21
14.4341
  0
LINE
  8
0
 10
14.7809
 20
14.4341
 11
15.5326
 21
14.5836
  0
LINE
  8
0
 10
15.5326
 20
14.5836
 11
16.2531
 21
14.7352
  0
LINE
  8
0
 10
16.2531
 20
14.7352
 11
16.9368
 21
14.8879
  0
LINE
  8
0
 10
16.9368
 20
14.8879
 11
17.5785
 21
15.0404
  0
LINE
  8
0
 10
17.5785
 20
15.0404
 11
18.1735
 21
15.1916
  0
LINE
  8
0
 10
18.1735
 20
15.1916
 11
18.7171
 21
15.3404
  0
LINE
  8
0
 10
18.7171
 20
15.3404
 11
19.2052
 21
15.4855
  0
LINE
  8
0
 10
19.2052
 20
15.4855
 11
19.6342
 21
15.626
  0
LINE
  8
0
 10
19.6342
 20
15.626
 11
20.0006
 21
15.7607
  0
LINE
  8
0
 10
20.0006
 20
15.7607
 11
20.3018
 21
15.8886
  0
LINE
  8
0
 10
20.3018
 20
15.8886
 11
20.5355
 21
16.0087
  0
LINE
  8
0
 10
20.5355
 20
16.0087
 11
20.6998
 21
16.1202
  0
LINE
  8
0
 10
20.6998
 20
16.1202
 11
20.7936
 21
16.2221
  0
LINE
  8
0
 10
20.7936
 20
16.2221
 11
20.816
 21
16.3138
  0
LINE
  8
0
 10
20.816
 20
16.3138
 11
20.7685
 21
16.6226
  0
LINE
  8
0
 10
20.7685
 20
16.6226
 11
20.7607
 21
16.6544
  0
LINE
  8
0
 10
20.7607
 20
16.6544
 11
20.7476
 21
16.6843
  0
LINE
  8
0
 10
20.7476
 20
16.6843
 11
20.7294
 21
16.7115
  0
LINE
  8
0
 10
20.7294
 20
16.7115
 11
20.7068
 21
16.7351
  0
LINE
  8
0
 10
20.7068
 20
16.7351
 11
20.6805
 21
16.7544
  0
LINE
  8
0
 10
20.6805
 20
16.7544
 11
20.6511
 21
16.7689
  0
LINE
  8
0
 10
20.6511
 20
16.7689
 11
20.6198
 21
16.778
  0
LINE
  8
0
 10
20.6198
 20
16.778
 11
20.5873
 21
16.7816
  0
LINE
  8
0
 10
20.5873
 20
16.7816
 11
20.5547
 21
16.7794
  0
LINE
  8
0
 10
20.5547
 20
16.7794
 11
11.8447
 21
15.4388
  0
LINE
  8
0
 10
11.8447
 20
15.4388
 11
11.6708
 21
15.4274
  0
LINE
  8
0
 10
11.6708
 20
15.4274
 11
11.4975
 21
15.4464
  0
LINE
  8
0
 10
11.4975
 20
15.4464
 11
11.3302
 21
15.4952
  0
LINE
  8
0
 10
11.3302
 20
15.4952
 11
11.1738
 21
15.5723
  0
LINE
  8
0
 10
11.1738
 20
15.5723
 11
11.0332
 21
15.6754
  0
LINE
  8
0
 10
11.0332
 20
15.6754
 11
10.9127
 21
15.8013
  0
LINE
  8
0
 10
10.9127
 20
15.8013
 11
10.8159
 21
15.9462
  0
LINE
  8
0
 10
10.8159
 20
15.9462
 11
10.7457
 21
16.1058
  0
LINE
  8
0
 10
10.7457
 20
16.1058
 11
10.7042
 21
16.2751
  0
LINE
  8
0
 10
10.7042
 20
16.2751
 11
10.3239
 21
18.746
  0
LINE
  8
0
 10
10.3239
 20
18.746
 11
10.3182
 21
18.833
  0
LINE
  8
0
 10
10.3182
 20
18.833
 11
10.3277
 21
18.9196
  0
LINE
  8
0
 10
10.3277
 20
18.9196
 11
10.3521
 21
19.0033
  0
LINE
  8
0
 10
10.3521
 20
19.0033
 11
10.3907
 21
19.0814
  0
LINE
  8
0
 10
10.3907
 20
19.0814
 11
10.4422
 21
19.1517
  0
LINE
  8
0
 10
10.4422
 20
19.1517
 11
10.5051
 21
19.212
  0
LINE
  8
0
 10
10.5051
 20
19.212
 11
10.5776
 21
19.2604
  0
LINE
  8
0
 10
10.5776
 20
19.2604
 11
10.6574
 21
19.2955
  0
LINE
  8
0
 10
10.6574
 20
19.2955
 11
10.7421
 21
19.3162
  0
LINE
  8
0
 10
10.7421
 20
19.3162
 11
11.5598
 21
19.446
  0
LINE
  8
0
 10
11.5598
 20
19.446
 11
12.3702
 21
19.5822
  0
LINE
  8
0
 10
12.3702
 20
19.5822
 11
13.167
 21
19.724
  0
LINE
  8
0
 10
13.167
 20
19.724
 11
13.9442
 21
19.8701
  0
LINE
  8
0
 10
13.9442
 20
19.8701
 11
14.6959
 21
20.0196
  0
LINE
  8
0
 10
14.6959
 20
20.0196
 11
15.4164
 21
20.1712
  0
LINE
  8
0
 10
15.4164
 20
20.1712
 11
16.1001
 21
20.3239
  0
LINE
  8
0
 10
16.1001
 20
20.3239
 11
16.7419
 21
20.4764
  0
LINE
  8
0
 10
16.7419
 20
20.4764
 11
17.3368
 21
20.6276
  0
LINE
  8
0
 10
17.3368
 20
20.6276
 11
17.8804
 21
20.7764
  0
LINE
  8
0
 10
17.8804
 20
20.7764
 11
18.3685
 21
20.9215
  0
LINE
  8
0
 10
18.3685
 20
20.9215
 11
18.7975
 21
21.062
  0
LINE
  8
0
 10
18.7975
 20
21.062
 11
19.1639
 21
21.1967
  0
LINE
  8
0
 10
19.1639
 20
21.1967
 11
19.4651
 21
21.3246
  0
LINE
  8
0
 10
19.4651
 20
21.3246
 11
19.6988
 21
21.4447
  0
LINE
  8
0
 10
19.6988
 20
21.4447
 11
19.8631
 21
21.5562
  0
LINE
  8
0
 10
19.8631
 20
21.5562
 11
19.9569
 21
21.6581
  0
LINE
  8
0
 10
19.9569
 20
21.6581
 11
19.9794
 21
21.7498
  0
LINE
  8
0
 10
19.9794
 20
21.7498
 11
19.9318
 21
22.0586
  0
LINE
  8
0
 10
19.9318
 20
22.0586
 11
19.924
 21
22.0904
  0
LINE
  8
0
 10
19.924
 20
22.0904
 11
19.9109
 21
22.1203
  0
LINE
  8
0
 10
19.9109
 20
22.1203
 11
19.8927
 21
22.1475
  0
LINE
  8
0
 10
19.8927
 20
22.1475
 11
19.8701
 21
22.1711
  0
LINE
  8
0
 10
19.8701
 20
22.1711
 11
19.8438
 21
22.1904
  0
LINE
  8
0
 10
19.8438
 20
22.1904
 11
19.8145
 21
22.2049
  0
LINE
  8
0
 10
19.8145
 20
22.2049
 11
19.7831
 21
22.214
  0
LINE
  8
0
 10
19.7831
 20
22.214
 11
19.7506
 21
22.2176
  0
LINE
  8
0
 10
19.7506
 20
22.2176
 11
19.718
 21
22.2154
  0
LINE
  8
0
 10
19.718
 20
22.2154
 11
11.008
 21
20.8748
  0
LINE
  8
0
 10
11.008
 20
20.8748
 11
10.8341
 21
20.8634
  0
LINE
  8
0
 10
10.8341
 20
20.8634
 11
10.6608
 21
20.8824
  0
LINE
  8
0
 10
10.6608
 20
20.8824
 11
10.4935
 21
20.9312
  0
LINE
  8
0
 10
10.4935
 20
20.9312
 11
10.3371
 21
21.0083
  0
LINE
  8
0
 10
10.3371
 20
21.0083
 11
10.1966
 21
21.1114
  0
LINE
  8
0
 10
10.1966
 20
21.1114
 11
10.076
 21
21.2373
  0
LINE
  8
0
 10
10.076
 20
21.2373
 11
9.97919
 21
21.3822
  0
LINE
  8
0
 10
9.97919
 20
21.3822
 11
9.90898
 21
21.5418
  0
LINE
  8
0
 10
9.90898
 20
21.5418
 11
9.86755
 21
21.7111
  0
LINE
  8
0
 10
9.86755
 20
21.7111
 11
9.48724
 21
24.182
  0
LINE
  8
0
 10
9.48724
 20
24.182
 11
9.48155
 21
24.269
  0
LINE
  8
0
 10
9.48155
 20
24.269
 11
9.49103
 21
24.3556
  0
LINE
  8
0
 10
9.49103
 20
24.3556
 11
9.51543
 21
24.4393
  0
LINE
  8
0
 10
9.51543
 20
24.4393
 11
9.55397
 21
24.5174
  0
LINE
  8
0
 10
9.55397
 20
24.5174
 11
9.60551
 21
24.5877
  0
LINE
  8
0
 10
9.60551
 20
24.5877
 11
9.66847
 21
24.648
  0
LINE
  8
0
 10
9.66847
 20
24.648
 11
9.74094
 21
24.6964
  0
LINE
  8
0
 10
9.74094
 20
24.6964
 11
9.82071
 21
24.7315
  0
LINE
  8
0
 10
9.82071
 20
24.7315
 11
9.90536
 21
24.7522
  0
LINE
  8
0
 10
9.90536
 20
24.7522
 11
10.7231
 21
24.8819
  0
LINE
  8
0
 10
10.7231
 20
24.8819
 11
11.5335
 21
25.0182
  0
LINE
  8
0
 10
11.5335
 20
25.0182
 11
12.3304
 21
25.1599
  0
LINE
  8
0
 10
12.3304
 20
25.1599
 11
13.1076
 21
25.3061
  0
LINE
  8
0
 10
13.1076
 20
25.3061
 11
13.8593
 21
25.4556
  0
LINE
  8
0
 10
13.8593
 20
25.4556
 11
14.5797
 21
25.6072
  0
LINE
  8
0
 10
14.5797
 20
25.6072
 11
15.2634
 21
25.7599
  0
LINE
  8
0
 10
15.2634
 20
25.7599
 11
15.9052
 21
25.9124
  0
LINE
  8
0
 10
15.9052
 20
25.9124
 11
16.5001
 21
26.0636
  0
LINE
  8
0
 10
16.5001
 20
26.0636
 11
17.0437
 21
26.2123
  0
LINE
  8
0
 10
17.0437
 20
26.2123
 11
17.5319
 21
26.3575
  0
LINE
  8
0
 10
17.5319
 20
26.3575
 11
17.9608
 21
26.498
  0
LINE
  8
0
 10
17.9608
 20
26.498
 11
18.3273
 21
26.6327
  0
LINE
  8
0
 10
18.3273
 20
26.6327
 11
18.6284
 21
26.7606
  0
LINE
  8
0
 10
18.6284
 20
26.7606
 11
18.8621
 21
26.8807
  0
LINE
  8
0
 10
18.8621
 20
26.8807
 11
19.0264
 21
26.9922
  0
LINE
  8
0
 10
19.0264
 20
26.9922
 11
19.1202
 21
27.0941
  0
LINE
  8
0
 10
19.1202
 20
27.0941
 11
19.1427
 21
27.1858
  0
LINE
  8
0
 10
19.1427
 20
27.1858
 11
19.0951
 21
27.4946
  0
LINE
  8
0
 10
19.0951
 20
27.4946
 11
19.0874
 21
27.5264
  0
LINE
  8
0
 10
19.0874
 20
27.5264
 11
19.0742
 21
27.5563
  0
LINE
  8
0
 10
19.0742
 20
27.5563
 11
19.056
 21
27.5835
  0
LINE
  8
0
 10
19.056
 20
27.5835
 11
19.0334
 21
27.6071
  0
LINE
  8
0
 10
19.0334
 20
27.6071
 11
19.0071
 21
27.6264
  0
LINE
  8
0
 10
19.0071
 20
27.6264
 11
18.9778
 21
27.6408
  0
LINE
  8
0
 10
18.9778
 20
27.6408
 11
18.9464
 21
27.65
  0
LINE
  8
0
 10
18.9464
 20
27.65
 11
18.9139
 21
27.6535
  0
LINE
  8
0
 10
18.9139
 20
27.6535
 11
18.8813
 21
27.6514
  0
LINE
  8
0
 10
18.8813
 20
27.6514
 11
10.1714
 21
26.3108
  0
LINE
  8
0
 10
10.1714
 20
26.3108
 11
9.99742
 21
26.2994
  0
LINE
  8
0
 10
9.99742
 20
26.2994
 11
9.82414
 21
26.3184
  0
LINE
  8
0
 10
9.82414
 20
26.3184
 11
9.6568
 21
26.3672
  0
LINE
  8
0
 10
9.6568
 20
26.3672
 11
9.50046
 21
26.4443
  0
LINE
  8
0
 10
9.50046
 20
26.4443
 11
9.35989
 21
26.5473
  0
LINE
  8
0
 10
9.35989
 20
26.5473
 11
9.23935
 21
26.6733
  0
LINE
  8
0
 10
9.23935
 20
26.6733
 11
9.14252
 21
26.8182
  0
LINE
  8
0
 10
9.14252
 20
26.8182
 11
9.07231
 21
26.9778
  0
LINE
  8
0
 10
9.07231
 20
26.9778
 11
9.03087
 21
27.1471
  0
LINE
  8
0
 10
9.03087
 20
27.1471
 11
8.65057
 21
29.618
  0
LINE
  8
0
 10
8.65057
 20
29.618
 11
8.64487
 21
29.7049
  0
LINE
  8
0
 10
8.64487
 20
29.7049
 11
8.65436
 21
29.7916
  0
LINE
  8
0
 10
8.65436
 20
29.7916
 11
8.67874
 21
29.8752
  0
LINE
  8
0
 10
8.67874
 20
29.8752
 11
8.7173
 21
29.9534
  0
LINE
  8
0
 10
8.7173
 20
29.9534
 11
8.76883
 21
30.0237
  0
LINE
  8
0
 10
8.76883
 20
30.0237
 11
8.83179
 21
30.084
  0
LINE
  8
0
 10
8.83179
 20
30.084
 11
8.90425
 21
30.1324
  0
LINE
  8
0
 10
8.90425
 20
30.1324
 11
8.98402
 21
30.1675
  0
LINE
  8
0
 10
8.98402
 20
30.1675
 11
9.06868
 21
30.1882
  0
LINE
  8
0
 10
9.06868
 20
30.1882
 11
9.88644
 21
30.3179
  0
LINE
  8
0
 10
9.88644
 20
30.3179
 11
10.6968
 21
30.4542
  0
LINE
  8
0
 10
10.6968
 20
30.4542
 11
11.4937
 21
30.5959
  0
LINE
  8
0
 10
11.4937
 20
30.5959
 11
12.2709
 21
30.7421
  0
LINE
  8
0
 10
12.2709
 20
30.7421
 11
13.0226
 21
30.8916
  0
LINE
  8
0
 10
13.0226
 20
30.8916
 11
13.743
 21
31.0432
  0
LINE
  8
0
 10
13.743
 20
31.0432
 11
14.4267
 21
31.1959
  0
LINE
  8
0
 10
14.4267
 20
31.1959
 11
15.0685
 21
31.3484
  0
LINE
  8
0
 10
15.0685
 20
31.3484
 11
15.6635
 21
31.4996
  0
LINE
  8
0
 10
15.6635
 20
31.4996
 11
16.2071
 21
31.6483
  0
LINE
  8
0
 10
16.2071
 20
31.6483
 11
16.6952
 21
31.7935
  0
LINE
  8
0
 10
16.6952
 20
31.7935
 11
17.1241
 21
31.9339
  0
LINE
  8
0
 10
17.1241
 20
31.9339
 11
17.4906
 21
32.0686
  0
LINE
  8
0
 10
17.4906
 20
32.0686
 11
17.7918
 21
32.1965
  0
LINE
  8
0
 10
17.7918
 20
32.1965
 11
18.0254
 21
32.3167
  0
LINE
  8
0
 10
18.0254
 20
32.3167
 11
18.1898
 21
32.4282
  0
LINE
  8
0
 10
18.1898
 20
32.4282
 11
18.2835
 21
32.5301
  0
LINE
  8
0
 10
18.2835
 20
32.5301
 11
18.306
 21
32.6217
  0
LINE
  8
0
 10
18.306
 20
32.6217
 11
18.2585
 21
32.9306
  0
LINE
  8
0
 10
18.2585
 20
32.9306
 11
18.2507
 21
32.9624
  0
LINE
  8
0
 10
18.2507
 20
32.9624
 11
18.2375
 21
32.9923
  0
LINE
  8
0
 10
18.2375
 20
32.9923
 11
18.2194
 21
33.0194
  0
LINE
  8
0
 10
18.2194
 20
33.0194
 11
18.1968
 21
33.0431
  0
LINE
  8
0
 10
18.1968
 20
33.0431
 11
18.1704
 21
33.0624
  0
LINE
  8
0
 10
18.1704
 20
33.0624
 11
18.1411
 21
33.0768
  0
LINE
  8
0
 10
18.1411
 20
33.0768
 11
18.1097
 21
33.086
  0
LINE
  8
0
 10
18.1097
 20
33.086
 11
18.0772
 21
33.0895
  0
LINE
  8
0
 10
18.0772
 20
33.0895
 11
18.0446
 21
33.0874
  0
LINE
  8
0
 10
18.0446
 20
33.0874
 11
9.33469
 21
31.7468
  0
LINE
  8
0
 10
9.33469
 20
31.7468
 11
9.16075
 21
31.7354
  0
LINE
  8
0
 10
9.16075
 20
31.7354
 11
8.98747
 21
31.7544
  0
LINE
  8
0
 10
8.98747
 20
31.7544
 11
8.82011
 21
31.8032
  0
LINE
  8
0
 10
8.82011
 20
31.8032
 11
8.66379
 21
31.8803
  0
LINE
  8
0
 10
8.66379
 20
31.8803
 11
8.52321
 21
31.9833
  0
LINE
  8
0
 10
8.52321
 20
31.9833
 11
8.40268
 21
32.1093
  0
LINE
  8
0
 10
8.40268
 20
32.1093
 11
8.30583
 21
32.2542
  0
LINE
  8
0
 10
8.30583
 20
32.2542
 11
8.23563
 21
32.4137
  0
LINE
  8
0
 10
8.23563
 20
32.4137
 11
8.1942
 21
32.5831
  0
LINE
  8
0
 10
8.1942
 20
32.5831
 11
7.81389
 21
35.054
  0
LINE
  8
0
 10
7.81389
 20
35.054
 11
7.80818
 21
35.1409
  0
LINE
  8
0
 10
7.80818
 20
35.1409
 11
7.81767
 21
35.2276
  0
LINE
  8
0
 10
7.81767
 20
35.2276
 11
7.84207
 21
35.3112
  0
LINE
  8
0
 10
7.84207
 20
35.3112
 11
7.88062
 21
35.3894
  0
LINE
  8
0
 10
7.88062
 20
35.3894
 11
7.93214
 21
35.4597
  0
LINE
  8
0
 10
7.93214
 20
35.4597
 11
7.9951
 21
35.52
  0
LINE
  8
0
 10
7.9951
 20
35.52
 11
8.06758
 21
35.5684
  0
LINE
  8
0
 10
8.06758
 20
35.5684
 11
8.14735
 21
35.6035
  0
LINE
  8
0
 10
8.14735
 20
35.6035
 11
8.23201
 21
35.6242
  0
LINE
  8
0
 10
8.23201
 20
35.6242
 11
9.04977
 21
35.7539
  0
LINE
  8
0
 10
9.04977
 20
35.7539
 11
9.86015
 21
35.8902
  0
LINE
  8
0
 10
9.86015
 20
35.8902
 11
10.657
 21
36.0319
  0
LINE
  8
0
 10
10.657
 20
36.0319
 11
11.4342
 21
36.1781
  0
LINE
  8
0
 10
11.4342
 20
36.1781
 11
12.1859
 21
36.3276
  0
LINE
  8
0
 10
12.1859
 20
36.3276
 11
12.9063
 21
36.4792
  0
LINE
  8
0
 10
12.9063
 20
36.4792
 11
13.5901
 21
36.6319
  0
LINE
  8
0
 10
13.5901
 20
36.6319
 11
14.2318
 21
36.7844
  0
LINE
  8
0
 10
14.2318
 20
36.7844
 11
14.8268
 21
36.9356
  0
LINE
  8
0
 10
14.8268
 20
36.9356
 11
15.3704
 21
37.0843
  0
LINE
  8
0
 10
15.3704
 20
37.0843
 11
15.8585
 21
37.2295
  0
LINE
  8
0
 10
15.8585
 20
37.2295
 11
16.2874
 21
37.3699
  0
LINE
  8
0
 10
16.2874
 20
37.3699
 11
16.6539
 21
37.5046
  0
LINE
  8
0
 10
16.6539
 20
37.5046
 11
16.9551
 21
37.6325
  0
LINE
  8
0
 10
16.9551
 20
37.6325
 11
17.1888
 21
37.7527
  0
LINE
  8
0
 10
17.1888
 20
37.7527
 11
17.3531
 21
37.8642
  0
LINE
  8
0
 10
17.3531
 20
37.8642
 11
17.4469
 21
37.9661
  0
LINE
  8
0
 10
17.4469
 20
37.9661
 11
17.4693
 21
38.0577
  0
LINE
  8
0
 10
17.4693
 20
38.0577
 11
17.4218
 21
38.3666
  0
LINE
  8
0
 10
17.4218
 20
38.3666
 11
17.414
 21
38.3983
  0
LINE
  8
0
 10
17.414
 20
38.3983
 11
17.4008
 21
38.4283
  0
LINE
  8
0
 10
17.4008
 20
38.4283
 11
17.3827
 21
38.4554
  0
LINE
  8
0
 10
17.3827
 20
38.4554
 11
17.3601
 21
38.479
  0
LINE
  8
0
 10
17.3601
 20
38.479
 11
17.3337
 21
38.4984
  0
LINE
  8
0
 10
17.3337
 20
38.4984
 11
17.3044
 21
38.5128
  0
LINE
  8
0
 10
17.3044
 20
38.5128
 11
17.273
 21
38.522
  0
LINE
  8
0
 10
17.273
 20
38.522
 11
17.2406
 21
38.5255
  0
LINE
  8
0
 10
17.2406
 20
38.5255
 11
17.2079
 21
38.5234
  0
LINE
  8
0
 10
17.2079
 20
38.5234
 11
8.498
 21
37.1828
  0
LINE
  8
0
 10
8.498
 20
37.1828
 11
8.32407
 21
37.1714
  0
LINE
  8
0
 10
8.32407
 20
37.1714
 11
8.15079
 21
37.1904
  0
LINE
  8
0
 10
8.15079
 20
37.1904
 11
7.98344
 21
37.2392
  0
LINE
  8
0
 10
7.98344
 20
37.2392
 11
7.8271
 21
37.3163
  0
LINE
  8
0
 10
7.8271
 20
37.3163
 11
7.68654
 21
37.4193
  0
LINE
  8
0
 10
7.68654
 20
37.4193
 11
7.56599
 21
37.5452
  0
LINE
  8
0
 10
7.56599
 20
37.5452
 11
7.46915
 21
37.6902
  0
LINE
  8
0
 10
7.46915
 20
37.6902
 11
7.39896
 21
37.8497
  0
LINE
  8
0
 10
7.39896
 20
37.8497
 11
7.35751
 21
38.019
  0
LINE
  8
0
 10
7.35751
 20
38.019
 11
6.9772
 21
40.4899
  0
LINE
  8
0
 10
6.9772
 20
40.4899
 11
6.97151
 21
40.5769
  0
LINE
  8
0
 10
6.97151
 20
40.5769
 11
6.981
 21
40.6635
  0
LINE
  8
0
 10
6.981
 20
40.6635
 11
7.00539
 21
40.7472
  0
LINE
  8
0
 10
7.00539
 20
40.7472
 11
7.04393
 21
40.8254
  0
LINE
  8
0
 10
7.04393
 20
40.8254
 11
7.09547
 21
40.8957
  0
LINE
  8
0
 10
7.09547
 20
40.8957
 11
7.15843
 21
40.9559
  0
LINE
  8
0
 10
7.15843
 20
40.9559
 11
7.2309
 21
41.0044
  0
LINE
  8
0
 10
7.2309
 20
41.0044
 11
7.31067
 21
41.0395
  0
LINE
  8
0
 10
7.31067
 20
41.0395
 11
7.39532
 21
41.0602
  0
LINE
  8
0
 10
7.39532
 20
41.0602
 11
8.21309
 21
41.1899
  0
LINE
  8
0
 10
8.21309
 20
41.1899
 11
9.02348
 21
41.3262
  0
LINE
  8
0
 10
9.02348
 20
41.3262
 11
9.82031
 21
41.4679
  0
LINE
  8
0
 10
9.82031
 20
41.4679
 11
10.5975
 21
41.6141
  0
LINE
  8
0
 10
10.5975
 20
41.6141
 11
11.3492
 21
41.7635
  0
LINE
  8
0
 10
11.3492
 20
41.7635
 11
12.0697
 21
41.9152
  0
LINE
  8
0
 10
12.0697
 20
41.9152
 11
12.7534
 21
42.0678
  0
LINE
  8
0
 10
12.7534
 20
42.0678
 11
13.3952
 21
42.2204
  0
LINE
  8
0
 10
13.3952
 20
42.2204
 11
13.9901
 21
42.3716
  0
LINE
  8
0
 10
13.9901
 20
42.3716
 11
14.5337
 21
42.5203
  0
LINE
  8
0
 10
14.5337
 20
42.5203
 11
15.0218
 21
42.6655
  0
LINE
  8
0
 10
15.0218
 20
42.6655
 11
15.4508
 21
42.8059
  0
LINE
  8
0
 10
15.4508
 20
42.8059
 11
15.8172
 21
42.9406
  0
LINE
  8
0
 10
15.8172
 20
42.9406
 11
16.1184
 21
43.0685
  0
LINE
  8
0
 10
16.1184
 20
43.0685
 11
16.3521
 21
43.1887
  0
LINE
  8
0
 10
16.3521
 20
43.1887
 11
16.5164
 21
43.3001
  0
LINE
  8
0
 10
16.5164
 20
43.3001
 11
16.6102
 21
43.4021
  0
LINE
  8
0
 10
16.6102
 20
43.4021
 11
16.6326
 21
43.4937
  0
LINE
  8
0
 10
16.6326
 20
43.4937
 11
16.5851
 21
43.8026
  0
LINE
  8
0
 10
16.5851
 20
43.8026
 11
16.5773
 21
43.8343
  0
LINE
  8
0
 10
16.5773
 20
43.8343
 11
16.5642
 21
43.8642
  0
LINE
  8
0
 10
16.5642
 20
43.8642
 11
16.546
 21
43.8914
  0
LINE
  8
0
 10
16.546
 20
43.8914
 11
16.5234
 21
43.915
  0
LINE
  8
0
 10
16.5234
 20
43.915
 11
16.4971
 21
43.9344
  0
LINE
  8
0
 10
16.4971
 20
43.9344
 11
16.4677
 21
43.9488
  0
LINE
  8
0
 10
16.4677
 20
43.9488
 11
16.4364
 21
43.958
  0
LINE
  8
0
 10
16.4364
 20
43.958
 11
16.4039
 21
43.9615
  0
LINE
  8
0
 10
16.4039
 20
43.9615
 11
16.3713
 21
43.9594
  0
LINE
  8
0
 10
16.3713
 20
43.9594
 11
7.66133
 21
42.6188
  0
LINE
  8
0
 10
7.66133
 20
42.6188
 11
7.48738
 21
42.6074
  0
LINE
  8
0
 10
7.48738
 20
42.6074
 11
7.31412
 21
42.6264
  0
LINE
  8
0
 10
7.31412
 20
42.6264
 11
7.14676
 21
42.6751
  0
LINE
  8
0
 10
7.14676
 20
42.6751
 11
6.99043
 21
42.7522
  0
LINE
  8
0
 10
6.99043
 20
42.7522
 11
6.84985
 21
42.8553
  0
LINE
  8
0
 10
6.84985
 20
42.8553
 11
6.72931
 21
42.9812
  0
LINE
  8
0
 10
6.72931
 20
42.9812
 11
6.63248
 21
43.1262
  0
LINE
  8
0
 10
6.63248
 20
43.1262
 11
6.56227
 21
43.2857
  0
LINE
  8
0
 10
6.56227
 20
43.2857
 11
6.52084
 21
43.455
  0
LINE
  8
0
 10
6.52084
 20
43.455
 11
6.14053
 21
45.9259
  0
LINE
  8
0
 10
6.14053
 20
45.9259
 11
6.13483
 21
46.0129
  0
LINE
  8
0
 10
6.13483
 20
46.0129
 11
6.14432
 21
46.0995
  0
LINE
  8
0
 10
6.14432
 20
46.0995
 11
6.1687
 21
46.1832
  0
LINE
  8
0
 10
6.1687
 20
46.1832
 11
6.20726
 21
46.2614
  0
LINE
  8
0
 10
6.20726
 20
46.2614
 11
6.25879
 21
46.3317
  0
LINE
  8
0
 10
6.25879
 20
46.3317
 11
6.32175
 21
46.3919
  0
LINE
  8
0
 10
6.32175
 20
46.3919
 11
6.39421
 21
46.4404
  0
LINE
  8
0
 10
6.39421
 20
46.4404
 11
6.474
 21
46.4755
  0
LINE
  8
0
 10
6.474
 20
46.4755
 11
6.55865
 21
46.4962
  0
LINE
  8
0
 10
6.55865
 20
46.4962
 11
7.37642
 21
46.6259
  0
LINE
  8
0
 10
7.37642
 20
46.6259
 11
8.1868
 21
46.7621
  0
LINE
  8
0
 10
8.1868
 20
46.7621
 11
8.98363
 21
46.9039
  0
LINE
  8
0
 10
8.98363
 20
46.9039
 11
9.76085
 21
47.0501
  0
LINE
  8
0
 10
9.76085
 20
47.0501
 11
10.5125
 21
47.1995
  0
LINE
  8
0
 10
10.5125
 20
47.1995
 11
11.233
 21
47.3512
  0
LINE
  8
0
 10
11.233
 20
47.3512
 11
11.9167
 21
47.5038
  0
LINE
  8
0
 10
11.9167
 20
47.5038
 11
12.5585
 21
47.6563
  0
LINE
  8
0
 10
12.5585
 20
47.6563
 11
13.1534
 21
47.8076
  0
LINE
  8
0
 10
13.1534
 20
47.8076
 11
13.697
 21
47.9563
  0
LINE
  8
0
 10
13.697
 20
47.9563
 11
14.1852
 21
48.1015
  0
LINE
  8
0
 10
14.1852
 20
48.1015
 11
14.6141
 21
48.2419
  0
LINE
  8
0
 10
14.6141
 20
48.2419
 11
14.9805
 21
48.3766
  0
LINE
  8
0
 10
14.9805
 20
48.3766
 11
15.2817
 21
48.5045
  0
LINE
  8
0
 10
15.2817
 20
48.5045
 11
15.5154
 21
48.6247
  0
LINE
  8
0
 10
15.5154
 20
48.6247
 11
15.6797
 21
48.7361
  0
LINE
  8
0
 10
15.6797
 20
48.7361
 11
15.7735
 21
48.8381
  0
LINE
  8
0
 10
15.7735
 20
48.8381
 11
15.796
 21
48.9297
  0
LINE
  8
0
 10
15.796
 20
48.9297
 11
15.7484
 21
49.2386
  0
LINE
  8
0
 10
15.7484
 20
49.2386
 11
15.7407
 21
49.2703
  0
LINE
  8
0
 10
15.7407
 20
49.2703
 11
15.7275
 21
49.3002
  0
LINE
  8
0
 10
15.7275
 20
49.3002
 11
15.7093
 21
49.3274
  0
LINE
  8
0
 10
15.7093
 20
49.3274
 11
15.6867
 21
49.351
  0
LINE
  8
0
 10
15.6867
 20
49.351
 11
15.6604
 21
49.3703
  0
LINE
  8
0
 10
15.6604
 20
49.3703
 11
15.6311
 21
49.3848
  0
LINE
  8
0
 10
15.6311
 20
49.3848
 11
15.5997
 21
49.394
  0
LINE
  8
0
 10
15.5997
 20
49.394
 11
15.5672
 21
49.3975
  0
LINE
  8
0
 10
15.5672
 20
49.3975
 11
15.5346
 21
49.3954
  0
LINE
  8
0
 10
15.5346
 20
49.3954
 11
6.82465
 21
48.0548
  0
LINE
  8
0
 10
6.82465
 20
48.0548
 11
6.65071
 21
48.0434
  0
LINE
  8
0
 10
6.65071
 20
48.0434
 11
6.47743
 21
48.0623
  0
LINE
  8
0
 10
6.47743
 20
48.0623
 11
6.31009
 21
48.1111
  0
LINE
  8
0
 10
6.31009
 20
48.1111
 11
6.15375
 21
48.1882
  0
LINE
  8
0
 10
6.15375
 20
48.1882
 11
6.01318
 21
48.2913
  0
LINE
  8
0
 10
6.01318
 20
48.2913
 11
5.89264
 21
48.4172
  0
LINE
  8
0
 10
5.89264
 20
48.4172
 11
5.79579
 21
48.5621
  0
LINE
  8
0
 10
5.79579
 20
48.5621
 11
5.72559
 21
48.7217
  0
LINE
  8
0
 10
5.72559
 20
48.7217
 11
5.68416
 21
48.891
  0
LINE
  8
0
 10
5.68416
 20
48.891
 11
5.30385
 21
51.3619
  0
LINE
  8
0
 10
5.30385
 20
51.3619
 11
5.29816
 21
51.4489
  0
LINE
  8
0
 10
5.29816
 20
51.4489
 11
5.30765
 21
51.5355
  0
LINE
  8
0
 10
5.30765
 20
51.5355
 11
5.33203
 21
51.6192
  0
LINE
  8
0
 10
5.33203
 20
51.6192
 11
5.37057
 21
51.6974
  0
LINE
  8
0
 10
5.37057
 20
51.6974
 11
5.42212
 21
51.7677
  0
LINE
  8
0
 10
5.42212
 20
51.7677
 11
5.48508
 21
51.8279
  0
LINE
  8
0
 10
5.48508
 20
51.8279
 11
5.55754
 21
51.8763
  0
LINE
  8
0
 10
5.55754
 20
51.8763
 11
5.63731
 21
51.9115
  0
LINE
  8
0
 10
5.63731
 20
51.9115
 11
5.72197
 21
51.9322
  0
LINE
  8
0
 10
5.72197
 20
51.9322
 11
6.53973
 21
52.0619
  0
LINE
  8
0
 10
6.53973
 20
52.0619
 11
7.35011
 21
52.1981
  0
LINE
  8
0
 10
7.35011
 20
52.1981
 11
8.14696
 21
52.3399
  0
LINE
  8
0
 10
8.14696
 20
52.3399
 11
8.92418
 21
52.486
  0
LINE
  8
0
 10
8.92418
 20
52.486
 11
9.67587
 21
52.6355
  0
LINE
  8
0
 10
9.67587
 20
52.6355
 11
10.3963
 21
52.7872
  0
LINE
  8
0
 10
10.3963
 20
52.7872
 11
11.08
 21
52.9398
  0
LINE
  8
0
 10
11.08
 20
52.9398
 11
11.7218
 21
53.0923
  0
LINE
  8
0
 10
11.7218
 20
53.0923
 11
12.3167
 21
53.2435
  0
LINE
  8
0
 10
12.3167
 20
53.2435
 11
12.8604
 21
53.3923
  0
LINE
  8
0
 10
12.8604
 20
53.3923
 11
13.3485
 21
53.5374
  0
LINE
  8
0
 10
13.3485
 20
53.5374
 11
13.7774
 21
53.6779
  0
LINE
  8
0
 10
13.7774
 20
53.6779
 11
14.1439
 21
53.8126
  0
LINE
  8
0
 10
14.1439
 20
53.8126
 11
14.4451
 21
53.9405
  0
LINE
  8
0
 10
14.4451
 20
53.9405
 11
14.6787
 21
54.0607
  0
LINE
  8
0
 10
14.6787
 20
54.0607
 11
14.843
 21
54.1721
  0
LINE
  8
0
 10
14.843
 20
54.1721
 11
14.9368
 21
54.274
  0
LINE
  8
0
 10
14.9368
 20
54.274
 11
14.9593
 21
54.3657
  0
LINE
  8
0
 10
14.9593
 20
54.3657
 11
14.9117
 21
54.6746
  0
LINE
  8
0
 10
14.9117
 20
54.6746
 11
14.904
 21
54.7063
  0
LINE
  8
0
 10
14.904
 20
54.7063
 11
14.8908
 21
54.7362
  0
LINE
  8
0
 10
14.8908
 20
54.7362
 11
14.8727
 21
54.7634
  0
LINE
  8
0
 10
14.8727
 20
54.7634
 11
14.8501
 21
54.787
  0
LINE
  8
0
 10
14.8501
 20
54.787
 11
14.8237
 21
54.8063
  0
LINE
  8
0
 10
14.8237
 20
54.8063
 11
14.7944
 21
54.8208
  0
LINE
  8
0
 10
14.7944
 20
54.8208
 11
14.763
 21
54.8299
  0
LINE
  8
0
 10
14.763
 20
54.8299
 11
14.7305
 21
54.8335
  0
LINE
  8
0
 10
14.7305
 20
54.8335
 11
14.6979
 21
54.8314
  0
LINE
  8
0
 10
14.6979
 20
54.8314
 11
5.98796
 21
53.4908
  0
LINE
  8
0
 10
5.98796
 20
53.4908
 11
5.81403
 21
53.4794
  0
LINE
  8
0
 10
5.81403
 20
53.4794
 11
5.64075
 21
53.4983
  0
LINE
  8
0
 10
5.64075
 20
53.4983
 11
5.4734
 21
53.5471
  0
LINE
  8
0
 10
5.4734
 20
53.5471
 11
5.31708
 21
53.6242
  0
LINE
  8
0
 10
5.31708
 20
53.6242
 11
5.1765
 21
53.7273
  0
LINE
  8
0
 10
5.1765
 20
53.7273
 11
5.05595
 21
53.8532
  0
LINE
  8
0
 10
5.05595
 20
53.8532
 11
4.95912
 21
53.9981
  0
LINE
  8
0
 10
4.95912
 20
53.9981
 11
4.88892
 21
54.1577
  0
LINE
  8
0
 10
4.88892
 20
54.1577
 11
4.84749
 21
54.327
  0
LINE
  8
0
 10
4.84749
 20
54.327
 11
4.46718
 21
56.7979
  0
LINE
  8
0
 10
4.46718
 20
56.7979
 11
4.46147
 21
56.8849
  0
LINE
  8
0
 10
4.46147
 20
56.8849
 11
4.47096
 21
56.9715
  0
LINE
  8
0
 10
4.47096
 20
56.9715
 11
4.49535
 21
57.0552
  0
LINE
  8
0
 10
4.49535
 20
57.0552
 11
4.53391
 21
57.1334
  0
LINE
  8
0
 10
4.53391
 20
57.1334
 11
4.58543
 21
57.2036
  0
LINE
  8
0
 10
4.58543
 20
57.2036
 11
4.64839
 21
57.2639
  0
LINE
  8
0
 10
4.64839
 20
57.2639
 11
4.72086
 21
57.3123
  0
LINE
  8
0
 10
4.72086
 20
57.3123
 11
4.80063
 21
57.3474
  0
LINE
  8
0
 10
4.80063
 20
57.3474
 11
4.8853
 21
57.3681
  0
LINE
  8
0
 10
4.8853
 20
57.3681
 11
5.70306
 21
57.4979
  0
LINE
  8
0
 10
5.70306
 20
57.4979
 11
6.51344
 21
57.6341
  0
LINE
  8
0
 10
6.51344
 20
57.6341
 11
7.31027
 21
57.7759
  0
LINE
  8
0
 10
7.31027
 20
57.7759
 11
8.08749
 21
57.922
  0
LINE
  8
0
 10
8.08749
 20
57.922
 11
8.83919
 21
58.0715
  0
LINE
  8
0
 10
8.83919
 20
58.0715
 11
9.55963
 21
58.2231
  0
LINE
  8
0
 10
9.55963
 20
58.2231
 11
10.2433
 21
58.3758
  0
LINE
  8
0
 10
10.2433
 20
58.3758
 11
10.8851
 21
58.5283
  0
LINE
  8
0
 10
10.8851
 20
58.5283
 11
11.4801
 21
58.6795
  0
LINE
  8
0
 10
11.4801
 20
58.6795
 11
12.0237
 21
58.8283
  0
LINE
  8
0
 10
12.0237
 20
58.8283
 11
12.5118
 21
58.9734
  0
LINE
  8
0
 10
12.5118
 20
58.9734
 11
12.9407
 21
59.1139
  0
LINE
  8
0
 10
12.9407
 20
59.1139
 11
13.3072
 21
59.2486
  0
LINE
  8
0
 10
13.3072
 20
59.2486
 11
13.6084
 21
59.3765
  0
LINE
  8
0
 10
13.6084
 20
59.3765
 11
13.842
 21
59.4966
  0
LINE
  8
0
 10
13.842
 20
59.4966
 11
14.0064
 21
59.6081
  0
LINE
  8
0
 10
14.0064
 20
59.6081
 11
14.1001
 21
59.71
  0
LINE
  8
0
 10
14.1001
 20
59.71
 11
14.1226
 21
59.8017
  0
LINE
  8
0
 10
14.1226
 20
59.8017
 11
14.0751
 21
60.1105
  0
LINE
  8
0
 10
14.0751
 20
60.1105
 11
14.0673
 21
60.1423
  0
LINE
  8
0
 10
14.0673
 20
60.1423
 11
14.0541
 21
60.1722
  0
LINE
  8
0
 10
14.0541
 20
60.1722
 11
14.036
 21
60.1994
  0
LINE
  8
0
 10
14.036
 20
60.1994
 11
14.0134
 21
60.223
  0
LINE
  8
0
 10
14.0134
 20
60.223
 11
13.987
 21
60.2423
  0
LINE
  8
0
 10
13.987
 20
60.2423
 11
13.9577
 21
60.2568
  0
LINE
  8
0
 10
13.9577
 20
60.2568
 11
13.9263
 21
60.2659
  0
LINE
  8
0
 10
13.9263
 20
60.2659
 11
13.8938
 21
60.2695
  0
LINE
  8
0
 10
13.8938
 20
60.2695
 11
13.8612
 21
60.2673
  0
LINE
  8
0
 10
13.8612
 20
60.2673
 11
5.15129
 21
58.9268
  0
LINE
  8
0
 10
5.15129
 20
58.9268
 11
4.97736
 21
58.9154
  0
LINE
  8
0
 10
4.97736
 20
58.9154
 11
4.80408
 21
58.9343
  0
LINE
  8
0
 10
4.80408
 20
58.9343
 11
4.63673
 21
58.9831
  0
LINE
  8
0
 10
4.63673
 20
58.9831
 11
4.48039
 21
59.0602
  0
LINE
  8
0
 10
4.48039
 20
59.0602
 11
4.33981
 21
59.1633
  0
LINE
  8
0
 10
4.33981
 20
59.1633
 11
4.21928
 21
59.2892
  0
LINE
  8
0
 10
4.21928
 20
59.2892
 11
4.12244
 21
59.4341
  0
LINE
  8
0
 10
4.12244
 20
59.4341
 11
4.05223
 21
59.5937
  0
LINE
  8
0
 10
4.05223
 20
59.5937
 11
4.0108
 21
59.763
  0
LINE
  8
0
 10
4.0108
 20
59.763
 11
3.63049
 21
62.2339
  0
LINE
  8
0
 10
3.63049
 20
62.2339
 11
3.6248
 21
62.3209
  0
LINE
  8
0
 10
3.6248
 20
62.3209
 11
3.63428
 21
62.4075
  0
LINE
  8
0
 10
3.63428
 20
62.4075
 11
3.65868
 21
62.4912
  0
LINE
  8
0
 10
3.65868
 20
62.4912
 11
3.69722
 21
62.5694
  0
LINE
  8
0
 10
3.69722
 20
62.5694
 11
3.74876
 21
62.6396
  0
LINE
  8
0
 10
3.74876
 20
62.6396
 11
3.81171
 21
62.6999
  0
LINE
  8
0
 10
3.81171
 20
62.6999
 11
3.88419
 21
62.7483
  0
LINE
  8
0
 10
3.88419
 20
62.7483
 11
3.96396
 21
62.7834
  0
LINE
  8
0
 10
3.96396
 20
62.7834
 11
4.04861
 21
62.8041
  0
LINE
  8
0
 10
4.04861
 20
62.8041
 11
4.86638
 21
62.9339
  0
LINE
  8
0
 10
4.86638
 20
62.9339
 11
5.67676
 21
63.0701
  0
LINE
  8
0
 10
5.67676
 20
63.0701
 11
6.4736
 21
63.2119
  0
LINE
  8
0
 10
6.4736
 20
63.2119
 11
7.25082
 21
63.358
  0
LINE
  8
0
 10
7.25082
 20
63.358
 11
8.0025
 21
63.5075
  0
LINE
  8
0
 10
8.0025
 20
63.5075
 11
8.72295
 21
63.6591
  0
LINE
  8
0
 10
8.72295
 20
63.6591
 11
9.40666
 21
63.8118
  0
LINE
  8
0
 10
9.40666
 20
63.8118
 11
10.0484
 21
63.9643
  0
LINE
  8
0
 10
10.0484
 20
63.9643
 11
10.6434
 21
64.1155
  0
LINE
  8
0
 10
10.6434
 20
64.1155
 11
11.187
 21
64.2643
  0
LINE
  8
0
 10
11.187
 20
64.2643
 11
11.6751
 21
64.4094
  0
LINE
  8
0
 10
11.6751
 20
64.4094
 11
12.104
 21
64.5499
  0
LINE
  8
0
 10
12.104
 20
64.5499
 11
12.4705
 21
64.6846
  0
LINE
  8
0
 10
12.4705
 20
64.6846
 11
12.7717
 21
64.8125
  0
LINE
  8
0
 10
12.7717
 20
64.8125
 11
13.0054
 21
64.9326
  0
LINE
  8
0
 10
13.0054
 20
64.9326
 11
13.1697
 21
65.0441
  0
LINE
  8
0
 10
13.1697
 20
65.0441
 11
13.2635
 21
65.146
  0
LINE
  8
0
 10
13.2635
 20
65.146
 11
13.2859
 21
65.2377
  0
LINE
  8
0
 10
13.2859
 20
65.2377
 11
13.2384
 21
65.5465
  0
LINE
  8
0
 10
13.2384
 20
65.5465
 11
13.2306
 21
65.5783
  0
LINE
  8
0
 10
13.2306
 20
65.5783
 11
13.2175
 21
65.6082
  0
LINE
  8
0
 10
13.2175
 20
65.6082
 11
13.1993
 21
65.6354
  0
LINE
  8
0
 10
13.1993
 20
65.6354
 11
13.1767
 21
65.659
  0
LINE
  8
0
 10
13.1767
 20
65.659
 11
13.1503
 21
65.6783
  0
LINE
  8
0
 10
13.1503
 20
65.6783
 11
13.121
 21
65.6928
  0
LINE
  8
0
 10
13.121
 20
65.6928
 11
13.0896
 21
65.7019
  0
LINE
  8
0
 10
13.0896
 20
65.7019
 11
13.0572
 21
65.7055
  0
LINE
  8
0
 10
13.0572
 20
65.7055
 11
13.0246
 21
65.7033
  0
LINE
  8
0
 10
13.0246
 20
65.7033
 11
4.31461
 21
64.3627
  0
LINE
  8
0
 10
4.31461
 20
64.3627
 11
4.14067
 21
64.3513
  0
LINE
  8
0
 10
4.14067
 20
64.3513
 11
3.96739
 21
64.3703
  0
LINE
  8
0
 10
3.96739
 20
64.3703
 11
3.80005
 21
64.4191
  0
LINE
  8
0
 10
3.80005
 20
64.4191
 11
3.64371
 21
64.4962
  0
LINE
  8
0
 10
3.64371
 20
64.4962
 11
3.50314
 21
64.5993
  0
LINE
  8
0
 10
3.50314
 20
64.5993
 11
3.3826
 21
64.7252
  0
LINE
  8
0
 10
3.3826
 20
64.7252
 11
3.28577
 21
64.8701
  0
LINE
  8
0
 10
3.28577
 20
64.8701
 11
3.21556
 21
65.0297
  0
LINE
  8
0
 10
3.21556
 20
65.0297
 11
3.17412
 21
65.199
  0
LINE
  8
0
 10
3.17412
 20
65.199
 11
2.79382
 21
67.6699
  0
LINE
  8
0
 10
2.79382
 20
67.6699
 11
2.78812
 21
67.7569
  0
LINE
  8
0
 10
2.78812
 20
67.7569
 11
2.79761
 21
67.8435
  0
LINE
  8
0
 10
2.79761
 20
67.8435
 11
2.82199
 21
67.9272
  0
LINE
  8
0
 10
2.82199
 20
67.9272
 11
2.86053
 21
68.0053
  0
LINE
  8
0
 10
2.86053
 20
68.0053
 11
2.91208
 21
68.0756
  0
LINE
  8
0
 10
2.91208
 20
68.0756
 11
2.97504
 21
68.1359
  0
LINE
  8
0
 10
2.97504
 20
68.1359
 11
3.0475
 21
68.1843
  0
LINE
  8
0
 10
3.0475
 20
68.1843
 11
3.12727
 21
68.2194
  0
LINE
  8
0
 10
3.12727
 20
68.2194
 11
3.21193
 21
68.2401
  0
LINE
  8
0
 10
3.21193
 20
68.2401
 11
4.02969
 21
68.3698
  0
LINE
  8
0
 10
4.02969
 20
68.3698
 11
4.84009
 21
68.5061
  0
LINE
  8
0
 10
4.84009
 20
68.5061
 11
5.63692
 21
68.6478
  0
LINE
  8
0
 10
5.63692
 20
68.6478
 11
6.41414
 21
68.794
  0
LINE
  8
0
 10
6.41414
 20
68.794
 11
7.16583
 21
68.9435
  0
LINE
  8
0
 10
7.16583
 20
68.9435
 11
7.88628
 21
69.0951
  0
LINE
  8
0
 10
7.88628
 20
69.0951
 11
8.56998
 21
69.2478
  0
LINE
  8
0
 10
8.56998
 20
69.2478
 11
9.21176
 21
69.4003
  0
LINE
  8
0
 10
9.21176
 20
69.4003
 11
9.80672
 21
69.5515
  0
LINE
  8
0
 10
9.80672
 20
69.5515
 11
10.3503
 21
69.7003
  0
LINE
  8
0
 10
10.3503
 20
69.7003
 11
10.8384
 21
69.8454
  0
LINE
  8
0
 10
10.8384
 20
69.8454
 11
11.2674
 21
69.9859
  0
LINE
  8
0
 10
11.2674
 20
69.9859
 11
11.6338
 21
70.1206
  0
LINE
  8
0
 10
11.6338
 20
70.1206
 11
11.935
 21
70.2485
  0
LINE
  8
0
 10
11.935
 20
70.2485
 11
12.1687
 21
70.3686
  0
LINE
  8
0
 10
12.1687
 20
70.3686
 11
12.333
 21
70.4801
  0
LINE
  8
0
 10
12.333
 20
70.4801
 11
12.4268
 21
70.582
  0
LINE
  8
0
 10
12.4268
 20
70.582
 11
12.4492
 21
70.6737
  0
LINE
  8
0
 10
12.4492
 20
70.6737
 11
12.4017
 21
70.9825
  0
LINE
  8
0
 10
12.4017
 20
70.9825
 11
12.3939
 21
71.0143
  0
LINE
  8
0
 10
12.3939
 20
71.0143
 11
12.3808
 21
71.0442
  0
LINE
  8
0
 10
12.3808
 20
71.0442
 11
12.3626
 21
71.0714
  0
LINE
  8
0
 10
12.3626
 20
71.0714
 11
12.34
 21
71.095
  0
LINE
  8
0
 10
12.34
 20
71.095
 11
12.3137
 21
71.1143
  0
LINE
  8
0
 10
12.3137
 20
71.1143
 11
12.2843
 21
71.1288
  0
LINE
  8
0
 10
12.2843
 20
71.1288
 11
12.253
 21
71.1379
  0
LINE
  8
0
 10
12.253
 20
71.1379
 11
12.2205
 21
71.1415
  0
LINE
  8
0
 10
12.2205
 20
71.1415
 11
12.1879
 21
71.1393
  0
LINE
  8
0
 10
12.1879
 20
71.1393
 11
3.47794
 21
69.7987
  0
LINE
  8
0
 10
3.47794
 20
69.7987
 11
3.30399
 21
69.7873
  0
LINE
  8
0
 10
3.30399
 20
69.7873
 11
3.13072
 21
69.8063
  0
LINE
  8
0
 10
3.13072
 20
69.8063
 11
2.96336
 21
69.8551
  0
LINE
  8
0
 10
2.96336
 20
69.8551
 11
2.80704
 21
69.9322
  0
LINE
  8
0
 10
2.80704
 20
69.9322
 11
2.66646
 21
70.0352
  0
LINE
  8
0
 10
2.66646
 20
70.0352
 11
2.54593
 21
70.1612
  0
LINE
  8
0
 10
2.54593
 20
70.1612
 11
2.44908
 21
70.3061
  0
LINE
  8
0
 10
2.44908
 20
70.3061
 11
2.37888
 21
70.4657
  0
LINE
  8
0
 10
2.37888
 20
70.4657
 11
2.33745
 21
70.635
  0
LINE
  8
0
 10
2.33745
 20
70.635
 11
1.95714
 21
73.1059
  0
LINE
  8
0
 10
1.95714
 20
73.1059
 11
0.5
 21
72.8816
  0
LINE
  8
0
 10
0.5
 20
72.8816
 11
0.5
 21
0.5
  0
LINE
  8
0
 10
0.5
 20
0.5
 11
7.6875
 21
0.5
  0
LINE
  8
0
 10
7.6875
 20
0.5
 11
7.6875
 21
4.25
  0
LINE
  8
0
 10
1.9375
 20
48.1625
 11
1.9158
 21
48.1644
  0
LINE
  8
0
 10
1.9158
 20
48.1644
 11
1.89476
 21
48.17
  0
LINE
  8
0
 10
1.89476
 20
48.17
 11
1.875
 21
48.1792
  0
LINE
  8
0
 10
1.875
 20
48.1792
 11
1.85716
 21
48.1917
  0
LINE
  8
0
 10
1.85716
 20
48.1917
 11
1.84175
 21
48.2072
  0
LINE
  8
0
 10
1.84175
 20
48.2072
 11
1.82925
 21
48.225
  0
LINE
  8
0
 10
1.82925
 20
48.225
 11
1.82004
 21
48.2447
  0
LINE
  8
0
 10
1.82004
 20
48.2447
 11
1.81441
 21
48.2658
  0
LINE
  8
0
 10
1.81441
 20
48.2658
 11
1.8125
 21
48.2875
  0
LINE
  8
0
 10
1.8125
 20
48.2875
 11
1.81441
 21
48.3092
  0
LINE
  8
0
 10
1.81441
 20
48.3092
 11
1.82004
 21
48.3302
  0
LINE
  8
0
 10
1.82004
 20
48.3302
 11
1.82925
 21
48.35
  0
LINE
  8
0
 10
1.82925
 20
48.35
 11
1.84175
 21
48.3678
  0
LINE
  8
0
 10
1.84175
 20
48.3678
 11
1.85716
 21
48.3833
  0
LINE
  8
0
 10
1.85716
 20
48.3833
 11
1.875
 21
48.3958
  0
LINE
  8
0
 10
1.875
 20
48.3958
 11
1.89476
 21
48.405
  0
LINE
  8
0
 10
1.89476
 20
48.405
 11
1.9158
 21
48.4106
  0
LINE
  8
0
 10
1.9158
 20
48.4106
 11
1.9375
 21
48.4125
  0
LINE
  8
0
 10
1.9375
 20
48.4125
 11
1.9375
 21
52.4125
  0
LINE
  8
0
 10
1.9375
 20
52.4125
 11
1.9158
 21
52.4144
  0
LINE
  8
0
 10
1.9158
 20
52.4144
 11
1.89476
 21
52.42
  0
LINE
  8
0
 10
1.89476
 20
52.42
 11
1.875
 21
52.4292
  0
LINE
  8
0
 10
1.875
 20
52.4292
 11
1.85716
 21
52.4417
  0
LINE
  8
0
 10
1.85716
 20
52.4417
 11
1.84175
 21
52.4572
  0
LINE
  8
0
 10
1.84175
 20
52.4572
 11
1.82925
 21
52.475
  0
LINE
  8
0
 10
1.82925
 20
52.475
 11
1.82004
 21
52.4947
  0
LINE
  8
0
 10
1.82004
 20
52.4947
 11
1.81441
 21
52.5158
  0
LINE
  8
0
 10
1.81441
 20
52.5158
 11
1.8125
 21
52.5375
  0
LINE
  8
0
 10
1.8125
 20
52.5375
 11
1.81441
 21
52.5592
  0
LINE
  8
0
 10
1.81441
 20
52.5592
 11
1.82004
 21
52.5802
  0
LINE
  8
0
 10
1.82004
 20
52.5802
 11
1.82925
 21
52.6
  0
LINE
  8
0
 10
1.82925
 20
52.6
 11
1.84175
 21
52.6178
  0
LINE
  8
0
 10
1.84175
 20
52.6178
 11
1.85716
 21
52.6333
  0
LINE
  8
0
 10
1.85716
 20
52.6333
 11
1.875
 21
52.6458
  0
LINE
  8
0
 10
1.875
 20
52.6458
 11
1.89476
 21
52.655
  0
LINE
  8
0
 10
1.89476
 20
52.655
 11
1.9158
 21
52.6606
  0
LINE
  8
0
 10
1.9158
 20
52.6606
 11
1.9375
 21
52.6625
  0
LINE
  8
0
 10
1.9375
 20
52.6625
 11
2.75
 21
52.6625
  0
LINE
  8
0
 10
2.75
 20
52.6625
 11
2.77171
 21
52.6606
  0
LINE
  8
0
 10
2.77171
 20
52.6606
 11
2.79276
 21
52.655
  0
LINE
  8
0
 10
2.79276
 20
52.655
 11
2.8125
 21
52.6458
  0
LINE
  8
0
 10
2.8125
 20
52.6458
 11
2.83035
 21
52.6333
  0
LINE
  8
0
 10
2.83035
 20
52.6333
 11
2.84576
 21
52.6178
  0
LINE
  8
0
 10
2.84576
 20
52.6178
 11
2.85826
 21
52.6
  0
LINE
  8
0
 10
2.85826
 20
52.6
 11
2.86746
 21
52.5802
  0
LINE
  8
0
 10
2.86746
 20
52.5802
 11
2.87311
 21
52.5592
  0
LINE
  8
0
 10
2.87311
 20
52.5592
 11
2.875
 21
52.5375
  0
LINE
  8
0
 10
2.875
 20
52.5375
 11
2.87311
 21
52.5158
  0
LINE
  8
0
 10
2.87311
 20
52.5158
 11
2.86746
 21
52.4947
  0
LINE
  8
0
 10
2.86746
 20
52.4947
 11
2.85826
 21
52.475
  0
LINE
  8
0
 10
2.85826
 20
52.475
 11
2.84576
 21
52.4572
  0
LINE
  8
0
 10
2.84576
 20
52.4572
 11
2.83035
 21
52.4417
  0
LINE
  8
0
 10
2.83035
 20
52.4417
 11
2.8125
 21
52.4292
  0
LINE
  8
0
 10
2.8125
 20
52.4292
 11
2.79276
 21
52.42
  0
LINE
  8
0
 10
2.79276
 20
52.42
 11
2.77171
 21
52.4144
  0
LINE
  8
0
 10
2.77171
 20
52.4144
 11
2.75
 21
52.4125
  0
LINE
  8
0
 10
2.75
 20
52.4125
 11
2.75
 21
48.4125
  0
LINE
  8
0
 10
2.75
 20
48.4125
 11
2.77171
 21
48.4106
  0
LINE
  8
0
 10
2.77171
 20
48.4106
 11
2.79276
 21
48.405
  0
LINE
  8
0
 10
2.79276
 20
48.405
 11
2.8125
 21
48.3958
  0
LINE
  8
0
 10
2.8125
 20
48.3958
 11
2.83035
 21
48.3833
  0
LINE
  8
0
 10
2.83035
 20
48.3833
 11
2.84576
 21
48.3678
  0
LINE
  8
0
 10
2.84576
 20
48.3678
 11
2.85826
 21
48.35
  0
LINE
  8
0
 10
2.85826
 20
48.35
 11
2.86746
 21
48.3302
  0
LINE
  8
0
 10
2.86746
 20
48.3302
 11
2.87311
 21
48.3092
  0
LINE
  8
0
 10
2.87311
 20
48.3092
 11
2.875
 21
48.2875
  0
LINE
  8
0
 10
2.875
 20
48.2875
 11
2.87311
 21
48.2658
  0
LINE
  8
0
 10
2.87311
 20
48.2658
 11
2.86746
 21
48.2447
  0
LINE
  8
0
 10
2.86746
 20
48.2447
 11
2.85826
 21
48.225
  0
LINE
  8
0
 10
2.85826
 20
48.225
 11
2.84576
 21
48.2072
  0
LINE
  8
0
 10
2.84576
 20
48.2072
 11
2.83035
 21
48.1917
  0
LINE
  8
0
 10
2.83035
 20
48.1917
 11
2.8125
 21
48.1792
  0
LINE
  8
0
 10
2.8125
 20
48.1792
 11
2.79276
 21
48.17
  0
LINE
  8
0
 10
2.79276
 20
48.17
 11
2.77171
 21
48.1644
  0
LINE
  8
0
 10
2.77171
 20
48.1644
 11
2.75
 21
48.1625
  0
LINE
  8
0
 10
2.75
 20
48.1625
 11
1.9375
 21
48.1625
  0
LINE
  8
0
 10
1.9375
 20
30.9
 11
1.9158
 21
30.9019
  0
LINE
  8
0
 10
1.9158
 20
30.9019
 11
1.89476
 21
30.9075
  0
LINE
  8
0
 10
1.89476
 20
30.9075
 11
1.875
 21
30.9167
  0
LINE
  8
0
 10
1.875
 20
30.9167
 11
1.85716
 21
30.9292
  0
LINE
  8
0
 10
1.85716
 20
30.9292
 11
1.84175
 21
30.9446
  0
LINE
  8
0
 10
1.84175
 20
30.9446
 11
1.82925
 21
30.9625
  0
LINE
  8
0
 10
1.82925
 20
30.9625
 11
1.82004
 21
30.9822
  0
LINE
  8
0
 10
1.82004
 20
30.9822
 11
1.81441
 21
31.0033
  0
LINE
  8
0
 10
1.81441
 20
31.0033
 11
1.8125
 21
31.025
  0
LINE
  8
0
 10
1.8125
 20
31.025
 11
1.81441
 21
31.0467
  0
LINE
  8
0
 10
1.81441
 20
31.0467
 11
1.82004
 21
31.0677
  0
LINE
  8
0
 10
1.82004
 20
31.0677
 11
1.82925
 21
31.0875
  0
LINE
  8
0
 10
1.82925
 20
31.0875
 11
1.84175
 21
31.1053
  0
LINE
  8
0
 10
1.84175
 20
31.1053
 11
1.85716
 21
31.1207
  0
LINE
  8
0
 10
1.85716
 20
31.1207
 11
1.875
 21
31.1332
  0
LINE
  8
0
 10
1.875
 20
31.1332
 11
1.89476
 21
31.1425
  0
LINE
  8
0
 10
1.89476
 20
31.1425
 11
1.9158
 21
31.1481
  0
LINE
  8
0
 10
1.9158
 20
31.1481
 11
1.9375
 21
31.15
  0
LINE
  8
0
 10
1.9375
 20
31.15
 11
1.9375
 21
35.15
  0
LINE
  8
0
 10
1.9375
 20
35.15
 11
1.9158
 21
35.1519
  0
LINE
  8
0
 10
1.9158
 20
35.1519
 11
1.89476
 21
35.1575
  0
LINE
  8
0
 10
1.89476
 20
35.1575
 11
1.875
 21
35.1667
  0
LINE
  8
0
 10
1.875
 20
35.1667
 11
1.85716
 21
35.1792
  0
LINE
  8
0
 10
1.85716
 20
35.1792
 11
1.84175
 21
35.1946
  0
LINE
  8
0
 10
1.84175
 20
35.1946
 11
1.82925
 21
35.2125
  0
LINE
  8
0
 10
1.82925
 20
35.2125
 11
1.82004
 21
35.2322
  0
LINE
  8
0
 10
1.82004
 20
35.2322
 11
1.81441
 21
35.2533
  0
LINE
  8
0
 10
1.81441
 20
35.2533
 11
1.8125
 21
35.275
  0
LINE
  8
0
 10
1.8125
 20
35.275
 11
1.81441
 21
35.2967
  0
LINE
  8
0
 10
1.81441
 20
35.2967
 11
1.82004
 21
35.3177
  0
LINE
  8
0
 10
1.82004
 20
35.3177
 11
1.82925
 21
35.3375
  0
LINE
  8
0
 10
1.82925
 20
35.3375
 11
1.84175
 21
35.3553
  0
LINE
  8
0
 10
1.84175
 20
35.3553
 11
1.85716
 21
35.3707
  0
LINE
  8
0
 10
1.85716
 20
35.3707
 11
1.875
 21
35.3833
  0
LINE
  8
0
 10
1.875
 20
35.3833
 11
1.89476
 21
35.3925
  0
LINE
  8
0
 10
1.89476
 20
35.3925
 11
1.9158
 21
35.3981
  0
LINE
  8
0
 10
1.9158
 20
35.3981
 11
1.9375
 21
35.4
  0
LINE
  8
0
 10
1.9375
 20
35.4
 11
2.75
 21
35.4
  0
LINE
  8
0
 10
2.75
 20
35.4
 11
2.77171
 21
35.3981
  0
LINE
  8
0
 10
2.77171
 20
35.3981
 11
2.79276
 21
35.3925
  0
LINE
  8
0
 10
2.79276
 20
35.3925
 11
2.8125
 21
35.3833
  0
LINE
  8
0
 10
2.8125
 20
35.3833
 11
2.83035
 21
35.3707
  0
LINE
  8
0
 10
2.83035
 20
35.3707
 11
2.84576
 21
35.3553
  0
LINE
  8
0
 10
2.84576
 20
35.3553
 11
2.85826
 21
35.3375
  0
LINE
  8
0
 10
2.85826
 20
35.3375
 11
2.86746
 21
35.3177
  0
LINE
  8
0
 10
2.86746
 20
35.3177
 11
2.87311
 21
35.2967
  0
LINE
  8
0
 10
2.87311
 20
35.2967
 11
2.875
 21
35.275
  0
LINE
  8
0
 10
2.875
 20
35.275
 11
2.87311
 21
35.2533
  0
LINE
  8
0
 10
2.87311
 20
35.2533
 11
2.86746
 21
35.2322
  0
LINE
  8
0
 10
2.86746
 20
35.2322
 11
2.85826
 21
35.2125
  0
LINE
  8
0
 10
2.85826
 20
35.2125
 11
2.84576
 21
35.1946
  0
LINE
  8
0
 10
2.84576
 20
35.1946
 11
2.83035
 21
35.1792
  0
LINE
  8
0
 10
2.83035
 20
35.1792
 11
2.8125
 21
35.1667
  0
LINE
  8
0
 10
2.8125
 20
35.1667
 11
2.79276
 21
35.1575
  0
LINE
  8
0
 10
2.79276
 20
35.1575
 11
2.77171
 21
35.1519
  0
LINE
  8
0
 10
2.77171
 20
35.1519
 11
2.75
 21
35.15
  0
LINE
  8
0
 10
2.75
 20
35.15
 11
2.75
 21
31.15
  0
LINE
  8
0
 10
2.75
 20
31.15
 11
2.77171
 21
31.1481
  0
LINE
  8
0
 10
2.77171
 20
31.1481
 11
2.79276
 21
31.1425
  0
LINE
  8
0
 10
2.79276
 20
31.1425
 11
2.8125
 21
31.1332
  0
LINE
  8
0
 10
2.8125
 20
31.1332
 11
2.83035
 21
31.1207
  0
LINE
  8
0
 10
2.83035
 20
31.1207
 11
2.84576
 21
31.1053
  0
LINE
  8
0
 10
2.84576
 20
31.1053
 11
2.85826
 21
31.0875
  0
LINE
  8
0
 10
2.85826
 20
31.0875
 11
2.86746
 21
31.0677
  0
LINE
  8
0
 10
2.86746
 20
31.0677
 11
2.87311
 21
31.0467
  0
LINE
  8
0
 10
2.87311
 20
31.0467
 11
2.875
 21
31.025
  0
LINE
  8
0
 10
2.875
 20
31.025
 11
2.87311
 21
31.0033
  0
LINE
  8
0
 10
2.87311
 20
31.0033
 11
2.86746
 21
30.9822
  0
LINE
  8
0
 10
2.86746
 20
30.9822
 11
2.85826
 21
30.9625
  0
LINE
  8
0
 10
2.85826
 20
30.9625
 11
2.84576
 21
30.9446
  0
LINE
  8
0
 10
2.84576
 20
30.9446
 11
2.83035
 21
30.9292
  0
LINE
  8
0
 10
2.83035
 20
30.9292
 11
2.8125
 21
30.9167
  0
LINE
  8
0
 10
2.8125
 20
30.9167
 11
2.79276
 21
30.9075
  0
LINE
  8
0
 10
2.79276
 20
30.9075
 11
2.77171
 21
30.9019
  0
LINE
  8
0
 10
2.77171
 20
30.9019
 11
2.75
 21
30.9
  0
LINE
  8
0
 10
2.75
 20
30.9
 11
1.9375
 21
30.9
  0
LINE
  8
0
 10
23.5
 20
62.2375
 11
20.5
 21
62.2375
  0
LINE
  8
0
 10
20.5
 20
62.2375
 11
20.4783
 21
62.2394
  0
LINE
  8
0
 10
20.4783
 20
62.2394
 11
20.4573
 21
62.245
  0
LINE
  8
0
 10
20.4573
 20
62.245
 11
20.4375
 21
62.2542
  0
LINE
  8
0
 10
20.4375
 20
62.2542
 11
20.4197
 21
62.2667
  0
LINE
  8
0
 10
20.4197
 20
62.2667
 11
20.4043
 21
62.2822
  0
LINE
  8
0
 10
20.4043
 20
62.2822
 11
20.3918
 21
62.3
  0
LINE
  8
0
 10
20.3918
 20
62.3
 11
20.3826
 21
62.3197
  0
LINE
  8
0
 10
20.3826
 20
62.3197
 11
20.3769
 21
62.3408
  0
LINE
  8
0
 10
20.3769
 20
62.3408
 11
20.375
 21
62.3625
  0
LINE
  8
0
 10
20.375
 20
62.3625
 11
20.3769
 21
62.3842
  0
LINE
  8
0
 10
20.3769
 20
62.3842
 11
20.3826
 21
62.4052
  0
LINE
  8
0
 10
20.3826
 20
62.4052
 11
20.3918
 21
62.425
  0
LINE
  8
0
 10
20.3918
 20
62.425
 11
20.4043
 21
62.4428
  0
LINE
  8
0
 10
20.4043
 20
62.4428
 11
20.4197
 21
62.4583
  0
LINE
  8
0
 10
20.4197
 20
62.4583
 11
20.4375
 21
62.4707
  0
LINE
  8
0
 10
20.4375
 20
62.4707
 11
20.4573
 21
62.4799
  0
LINE
  8
0
 10
20.4573
 20
62.4799
 11
20.4783
 21
62.4856
  0
LINE
  8
0
 10
20.4783
 20
62.4856
 11
20.5
 21
62.4875
  0
LINE
  8
0
 10
20.5
 20
62.4875
 11
20.5
 21
64.3
  0
LINE
  8
0
 10
20.5
 20
64.3
 11
19
 21
64.3
  0
LINE
  8
0
 10
19
 20
64.3
 11
19
 21
60.2375
  0
LINE
  8
0
 10
19
 20
60.2375
 11
23.5
 21
60.2375
  0
LINE
  8
0
 10
23.5
 20
60.2375
 11
23.5
 21
62.2375
  0
LINE
  8
0
 10
29
 20
64.3
 11
27.5
 21
64.3
  0
LINE
  8
0
 10
27.5
 20
64.3
 11
27.5
 21
62.4875
  0
LINE
  8
0
 10
27.5
 20
62.4875
 11
27.5217
 21
62.4856
  0
LINE
  8
0
 10
27.5217
 20
62.4856
 11
27.5427
 21
62.4799
  0
LINE
  8
0
 10
27.5427
 20
62.4799
 11
27.5625
 21
62.4707
  0
LINE
  8
0
 10
27.5625
 20
62.4707
 11
27.5803
 21
62.4583
  0
LINE
  8
0
 10
27.5803
 20
62.4583
 11
27.5957
 21
62.4428
  0
LINE
  8
0
 10
27.5957
 20
62.4428
 11
27.6082
 21
62.425
  0
LINE
  8
0
 10
27.6082
 20
62.425
 11
27.6174
 21
62.4052
  0
LINE
  8
0
 10
27.6174
 20
62.4052
 11
27.6231
 21
62.3842
  0
LINE
  8
0
 10
27.6231
 20
62.3842
 11
27.625
 21
62.3625
  0
LINE
  8
0
 10
27.625
 20
62.3625
 11
27.6231
 21
62.3408
  0
LINE
  8
0
 10
27.6231
 20
62.3408
 11
27.6174
 21
62.3197
  0
LINE
  8
0
 10
27.6174
 20
62.3197
 11
27.6082
 21
62.3
  0
LINE
  8
0
 10
27.6082
 20
62.3
 11
27.5957
 21
62.2822
  0
LINE
  8
0
 10
27.5957
 20
62.2822
 11
27.5803
 21
62.2667
  0
LINE
  8
0
 10
27.5803
 20
62.2667
 11
27.5625
 21
62.2542
  0
LINE
  8
0
 10
27.5625
 20
62.2542
 11
27.5427
 21
62.245
  0
LINE
  8
0
 10
27.5427
 20
62.245
 11
27.5217
 21
62.2394
  0
LINE
  8
0
 10
27.5217
 20
62.2394
 11
27.5
 21
62.2375
  0
LINE
  8
0
 10
27.5
 20
62.2375
 11
24.5
 21
62.2375
  0
LINE
  8
0
 10
24.5
 20
62.2375
 11
24.5
 21
60.2375
  0
LINE
  8
0
 10
24.5
 20
60.2375
 11
29
 21
60.2375
  0
LINE
  8
0
 10
29
 20
60.2375
 11
29
 21
64.3
  0
ENDSEC
  0
SECTION
  2
OBJECTS
  0
DICTIONARY
  0
ENDSEC
  0
EOF
